SplineFontDB: 3.0
FontName: Untitled1
FullName: Untitled1
FamilyName: Untitled1
Weight: Regular
Copyright: Copyright (c) 2018, skef
UComments: "2018-10-9: Created with FontForge (http://fontforge.org)"
Version: 001.000
ItalicAngle: 0
UnderlinePosition: -100
UnderlineWidth: 50
Ascent: 800
Descent: 200
InvalidEm: 0
LayerCount: 2
Layer: 0 0 "Back" 1
Layer: 1 0 "Fore" 0
XUID: [1021 672 1884493975 793721]
OS2Version: 0
OS2_WeightWidthSlopeOnly: 0
OS2_UseTypoMetrics: 1
CreationTime: 1539110968
ModificationTime: 1539110968
OS2TypoAscent: 0
OS2TypoAOffset: 1
OS2TypoDescent: 0
OS2TypoDOffset: 1
OS2TypoLinegap: 0
OS2WinAscent: 0
OS2WinAOffset: 1
OS2WinDescent: 0
OS2WinDOffset: 1
HheadAscent: 0
HheadAOffset: 1
HheadDescent: 0
HheadDOffset: 1
OS2Vendor: 'PfEd'
DEI: 91125
Encoding: UnicodeBmp
UnicodeInterp: none
NameList: AGL For New Fonts
DisplaySize: -48
AntiAlias: 1
FitToEm: 0
WinInfo: 64 8 10
BeginChars: 68000 694

StartChar: eight.Display.1
Encoding: 67552 -1 0
Width: 0
VWidth: 0
Flags: H
LayerCount: 2
Fore
SplineSet
236 631 m 0
 176 631 137 583 137 537 c 0
 137 506 147 472 210 431 c 2
 241 412 l 1
 268 432 332 478 332 532 c 0
 332 578 301 631 236 631 c 0
394 531 m 0
 394 467 322 418 278 388 c 1
 339 348 l 2
 391 314 419 266 419 208 c 0
 419 132 357 35 226 35 c 0
 120 35 48 90 48 192 c 0
 48 231 65 276 106 312 c 0
 131 334 157 353 182 372 c 1
 164 383 l 2
 103 421 72 462 72 518 c 0
 72 595 139 656 241 656 c 0
 339 656 394 603 394 531 c 0
228 60 m 0
 273 60 354 88 354 188 c 0
 354 236 326 283 264 321 c 2
 217 349 l 1
 131 292 109 222 109 192 c 0
 109 102 183 60 228 60 c 0
EndSplineSet
Comment: "DR(170 166 148 146), aDRS(154 153 151 150 148 147)"
EndChar

StartChar: eight.Display.2
Encoding: 67553 -1 1
Width: 0
VWidth: 0
Flags: H
LayerCount: 2
Fore
SplineSet
236 631 m 0
 176 631 137 583 137 537 c 0
 137 506 147 472 210 431 c 2
 241 412 l 1
 268 432 332 478 332 532 c 0
 332 578 301 631 236 631 c 0
394 531 m 0
 394 467 322 418 278 388 c 1
 339 348 l 2
 391 313.900390625 419 266 419 208 c 0
 419 132 357 35 226 35 c 0
 120 35 48 90 48 192 c 0
 48 231 65 276 106 312 c 0
 131 334 157 353 182 372 c 1
 164 383 l 2
 103 421 72 462 72 518 c 0
 72 595 139 656 241 656 c 0
 339 656 394 603 394 531 c 0
228 60 m 0
 273 60 354 88 354 188 c 0
 354 236 326 283 264 321 c 2
 217 349 l 1
 131 292 109 222 109 192 c 0
 109 102 183 60 228 60 c 0
EndSplineSet
Comment: "DR(144 143 142 141), aDRS(144 143 142)"
EndChar

StartChar: eight.DisplayItalic.1
Encoding: 67568 -1 2
Width: 0
VWidth: 0
Flags: H
LayerCount: 2
Fore
SplineSet
360.345703125 631 m 2
 300.345703125 631 251.142578125 583 241.366210938 537 c 0
 234.77734375 506 237.549804688 472 291.834960938 431 c 2
 318.796875 412 l 1
 350.047851562 432 423.82421875 478 435.303710938 532 c 0
 445.081054688 578 425.346679688 631 360.346679688 631 c 2
 360.345703125 631 l 2
497.08984375 531 m 0
 483.486328125 467 401.071289062 418 350.694335938 388 c 1
 403.192382812 348 l 2
 447.96484375 314 465.762695312 266 453.434570312 208 c 0
 437.280273438 132 354.662109375 35 223.662109375 35 c 0
 117.662109375 35 57.3525390625 90 79.033203125 192 c 0
 87.3232421875 231 113.887695312 276 162.540039062 312 c 0
 192.215820312 334 222.254882812 353 251.29296875 372 c 1
 235.631835938 383 l 2
 182.708984375 421 160.423828125 462 172.327148438 518 c 0
 188.693359375 595 268.659179688 656 370.659179688 656 c 0
 468.659179688 656 512.393554688 603 497.08984375 531 c 0
230.975585938 60 m 0
 275.975585938 60 362.927734375 88 384.182617188 188 c 0
 394.385742188 236 376.375976562 283 322.453125 321 c 2
 281.404296875 349 l 1
 183.2890625 292 146.411132812 222 140.034179688 192 c 0
 120.903320312 102 185.9765625 60 230.975585938 60 c 0
EndSplineSet
Comment: "aDRL(153 151 150 148 147)"
EndChar

StartChar: eight.DisplayItalic.2
Encoding: 67569 -1 3
Width: 0
VWidth: 0
Flags: H
LayerCount: 2
Fore
SplineSet
360.345703125 631 m 2
 300.345703125 631 251.142578125 583 241.366210938 537 c 0
 234.77734375 506 237.549804688 472 291.834960938 431 c 2
 318.796875 412 l 1
 350.047851562 432 423.82421875 478 435.303710938 532 c 0
 445.081054688 578 425.346679688 631 360.346679688 631 c 2
 360.345703125 631 l 2
497.08984375 531 m 0
 483.486328125 467 401.071289062 418 350.694335938 388 c 1
 403.192382812 348 l 2
 447.944335938 313.900390625 465.762695312 266 453.434570312 208 c 0
 437.280273438 132 354.662109375 35 223.662109375 35 c 0
 117.662109375 35 57.3525390625 90 79.033203125 192 c 0
 87.3232421875 231 113.887695312 276 162.540039062 312 c 0
 192.215820312 334 222.254882812 353 251.29296875 372 c 1
 235.631835938 383 l 2
 182.708984375 421 160.423828125 462 172.327148438 518 c 0
 188.693359375 595 268.659179688 656 370.659179688 656 c 0
 468.659179688 656 512.393554688 603 497.08984375 531 c 0
230.975585938 60 m 0
 275.975585938 60 362.927734375 88 384.182617188 188 c 0
 394.385742188 236 376.375976562 283 322.453125 321 c 2
 281.404296875 349 l 1
 183.2890625 292 146.411132812 222 140.034179688 192 c 0
 120.903320312 102 185.9765625 60 230.975585938 60 c 0
EndSplineSet
Comment: "aDRL(144)"
EndChar

StartChar: eight.DisplayItalic.3
Encoding: 67570 -1 4
Width: 0
VWidth: 0
Flags: H
LayerCount: 2
Fore
SplineSet
360.345703125 631 m 0
 300.345703125 631 251.142578125 583 241.365234375 537 c 0
 234.776367188 506 237.548828125 472 291.833984375 431 c 2
 318.795898438 412 l 1
 350.046875 432 423.82421875 478 435.302734375 532 c 0
 445.080078125 578 425.345703125 631 360.345703125 631 c 0
497.08984375 531 m 0
 483.486328125 467 401.071289062 418 350.694335938 388 c 1
 403.192382812 348 l 2
 447.944335938 313.900390625 465.762695312 266 453.434570312 208 c 0
 437.280273438 132 354.662109375 35 223.662109375 35 c 0
 117.662109375 35 57.3515625 90 79.033203125 192 c 0
 87.3232421875 231 113.887695312 276 162.540039062 312 c 0
 192.215820312 334 222.254882812 353 251.29296875 372 c 1
 235.631835938 383 l 2
 182.708984375 421 160.423828125 462 172.327148438 518 c 0
 188.692382812 595 268.659179688 656 370.659179688 656 c 0
 468.659179688 656 512.393554688 603 497.08984375 531 c 0
230.975585938 60 m 0
 275.975585938 60 362.927734375 88 384.182617188 188 c 0
 394.385742188 236 376.375976562 283 322.453125 321 c 2
 281.404296875 349 l 1
 183.2890625 292 146.41015625 222 140.033203125 192 c 0
 120.903320312 102 185.975585938 60 230.975585938 60 c 0
EndSplineSet
Comment: "aDRL(143 142)"
EndChar

StartChar: eight.Regular.1
Encoding: 67584 -1 5
Width: 0
VWidth: 0
Flags: H
LayerCount: 2
Fore
SplineSet
234 621 m 0
 174 621 142 583 142 537 c 0
 142 506 149 473 212 432 c 2
 243 413 l 1
 270 433 323 478 323 532 c 0
 323 578 299 621 234 621 c 0
393 531 m 0
 393 467 317 415 270 392 c 1
 341 349 l 2
 394.099609375 316.799804688 419 266 419 208 c 0
 419 132 355 36 224 36 c 0
 118 36 46 90 46 192 c 0
 46 231 63 276 104 312 c 0
 129 334 155.5 351.5 184.5 367 c 1
 159 383 l 2
 98.099609375 421.200195312 71 462 71 518 c 0
 71 595 137 656 239 656 c 0
 337 656 393 603 393 531 c 0
226 71 m 0
 271 71 346 88 346 188 c 0
 346 236 321 283 259 321 c 2
 212 349 l 1
 126 292 113 222 113 192 c 0
 113 102 181 71 226 71 c 0
EndSplineSet
Comment: "R(170 166 153 152 151 148 146 144 142 139), aS(154 153 151 150 148 147 144 143 142 140 139)"
EndChar

StartChar: eight.Regular.2
Encoding: 67588 -1 6
Width: 0
VWidth: 0
Flags: H
LayerCount: 2
Fore
SplineSet
236 622 m 0
 176 622 143 583 143 537 c 0
 143 506 150 472 213 431 c 2
 244 412 l 1
 271 432 326 478 326 532 c 0
 326 578 301 622 236 622 c 0
394 531 m 0
 394 467 325 418 281 388 c 1
 342 348 l 2
 394 313.900390625 419 266 419 208 c 0
 419 132 357 35 226 35 c 0
 120 35 48 90 48 192 c 0
 48 231 65 276 106 312 c 0
 131 334 154 353 179 372 c 1
 161 383 l 2
 100 421 72 462 72 518 c 0
 72 595 139 657 241 657 c 0
 339 657 394 603 394 531 c 0
228 70 m 0
 273 70 348 88 348 188 c 0
 348 236 323 283 261 321 c 2
 214 349 l 1
 128 292 115 222 115 192 c 0
 115 102 183 70 228 70 c 0
EndSplineSet
Comment: "R(130 127 125 121 118), aS(132 126 122 120)"
EndChar

StartChar: eight.Regular.3
Encoding: 67589 -1 7
Width: 0
VWidth: 0
Flags: H
LayerCount: 2
Fore
SplineSet
223 591 m 0
 166 591 135 555 135 511 c 0
 135 482 142 449 202 410 c 2
 231 392 l 1
 257 411 309 455 309 506 c 0
 309 550 285 591 223 591 c 0
373 505 m 0
 373 444 308 398 266 370 c 1
 324 332 l 2
 373 299.900390625 397 254 397 199 c 0
 397 127 338 36 214 36 c 0
 114 36 45 87 45 184 c 0
 45 221 61 264 100 298 c 0
 124 319 145 337 169 355 c 1
 152 365 l 2
 94 401 68 440 68 493 c 0
 68 566 131 624 228 624 c 0
 321 624 373 573 373 505 c 0
216 69 m 0
 259 69 329 85 329 180 c 0
 329 225 305.900390625 269.900390625 247 306 c 2
 203 333 l 1
 122 279 109 212 109 184 c 0
 109 99 173 69 216 69 c 0
EndSplineSet
Comment: "R(116 115 114 111), Re(108 105 103 96 89 88), Sc(108 107 105 103), aS(117 115)"
EndChar

StartChar: eight.Regular.4
Encoding: 67590 -1 8
Width: 0
VWidth: 0
Flags: H
LayerCount: 2
Fore
SplineSet
216 69 m 0
 259 69 329 85 329 180 c 0
 329 225 305.900390625 269.900390625 247 306 c 2
 203 333 l 1
 122 279 109 212 109 184 c 0
 109 99 173 69 216 69 c 0
373 505 m 0
 373 444 308 398 266 370 c 1
 324 332 l 2
 373 299.900390625 397 254 397 199 c 0
 397 127 338 36 214 36 c 0
 114 36 45 87 45 184 c 0
 45 221 61 264 100 298 c 0
 124 319 145 337 169 355 c 1
 152 365 l 2
 94 401 68 440 68 493 c 0
 68 566 131 624 228 624 c 0
 321 624 373 573 373 505 c 0
223 591 m 0
 166 591 135 555 135 511 c 0
 135 482 142 449 202 410 c 2
 231 392 l 1
 257 411 309 455 309 506 c 0
 309 550 285 591 223 591 c 0
EndSplineSet
Comment: "Re(102 97), Sc(102 97)"
EndChar

StartChar: eight.Regular.5
Encoding: 67591 -1 9
Width: 0
VWidth: 0
Flags: H
LayerCount: 2
Fore
SplineSet
223 595 m 0
 166 595 135 555 135 511 c 0
 135 482 141 447 201 408 c 2
 230 390 l 1
 256 409 311 455 311 506 c 0
 311 550 285 595 223 595 c 0
373 505 m 0
 373 444 307 396 265 368 c 1
 323 330 l 2
 372 297.900390625 397 254 397 199 c 0
 397 127 338 36 214 36 c 0
 114 36 45 87 45 184 c 0
 45 221 61 264 100 298 c 0
 124 319 145 337 169 355 c 1
 152 365 l 2
 94 401 68 440 68 493 c 0
 68 566 131 624 228 624 c 0
 321 624 373 573 373 505 c 0
216 65 m 0
 259 65 331 85 331 180 c 0
 331 225 305.900390625 269.900390625 247 306 c 2
 203 333 l 1
 122 279 107 212 107 184 c 0
 107 99 173 65 216 65 c 0
EndSplineSet
Comment: "Re(90 79 78 76), Sc(95 94 90)"
EndChar

StartChar: eight.Regular.6
Encoding: 67592 -1 10
Width: 0
VWidth: 0
Flags: H
LayerCount: 2
Fore
SplineSet
223 600 m 0
 166 600 135 555 135 511 c 0
 135 482 141 447 201 408 c 2
 230 390 l 1
 256 409 311 455 311 506 c 0
 311 550 285 600 223 600 c 0
373 505 m 0
 373 444 307 396 265 368 c 1
 323 330 l 2
 372 297.900390625 397 254 397 199 c 0
 397 127 338 36 214 36 c 0
 114 36 45 87 45 184 c 0
 45 221 61 264 100 298 c 0
 124 319 145 337 169 355 c 1
 152 365 l 2
 94 401 68 440 68 493 c 0
 68 566 131 624 228 624 c 0
 321 624 373 573 373 505 c 0
216 64 m 0
 259 64 331 85 331 180 c 0
 331 225 305.900390625 269.900390625 247 306 c 2
 203 333 l 1
 122 279 107 212 107 184 c 0
 107 99 173 64 216 64 c 0
EndSplineSet
Comment: "C(89 88 79 78 76)"
EndChar

StartChar: eight.Regular.7
Encoding: 67593 -1 11
Width: 0
VWidth: 0
Flags: H
LayerCount: 2
Fore
SplineSet
216 65 m 0
 259 65 331 85 331 180 c 0
 331 225 306 270 247 306 c 2
 203 333 l 1
 122 279 107 212 107 184 c 0
 107 99 173 65 216 65 c 0
373 505 m 0
 373 444 307 396 265 368 c 1
 323 330 l 2
 372 298 397 254 397 199 c 0
 397 127 338 36 214 36 c 0
 114 36 45 87 45 184 c 0
 45 221 61 264 100 298 c 0
 124 319 145 337 169 355 c 1
 152 365 l 2
 94 401 68 440 68 493 c 0
 68 566 131 624 228 624 c 0
 321 624 373 573 373 505 c 0
223 595 m 0
 166 595 135 555 135 511 c 0
 135 482 141 447 201 408 c 2
 230 390 l 1
 256 409 311 455 311 506 c 0
 311 550 285 595 223 595 c 0
EndSplineSet
Comment: "Re(75 62)"
EndChar

StartChar: eight.Regular.8
Encoding: 67594 -1 12
Width: 0
VWidth: 0
Flags: H
LayerCount: 2
Fore
SplineSet
216 64 m 0
 259 64 331 85 331 180 c 0
 331 225 306 270 247 306 c 2
 203 333 l 1
 122 279 107 212 107 184 c 0
 107 99 173 64 216 64 c 0
373 505 m 0
 373 444 307 396 265 368 c 1
 323 330 l 2
 372 298 397 254 397 199 c 0
 397 127 338 36 214 36 c 0
 114 36 45 87 45 184 c 0
 45 221 61 264 100 298 c 0
 124 319 145 337 169 355 c 1
 152 365 l 2
 94 401 68 440 68 493 c 0
 68 566 131 624 228 624 c 0
 321 624 373 573 373 505 c 0
223 600 m 0
 166 600 135 555 135 511 c 0
 135 482 141 447 201 408 c 2
 230 390 l 1
 256 409 311 455 311 506 c 0
 311 550 285 600 223 600 c 0
EndSplineSet
Comment: "C_Re(62)"
EndChar

StartChar: eight.Regular.9
Encoding: 67595 -1 13
Width: 0
VWidth: 0
Flags: H
LayerCount: 2
Fore
SplineSet
223 595 m 0
 166 595 135 555 135 511 c 0
 135 482 141 447 201 408 c 2
 230 390 l 1
 256 409 311 455 311 506 c 0
 311 550 285 595 223 595 c 0
373 505 m 0
 373 444 307 396 265 368 c 1
 323 330 l 2
 372 298 397 254 397 199 c 0
 397 127 338 36 214 36 c 0
 114 36 45 87 45 184 c 0
 45 221 61 264 100 298 c 0
 124 319 145 337 169 355 c 1
 152 365 l 2
 94 401 68 440 68 493 c 0
 68 566 131 624 228 624 c 0
 321 624 373 573 373 505 c 0
216 65 m 0
 259 65 331 85 331 180 c 0
 331 225 306 270 247 306 c 2
 203 333 l 1
 122 279 107 212 107 184 c 0
 107 99 173 65 216 65 c 0
EndSplineSet
Comment: "Re(61 41)"
EndChar

StartChar: eight.Regular.10
Encoding: 67585 -1 14
Width: 0
VWidth: 0
Flags: H
LayerCount: 2
Fore
SplineSet
223 600 m 0
 166 600 135 555 135 511 c 0
 135 482 141 447 201 408 c 2
 230 390 l 1
 256 409 311 455 311 506 c 0
 311 550 285 600 223 600 c 0
373 505 m 0
 373 444 307 396 265 368 c 1
 323 330 l 2
 372 298 397 254 397 199 c 0
 397 127 338 36 214 36 c 0
 114 36 45 87 45 184 c 0
 45 221 61 264 100 298 c 0
 124 319 145 337 169 355 c 1
 152 365 l 2
 94 401 68 440 68 493 c 0
 68 566 131 624 228 624 c 0
 321 624 373 573 373 505 c 0
216 64 m 0
 259 64 331 85 331 180 c 0
 331 225 306 270 247 306 c 2
 203 333 l 1
 122 279 107 212 107 184 c 0
 107 99 173 64 216 64 c 0
EndSplineSet
Comment: "C_Re(61 41)"
EndChar

StartChar: eight.Regular.11
Encoding: 67586 -1 15
Width: 0
VWidth: 0
Flags: H
LayerCount: 2
Fore
SplineSet
223 628 m 0
 166 628 135 583 135 539 c 0
 135 510 141 475 201 436 c 2
 230 418 l 1
 256 437 311 483 311 534 c 0
 311 578 285 628 223 628 c 0
373 533 m 0
 373 472 307 424 265 396 c 1
 323 358 l 2
 372 326 397 282 397 227 c 0
 397 155 338 64 214 64 c 0
 114 64 45 115 45 212 c 0
 45 249 61 292 100 326 c 0
 124 347 145 365 169 383 c 1
 152 393 l 2
 94 429 68 468 68 521 c 0
 68 594 131 652 228 652 c 0
 321 652 373 601 373 533 c 0
216 92 m 0
 259 92 331 113 331 208 c 0
 331 253 306 298 247 334 c 2
 203 361 l 1
 122 307 107 240 107 212 c 0
 107 127 173 92 216 92 c 0
EndSplineSet
Comment: "C_Re(35), Re(35)"
EndChar

StartChar: eight.Regular.12
Encoding: 67587 -1 16
Width: 0
VWidth: 0
Flags: H
LayerCount: 2
Fore
SplineSet
221.6796875 553.90625 m 0
 164.55078125 553.90625 127.9296875 508.984375 127.9296875 465.0390625 c 0
 127.9296875 436.23046875 139.741210938 401.436523438 200.1953125 362.5 c 2
 229.00390625 343.9453125 l 1
 254.8828125 362.98828125 316.40625 408.88671875 316.40625 460.15625 c 0
 316.40625 504.1015625 283.69140625 553.90625 221.6796875 553.90625 c 0
374.51171875 459.1796875 m 0
 374.51171875 398.6328125 305.6640625 350.29296875 264.16015625 322.4609375 c 1
 322.265625 284.375 l 2
 370.971679688 252.450195312 395.5078125 207.71484375 395.5078125 153.515625 c 0
 395.5078125 80.76171875 336.9140625 -12.01171875 213.37890625 -12.01171875 c 0
 113.28125 -12.01171875 44.43359375 40.72265625 44.43359375 137.890625 c 0
 44.43359375 175.48828125 60.05859375 218.45703125 98.6328125 252.63671875 c 0
 123.046875 273.6328125 144.04296875 291.2109375 167.96875 308.7890625 c 1
 151.3671875 319.04296875 l 2
 93.15234375 354.999023438 64.453125 393.75 64.453125 447.4609375 c 0
 64.453125 520.21484375 130.37109375 578.3203125 227.05078125 578.3203125 c 0
 319.82421875 578.3203125 374.51171875 527.05078125 374.51171875 459.1796875 c 0
215.33203125 15.8203125 m 0
 258.30078125 15.8203125 333.0078125 39.2578125 333.0078125 133.984375 c 0
 333.0078125 178.90625 305.41015625 223.90234375 245.60546875 260.44921875 c 2
 201.66015625 287.3046875 l 1
 121.09375 233.10546875 102.5390625 166.2109375 102.5390625 137.890625 c 0
 102.5390625 53.41796875 171.875 15.8203125 215.33203125 15.8203125 c 0
EndSplineSet
Comment: "C_Re(4), Re(4)"
EndChar

StartChar: eight.Italic.1
Encoding: 67600 -1 17
Width: 0
VWidth: 0
Flags: H
LayerCount: 2
Fore
SplineSet
341 621 m 0
 283 621 246 583 237 537 c 0
 231 506 231 473 284 432 c 2
 310 413 l 1
 340 433 400 478 410 532 c 0
 419 578 403 621 341 621 c 0
477 531 m 0
 465 467 382 415 332 392 c 1
 391 349 l 2
 436 317 450 266 439 208 c 0
 424 132 344 36 218 36 c 0
 116 36 58 90 78 192 c 0
 86 231 111 276 157 312 c 0
 185 334 214 351 245 367 c 1
 223 383 l 2
 172 421 154 462 165 518 c 0
 180 595 255 656 353 656 c 0
 447 656 491 603 477 531 c 0
227 71 m 0
 270 71 346 88 365 188 c 0
 374 236 359 283 307 321 c 2
 267 349 l 1
 173 292 148 222 142 192 c 0
 125 102 184 71 227 71 c 0
EndSplineSet
Comment: "RI(170 153 152 151 148 146), aSI(154 153 151 150 148 147)"
EndChar

StartChar: eight.Italic.2
Encoding: 67601 -1 18
Width: 0
VWidth: 0
Flags: H
LayerCount: 2
Fore
SplineSet
321.5 621 m 0
 261.5 621 229.5 583 229.5 537 c 0
 229.5 506 236.5 473 299.5 432 c 2
 330.5 413 l 1
 357.5 433 410.5 478 410.5 532 c 0
 410.5 578 386.5 621 321.5 621 c 0
480.5 531 m 0
 480.5 467 404.5 415 357.5 392 c 1
 428.5 349 l 2
 481.599609375 316.799804688 506.5 266 506.5 208 c 0
 506.5 132 442.5 36 311.5 36 c 0
 205.5 36 133.5 90 133.5 192 c 0
 133.5 231 150.5 276 191.5 312 c 0
 216.5 334 243 351.5 272 367 c 1
 246.5 383 l 2
 185.599609375 421.200195312 158.5 462 158.5 518 c 0
 158.5 595 224.5 656 326.5 656 c 0
 424.5 656 480.5 603 480.5 531 c 0
313.5 71 m 0
 358.5 71 433.5 88 433.5 188 c 0
 433.5 236 408.5 283 346.5 321 c 2
 299.5 349 l 1
 213.5 292 200.5 222 200.5 192 c 0
 200.5 102 268.5 71 313.5 71 c 0
EndSplineSet
Comment: "RI(166)"
EndChar

StartChar: eight.Italic.3
Encoding: 67602 -1 19
Width: 0
VWidth: 0
Flags: H
LayerCount: 2
Fore
SplineSet
341 621 m 0
 283 621 246 583 237 537 c 0
 231 506 231 473 284 432 c 2
 310 413 l 1
 340 433 400 478 410 532 c 0
 419 578 403 621 341 621 c 0
477 531 m 0
 464.799804688 467 382 415 332 392 c 1
 391 349 l 2
 436 317 450 266 439 208 c 0
 424 132 344 36 218 36 c 0
 116 36 58 90 78 192 c 0
 86 231 111 276 157 312 c 0
 185 334 214 351 245 367 c 1
 223 383 l 2
 172 421 154 462 165 518 c 0
 180.099609375 595 255 656 353 656 c 0
 447 656 490.799804688 603 477 531 c 0
227 71 m 0
 270 71 346 88 365 188 c 0
 374 236 359 283 307 321 c 2
 267 349 l 1
 173 292 148 222 142 192 c 0
 125 102 184 71 227 71 c 0
EndSplineSet
Comment: "RI(144 142), aSI(144 143 142)"
EndChar

StartChar: eight.Italic.4
Encoding: 67603 -1 20
Width: 0
VWidth: 0
Flags: H
LayerCount: 2
Fore
SplineSet
298 390 m 1
 399 455 405 491 405 518 c 0
 405 556 376 600 323 600 c 0
 261 600 219 546 219 496 c 0
 219 470 230 441 273 409 c 2
 298 390 l 1
466 521 m 0
 466 458 413 420 327 369 c 1
 377 334 l 2
 411 308 428 270 428 230 c 0
 428 142 354 34 221 34 c 0
 134 34 68 74 68 149 c 0
 68 255 152 308 226 353 c 1
 212 364 l 2
 170 396 149 427 149 468 c 0
 149 551 223 624 333 624 c 0
 415 624 466 578 466 521 c 0
257 333 m 1
 190 293 130 227 130 157 c 0
 130 91 190 62 229 62 c 0
 311 62 358 129 358 202 c 0
 358 239 342 274 298 304 c 2
 257 333 l 1
EndSplineSet
Comment: "ISc(108 107 105 103 95 94 90), It(108 105 103 96 90 89 79 78 76 61 41), RI(130 127 125 121 118 116 115 114 111), aSI(140 139 132 126 122 120 117 115)"
EndChar

StartChar: eight.Italic.5
Encoding: 67604 -1 21
Width: 0
VWidth: 0
Flags: H
LayerCount: 2
Fore
SplineSet
257 333 m 1
 190 293 130 227 130 157 c 0
 130 91 190 62 229 62 c 0
 311 62 358 129 358 202 c 0
 358 239 342 274 298 304 c 2
 257 333 l 1
466 521 m 0
 466 458 413 420 327 369 c 1
 377 334 l 2
 411 308 428 270 428 230 c 0
 428 142 354 34 221 34 c 0
 134 34 68 74 68 149 c 0
 68 255 152 308 226 353 c 1
 212 364 l 2
 170 396 149 427 149 468 c 0
 149 551 223 624 333 624 c 0
 415 624 466 578 466 521 c 0
298 390 m 1
 399 455 405 491 405 518 c 0
 405 556 376 600 323 600 c 0
 261 600 219 546 219 496 c 0
 219 470 230 441 273 409 c 2
 298 390 l 1
EndSplineSet
Comment: "ISc(102 97), It(102 97 88 62)"
EndChar

StartChar: eight.Italic.6
Encoding: 67605 -1 22
Width: 0
VWidth: 0
Flags: H
LayerCount: 2
Fore
SplineSet
298 418 m 1
 399 483 405 519 405 546 c 0
 405 584 376 628 323 628 c 0
 261 628 219 574 219 524 c 0
 219 498 230 469 273 437 c 2
 298 418 l 1
466 549 m 0
 466 486 413 448 327 397 c 1
 377 362 l 2
 411 336 428 298 428 258 c 0
 428 170 354 62 221 62 c 0
 134 62 68 102 68 177 c 0
 68 283 152 336 226 381 c 1
 212 392 l 2
 170 424 149 455 149 496 c 0
 149 579 223 652 333 652 c 0
 415 652 466 606 466 549 c 0
257 361 m 1
 190 321 130 255 130 185 c 0
 130 119 190 90 229 90 c 0
 311 90 358 157 358 230 c 0
 358 267 342 302 298 332 c 2
 257 361 l 1
EndSplineSet
Comment: "It(35)"
EndChar

StartChar: eight.Italic.7
Encoding: 67606 -1 23
Width: 0
VWidth: 0
Flags: H
LayerCount: 2
Fore
SplineSet
329.1015625 553.90625 m 0
 271.97265625 553.90625 227.05078125 508.984375 218.26171875 465.0390625 c 0
 217.350585938 460.15234375 216.818359375 455.112304688 216.818359375 449.919921875 c 0
 216.818359375 424.49609375 229.564453125 395.424804688 272.94921875 362.98828125 c 2
 297.8515625 344.43359375 l 1
 327.63671875 363.4765625 395.76171875 408.932617188 405.76171875 460.15625 c 0
 406.904296875 466.005859375 407.482421875 471.95703125 407.482421875 477.880859375 c 0
 407.482421875 516.499023438 382.866210938 553.90625 329.1015625 553.90625 c 0
463.8671875 459.1796875 m 0
 452.127929688 398.63671875 374.0234375 350.78125 326.66015625 322.94921875 c 1
 377.44140625 283.3984375 l 2
 410.833984375 257.390625 428.387695312 224.1875 428.387695312 183.920898438 c 0
 428.387695312 174.196289062 427.364257812 164.061523438 425.29296875 153.515625 c 0
 411.0078125 80.7861328125 334.47265625 -12.01171875 210.9375 -12.01171875 c 0
 123.466796875 -12.01171875 67.7314453125 28.248046875 67.7314453125 103.251953125 c 0
 67.7314453125 114.079101562 68.8935546875 125.631835938 71.2890625 137.890625 c 0
 78.634765625 175.484375 102.5390625 218.45703125 147.4609375 252.63671875 c 0
 175.78125 273.6328125 198.73046875 289.74609375 226.07421875 307.32421875 c 1
 212.40234375 318.06640625 l 2
 170.403320312 349.87109375 148.834960938 381.3359375 148.834960938 422.12890625 c 0
 148.834960938 430.184570312 149.67578125 438.603515625 151.3671875 447.4609375 c 0
 165.52734375 520.21484375 242.67578125 578.3203125 339.35546875 578.3203125 c 0
 421.5078125 578.3203125 466.119140625 538.120117188 466.119140625 481.787109375 c 0
 466.119140625 474.50390625 465.374023438 466.951171875 463.8671875 459.1796875 c 0
218.26171875 15.8203125 m 0
 261.23046875 15.8203125 340.595703125 39.30078125 358.88671875 133.984375 c 0
 360.309570312 141.349609375 361.04296875 148.725585938 361.04296875 156.072265625 c 0
 361.04296875 193.5546875 341.944335938 230.237304688 297.8515625 260.44921875 c 2
 257.32421875 286.81640625 l 1
 166.50390625 232.6171875 134.859375 166.192382812 129.39453125 137.890625 c 0
 127.560546875 128.39453125 126.712890625 119.4921875 126.712890625 111.16796875 c 0
 126.712890625 45.40234375 179.686523438 15.8203125 218.26171875 15.8203125 c 0
EndSplineSet
Comment: "It(4)"
EndChar

StartChar: eight.Slant.1
Encoding: 67616 -1 24
Width: 0
VWidth: 0
Flags: H
LayerCount: 2
Fore
SplineSet
356.219726562 621 m 2
 296.219726562 621 256.142578125 583 246.366210938 537 c 0
 239.77734375 506 239.762695312 473 294.047851562 432 c 2
 321.008789062 413 l 1
 352.260742188 433 414.825195312 478 426.303710938 532 c 0
 436.081054688 578 421.220703125 621 356.220703125 621 c 2
 356.219726562 621 l 2
496.08984375 531 m 0
 482.486328125 467 395.43359375 415 343.544921875 392 c 1
 405.404296875 349 l 2
 451.66015625 316.799804688 465.762695312 266 453.434570312 208 c 0
 437.280273438 132 352.874023438 36 221.874023438 36 c 0
 115.874023438 36 55.3525390625 90 77.0322265625 192 c 0
 85.322265625 231 111.88671875 276 160.5390625 312 c 0
 190.21484375 334 220.434570312 351.5 252.729492188 367 c 1
 230.630859375 383 l 2
 177.850585938 421.200195312 159.422851562 462 171.326171875 518 c 0
 187.692382812 595 266.658203125 656 368.658203125 656 c 0
 466.658203125 656 511.392578125 603 496.08984375 531 c 0
231.313476562 71 m 0
 276.313476562 71 354.926757812 88 376.181640625 188 c 0
 386.384765625 236 371.375 283 317.452148438 321 c 2
 276.403320312 349 l 1
 178.288085938 292 150.41015625 222 144.032226562 192 c 0
 124.90234375 102 186.313476562 71 231.313476562 71 c 0
EndSplineSet
Comment: "aRL(154 153 151 150 148 147 144)"
EndChar

StartChar: eight.Slant.2
Encoding: 67617 -1 25
Width: 0
VWidth: 0
Flags: H
LayerCount: 2
Fore
SplineSet
356.219726562 621 m 0
 296.219726562 621 256.142578125 583 246.365234375 537 c 0
 239.776367188 506 239.76171875 473 294.046875 432 c 2
 321.0078125 413 l 1
 352.259765625 433 414.82421875 478 426.302734375 532 c 0
 436.080078125 578 421.219726562 621 356.219726562 621 c 0
496.08984375 531 m 0
 482.486328125 467 395.43359375 415 343.544921875 392 c 1
 405.404296875 349 l 2
 451.66015625 316.799804688 465.762695312 266 453.434570312 208 c 0
 437.280273438 132 352.874023438 36 221.874023438 36 c 0
 115.874023438 36 55.3515625 90 77.033203125 192 c 0
 85.3232421875 231 111.887695312 276 160.540039062 312 c 0
 190.215820312 334 220.435546875 351.5 252.729492188 367 c 1
 230.631835938 383 l 2
 177.8515625 421.200195312 159.423828125 462 171.327148438 518 c 0
 187.692382812 595 266.659179688 656 368.659179688 656 c 0
 466.659179688 656 511.393554688 603 496.08984375 531 c 0
231.313476562 71 m 0
 276.313476562 71 354.927734375 88 376.182617188 188 c 0
 386.385742188 236 371.375976562 283 317.453125 321 c 2
 276.404296875 349 l 1
 178.2890625 292 150.41015625 222 144.033203125 192 c 0
 124.903320312 102 186.313476562 71 231.313476562 71 c 0
EndSplineSet
Comment: "aRL(143 142 140 139)"
EndChar

StartChar: eight.Slant.3
Encoding: 67618 -1 26
Width: 0
VWidth: 0
Flags: H
LayerCount: 2
Fore
SplineSet
358.432617188 622 m 0
 298.432617188 622 257.142578125 583 247.365234375 537 c 0
 240.776367188 506 240.548828125 472 294.833984375 431 c 2
 321.795898438 412 l 1
 353.046875 432 417.82421875 478 429.302734375 532 c 0
 439.080078125 578 423.432617188 622 358.432617188 622 c 0
497.08984375 531 m 0
 483.486328125 467 404.071289062 418 353.694335938 388 c 1
 406.192382812 348 l 2
 450.944335938 313.900390625 465.762695312 266 453.434570312 208 c 0
 437.280273438 132 354.662109375 35 223.662109375 35 c 0
 117.662109375 35 57.3515625 90 79.033203125 192 c 0
 87.3232421875 231 113.887695312 276 162.540039062 312 c 0
 192.215820312 334 219.254882812 353 248.29296875 372 c 1
 232.631835938 383 l 2
 179.708984375 421 160.423828125 462 172.327148438 518 c 0
 188.692382812 595 268.872070312 657 370.872070312 657 c 0
 468.872070312 657 512.393554688 603 497.08984375 531 c 0
233.1015625 70 m 0
 278.1015625 70 356.927734375 88 378.182617188 188 c 0
 388.385742188 236 373.375976562 283 319.453125 321 c 2
 278.404296875 349 l 1
 180.2890625 292 152.41015625 222 146.033203125 192 c 0
 126.903320312 102 188.1015625 70 233.1015625 70 c 0
EndSplineSet
Comment: "aRL(132 126 122 120)"
EndChar

StartChar: eight.Slant.4
Encoding: 67619 -1 27
Width: 0
VWidth: 0
Flags: H
LayerCount: 2
Fore
SplineSet
338.84375 591 m 0
 281.84375 591 243.19140625 555 233.838867188 511 c 0
 227.674804688 482 227.66015625 449 279.370117188 410 c 2
 304.544921875 392 l 1
 334.583007812 411 395.935546875 455 406.776367188 506 c 0
 416.12890625 550 400.84375 591 338.84375 591 c 0
470.563476562 505 m 0
 457.59765625 444 382.8203125 398 334.868164062 370 c 1
 384.791015625 332 l 2
 426.967773438 299.900390625 441.211914062 254 429.521484375 199 c 0
 414.216796875 127 335.874023438 36 211.874023438 36 c 0
 111.874023438 36 53.71484375 87 74.3330078125 184 c 0
 82.197265625 221 107.336914062 264 153.564453125 298 c 0
 182.028320312 319 206.853515625 337 234.6796875 355 c 1
 219.805664062 365 l 2
 169.458007812 401 151.747070312 440 163.012695312 493 c 0
 178.529296875 566 253.857421875 624 350.857421875 624 c 0
 443.857421875 624 485.017578125 573 470.563476562 505 c 0
220.888671875 69 m 0
 263.888671875 69 337.290039062 85 357.482421875 180 c 0
 367.047851562 225 353.491210938 269.900390625 302.264648438 306 c 2
 264.00390625 333 l 1
 171.525390625 279 144.284179688 212 138.333007812 184 c 0
 120.265625 99 177.888671875 69 220.888671875 69 c 0
EndSplineSet
Comment: "Sl(108 107 105 103 89 88), aRL(117 115)"
EndChar

StartChar: eight.Slant.5
Encoding: 67620 -1 28
Width: 0
VWidth: 0
Flags: H
LayerCount: 2
Fore
SplineSet
220.888671875 69 m 0
 263.888671875 69 337.290039062 85 357.482421875 180 c 0
 367.047851562 225 353.491210938 269.900390625 302.264648438 306 c 2
 264.00390625 333 l 1
 171.525390625 279 144.284179688 212 138.333007812 184 c 0
 120.265625 99 177.888671875 69 220.888671875 69 c 0
470.563476562 505 m 0
 457.59765625 444 382.8203125 398 334.868164062 370 c 1
 384.791015625 332 l 2
 426.967773438 299.900390625 441.211914062 254 429.521484375 199 c 0
 414.216796875 127 335.874023438 36 211.874023438 36 c 0
 111.874023438 36 53.71484375 87 74.3330078125 184 c 0
 82.197265625 221 107.336914062 264 153.564453125 298 c 0
 182.028320312 319 206.853515625 337 234.6796875 355 c 1
 219.805664062 365 l 2
 169.458007812 401 151.747070312 440 163.012695312 493 c 0
 178.529296875 566 253.857421875 624 350.857421875 624 c 0
 443.857421875 624 485.017578125 573 470.563476562 505 c 0
338.84375 591 m 0
 281.84375 591 243.19140625 555 233.838867188 511 c 0
 227.674804688 482 227.66015625 449 279.370117188 410 c 2
 304.544921875 392 l 1
 334.583007812 411 395.935546875 455 406.776367188 506 c 0
 416.12890625 550 400.84375 591 338.84375 591 c 0
EndSplineSet
Comment: "Sl(102 97)"
EndChar

StartChar: eight.Slant.6
Encoding: 67621 -1 29
Width: 0
VWidth: 0
Flags: H
LayerCount: 2
Fore
SplineSet
339.693359375 595 m 0
 282.693359375 595 243.19140625 555 233.838867188 511 c 0
 227.674804688 482 226.235351562 447 277.9453125 408 c 2
 303.119140625 390 l 1
 333.158203125 409 397.935546875 455 408.776367188 506 c 0
 418.12890625 550 401.693359375 595 339.693359375 595 c 0
470.563476562 505 m 0
 457.59765625 444 381.39453125 396 333.443359375 368 c 1
 383.366210938 330 l 2
 425.54296875 297.900390625 441.211914062 254 429.521484375 199 c 0
 414.216796875 127 335.874023438 36 211.874023438 36 c 0
 111.874023438 36 53.71484375 87 74.3330078125 184 c 0
 82.197265625 221 107.336914062 264 153.564453125 298 c 0
 182.028320312 319 206.853515625 337 234.6796875 355 c 1
 219.805664062 365 l 2
 169.458007812 401 151.747070312 440 163.012695312 493 c 0
 178.529296875 566 253.857421875 624 350.857421875 624 c 0
 443.857421875 624 485.017578125 573 470.563476562 505 c 0
220.0390625 65 m 0
 263.0390625 65 339.290039062 85 359.482421875 180 c 0
 369.047851562 225 353.491210938 269.900390625 302.264648438 306 c 2
 264.00390625 333 l 1
 171.525390625 279 142.284179688 212 136.333007812 184 c 0
 118.265625 99 177.0390625 65 220.0390625 65 c 0
EndSplineSet
Comment: "Sl(95 94 90 79 78 76)"
EndChar

StartChar: eight.Semibold.1
Encoding: 67632 -1 30
Width: 0
VWidth: 0
Flags: H
LayerCount: 2
Fore
SplineSet
247 621 m 0
 194 621 176 583 176 537 c 0
 176 506 194 466 235 439 c 2
 264 420 l 1
 291 440 317 472 317 526 c 0
 317 572 305 621 247 621 c 0
419 535 m 0
 419 471 343 426 300 396 c 1
 359 356 l 2
 409 322 444 265 444 207 c 0
 444 131 368 35 238 35 c 0
 132 35 46 90 46 192 c 0
 46 268 107 304 182 362 c 1
 164 372 l 1
 105 410 69 462 69 518 c 0
 69 595 129 656 252 656 c 0
 361 656 419 607 419 535 c 0
240 74 m 0
 284 74 338 92 338 187 c 0
 338 234 321 272 261 310 c 2
 216 338 l 1
 150 288 148 222 148 192 c 0
 148 104 196 74 240 74 c 0
EndSplineSet
Comment: "RZ(170 166 151 150 148 146 144 142)"
EndChar

StartChar: eight.Semibold.2
Encoding: 67633 -1 31
Width: 0
VWidth: 0
Flags: H
LayerCount: 2
Fore
SplineSet
242 591 m 0
 190 591 173 555 173 511 c 0
 173 482 189.400390625 443.200195312 230 418 c 2
 259 400 l 1
 285 419 311 450 311 501 c 0
 311 545 299 591 242 591 c 0
411 509 m 0
 411 448 336 406 294 378 c 1
 352 340 l 2
 401 307.900390625 435 254 435 199 c 0
 435 127 360 36 233 36 c 0
 129 36 45 87 45 184 c 0
 45 255.900390625 104.900390625 290.200195312 178 345 c 1
 161 355 l 2
 103 391 68 440 68 493 c 0
 68 566 126 624 247 624 c 0
 354 624 411 577 411 509 c 0
235 73 m 0
 278 73 331 90 331 180 c 0
 331 225 314.900390625 259.900390625 256 296 c 2
 212 323 l 1
 147 276 145 212 145 184 c 0
 145 101 192 73 235 73 c 0
EndSplineSet
Comment: "RZ(131)"
EndChar

StartChar: eight.SemiboldItalic.1
Encoding: 67648 -1 32
Width: 0
VWidth: 0
Flags: H
LayerCount: 2
Fore
SplineSet
348 621 m 0
 297 621 272 583 263 537 c 0
 261.900390625 531.400390625 261.299804688 525.599609375 261.299804688 519.599609375 c 0
 261.299804688 492.099609375 273.099609375 461.200195312 301 439 c 2
 325 420 l 1
 355 440 387 472 397 526 c 0
 399.400390625 538.299804688 401 550.900390625 401 562.700195312 c 0
 401 594.799804688 389 621 348 621 c 0
496 535 m 0
 484 471 402 426 355 396 c 1
 404 356 l 2
 438.099609375 327.700195312 459.799804688 283.5 459.799804688 236.099609375 c 0
 459.799804688 226.5 458.900390625 216.799804688 457 207 c 0
 442 131 350 35 225 35 c 0
 134.599609375 35 68.599609375 78.099609375 68.599609375 158.900390625 c 0
 68.599609375 169.299804688 69.7001953125 180.400390625 72 192 c 0
 87 268 152 304 235 362 c 1
 220 372 l 2
 178.700195312 404 154.400390625 446.099609375 154.400390625 492 c 0
 154.400390625 500.599609375 155.299804688 509.200195312 157 518 c 0
 172 595 242 656 360 656 c 0
 452.599609375 656 498.5 617.900390625 498.5 559.599609375 c 0
 498.5 551.799804688 497.700195312 543.5 496 535 c 0
235 74 m 0
 277 74 333 92 351 187 c 0
 353 197.299804688 354.099609375 207.200195312 354.099609375 216.700195312 c 0
 354.099609375 250.599609375 340 280.299804688 301 310 c 2
 263 338 l 1
 190 288 176 222 170 192 c 0
 167.200195312 177.799804688 166 165 166 153.700195312 c 0
 166 95 199.799804688 74 235 74 c 0
EndSplineSet
Comment: "RZI(170)"
EndChar

StartChar: eight.SemiboldItalic.2
Encoding: 67649 -1 33
Width: 0
VWidth: 0
Flags: H
LayerCount: 2
Fore
SplineSet
348 621 m 0
 297 621 272 583 263 537 c 0
 261.900390625 531.400390625 261.400390625 525.599609375 261.400390625 519.599609375 c 0
 261.400390625 492.099609375 273.099609375 461.200195312 301 439 c 2
 325 420 l 1
 355 440 387 472 397 526 c 0
 399.400390625 538.299804688 401 550.900390625 401 562.700195312 c 0
 401 594.799804688 389 621 348 621 c 0
496 535 m 0
 484 471 402 426 355 396 c 1
 404 356 l 2
 438.099609375 327.700195312 459.700195312 283.5 459.700195312 236.099609375 c 0
 459.700195312 226.5 458.900390625 216.799804688 457 207 c 0
 442 131 350 35 225 35 c 0
 134.599609375 35 68.599609375 78.099609375 68.599609375 158.900390625 c 0
 68.599609375 169.299804688 69.7001953125 180.400390625 72 192 c 0
 87 268 152 304 235 362 c 1
 220 372 l 2
 178.700195312 404 154.400390625 446.099609375 154.400390625 492 c 0
 154.400390625 500.599609375 155.299804688 509.200195312 157 518 c 0
 172 595 242 656 360 656 c 0
 452.599609375 656 498.5 617.900390625 498.5 559.599609375 c 0
 498.5 551.799804688 497.700195312 543.5 496 535 c 0
235 74 m 0
 277 74 333 92 351 187 c 0
 353 197.299804688 354.099609375 207.200195312 354.099609375 216.700195312 c 0
 354.099609375 250.599609375 340 280.299804688 301 310 c 2
 263 338 l 1
 190 288 176 222 170 192 c 0
 167.200195312 177.799804688 166 165 166 153.700195312 c 0
 166 95 199.799804688 74 235 74 c 0
EndSplineSet
Comment: "RZI(166 151 150 148 146), aSZI(154 153 151 150 148 147)"
EndChar

StartChar: eight.SemiboldItalic.3
Encoding: 67650 -1 34
Width: 0
VWidth: 0
Flags: H
LayerCount: 2
Fore
SplineSet
348 621 m 0
 297 621 272 583 263 537 c 0
 261.900390625 531.400390625 261.400390625 525.599609375 261.400390625 519.599609375 c 0
 261.400390625 492.099609375 273.099609375 461.200195312 301 439 c 2
 325 420 l 1
 355 440 387 472 397 526 c 0
 399.400390625 538.299804688 401 550.900390625 401 562.700195312 c 0
 401 594.799804688 389 621 348 621 c 0
496 535 m 0
 483.799804688 471 402 426 355 396 c 1
 404 356 l 2
 438.099609375 327.700195312 459.700195312 283.5 459.700195312 236.099609375 c 0
 459.700195312 226.5 458.900390625 216.799804688 457 207 c 0
 442 131 350 35 225 35 c 0
 134.599609375 35 68.599609375 78.099609375 68.599609375 158.900390625 c 0
 68.599609375 169.299804688 69.7001953125 180.400390625 72 192 c 0
 87 268 152 304 235 362 c 1
 220 372 l 2
 178.700195312 404 154.400390625 446.099609375 154.400390625 492 c 0
 154.400390625 500.599609375 155.299804688 509.200195312 157 518 c 0
 172.099609375 595 242 656 360 656 c 0
 452.599609375 656 498.5 617.900390625 498.5 559.599609375 c 0
 498.5 551.799804688 497.599609375 543.5 496 535 c 0
235 74 m 0
 277 74 332.900390625 92 351 187 c 0
 353 197.299804688 354.099609375 207.200195312 354.099609375 216.700195312 c 0
 354.099609375 250.599609375 340 280.299804688 301 310 c 2
 263 338 l 1
 190 288 176 222 170 192 c 0
 167.200195312 177.799804688 166 165 166 153.700195312 c 0
 166 95 199.799804688 74 235 74 c 0
EndSplineSet
Comment: "RZI(144 142), aSZI(144 143 142)"
EndChar

StartChar: eight.SemiboldItalic.4
Encoding: 67651 -1 35
Width: 0
VWidth: 0
Flags: H
LayerCount: 2
Fore
SplineSet
359 588 m 0
 316.5 588 277 533.5 277 493 c 0
 277 466 296 431 337 408 c 1
 384.700195312 439.799804688 412 481 412 525 c 0
 412 558 390 588 359 588 c 0
249 76 m 0
 312 76 363 140.900390625 363 213 c 0
 363 275 308 309 278 323 c 1
 233.900390625 294 187 228.099609375 187 157 c 0
 187 102 222 76 249 76 c 0
375 380 m 1
 461 333 476 270.200195312 476 219 c 0
 476 138.599609375 397.799804688 34 249 34 c 0
 152 34 80 76 80 154 c 0
 80 205.900390625 103 279 237 347 c 1
 209 370 161 413 161 469 c 0
 161 546 243.400390625 627 371 627 c 0
 464 627 513 595 513 525 c 0
 513 468.900390625 464 415 375 380 c 1
EndSplineSet
Comment: "aSZI(140 139 132)"
EndChar

StartChar: eight.SemiBoldSlant.1
Encoding: 67664 -1 36
Width: 0
VWidth: 0
Flags: H
LayerCount: 2
Fore
SplineSet
369.219726562 621 m 0
 316.219726562 621 290.142578125 583 280.365234375 537 c 0
 273.776367188 506 283.2734375 466 318.53515625 439 c 2
 343.49609375 420 l 1
 374.747070312 440 407.548828125 472 419.02734375 526 c 0
 428.8046875 572 427.219726562 621 369.219726562 621 c 0
522.940429688 535 m 1
 509.336914062 471 423.771484375 426 374.393554688 396 c 1
 424.891601562 356 l 2
 467.665039062 322 490.548828125 265 478.220703125 207 c 0
 462.06640625 131 365.661132812 35 235.661132812 35 c 0
 129.661132812 35 55.3515625 90 77.0322265625 192 c 0
 93.1865234375 268 161.838867188 304 249.166992188 362 c 1
 233.291992188 372 l 1
 182.369140625 410 157.422851562 462 169.326171875 518 c 0
 185.692382812 595 258.658203125 656 381.658203125 656 c 0
 490.658203125 656 538.243164062 607 522.939453125 535 c 1
 522.940429688 535 l 1
245.951171875 74 m 2
 289.951171875 74 347.77734375 92 367.970703125 187 c 0
 377.9609375 234 369.038085938 272 317.115234375 310 c 2
 278.06640625 338 l 1
 201.438476562 288 185.41015625 222 179.033203125 192 c 0
 160.328125 104 201.951171875 74 245.951171875 74 c 2
 245.951171875 74 l 2
EndSplineSet
Comment: "aZL(154 153 151 150 148 147 144)"
EndChar

StartChar: eight.SemiBoldSlant.2
Encoding: 67665 -1 37
Width: 0
VWidth: 0
Flags: H
LayerCount: 2
Fore
SplineSet
369.219726562 621 m 0
 316.219726562 621 290.142578125 583 280.365234375 537 c 0
 273.776367188 506 283.2734375 466 318.53515625 439 c 2
 343.49609375 420 l 1
 374.747070312 440 407.548828125 472 419.02734375 526 c 0
 428.8046875 572 427.219726562 621 369.219726562 621 c 0
522.940429688 535 m 0
 509.336914062 471 423.771484375 426 374.39453125 396 c 1
 424.892578125 356 l 2
 467.666015625 322 490.549804688 265 478.221679688 207 c 0
 462.067382812 131 365.662109375 35 235.662109375 35 c 0
 129.662109375 35 55.3515625 90 77.033203125 192 c 0
 93.1875 268 161.83984375 304 249.16796875 362 c 1
 233.29296875 372 l 1
 182.370117188 410 157.423828125 462 169.327148438 518 c 0
 185.693359375 595 258.659179688 656 381.659179688 656 c 0
 490.659179688 656 538.244140625 607 522.940429688 535 c 0
245.951171875 74 m 0
 289.951171875 74 347.77734375 92 367.970703125 187 c 0
 377.9609375 234 369.038085938 272 317.115234375 310 c 2
 278.06640625 338 l 1
 201.438476562 288 185.41015625 222 179.033203125 192 c 0
 160.328125 104 201.951171875 74 245.951171875 74 c 0
EndSplineSet
Comment: "aZL(143 142)"
EndChar

StartChar: eight.SemiBoldSlant.3
Encoding: 67666 -1 38
Width: 0
VWidth: 0
Flags: H
LayerCount: 2
Fore
SplineSet
357.84375 591 m 0
 305.84375 591 281.19140625 555 271.838867188 511 c 0
 265.674804688 482 273.827148438 443.200195312 309.071289062 418 c 2
 334.245117188 400 l 1
 364.283203125 419 396.873046875 450 407.712890625 501 c 0
 417.065429688 545 414.84375 591 357.84375 591 c 0
509.4140625 509 m 0
 496.447265625 448 412.521484375 406 364.568359375 378 c 1
 414.491210938 340 l 2
 456.668945312 307.900390625 479.211914062 254 467.521484375 199 c 0
 452.216796875 127 357.874023438 36 230.874023438 36 c 0
 126.874023438 36 53.71484375 87 74.3330078125 184 c 0
 89.615234375 255.900390625 156.806640625 290.200195312 241.5546875 345 c 1
 226.6796875 355 l 2
 176.33203125 391 151.747070312 440 163.012695312 493 c 0
 178.529296875 566 248.857421875 624 369.857421875 624 c 0
 476.857421875 624 523.8671875 577 509.4140625 509 c 0
240.739257812 73 m 0
 283.739257812 73 340.352539062 90 359.482421875 180 c 0
 369.047851562 225 360.366210938 259.900390625 309.138671875 296 c 2
 270.877929688 323 l 1
 195.887695312 276 180.284179688 212 174.333007812 184 c 0
 156.690429688 101 197.739257812 73 240.739257812 73 c 0
EndSplineSet
Comment: "aZL(140 139 132)"
EndChar

StartChar: eight.Bold.1
Encoding: 67680 -1 39
Width: 0
VWidth: 0
Flags: H
LayerCount: 2
Fore
SplineSet
260 621 m 0
 196 621 188 582 188 535 c 0
 188 504 196.400390625 468.799804688 246 443 c 2
 296 417 l 1
 328 437 335 482 335 525 c 0
 335 566 330 621 260 621 c 0
451 523 m 0
 451 459 398 410 339 393 c 1
 395 360 l 2
 453.099609375 325.700195312 480 268 480 209 c 0
 480 132 406 36 250 36 c 0
 123 36 34 89 34 193 c 0
 34 270 87 318 182 365 c 1
 161 376 l 2
 87.7998046875 414.299804688 65 449 65 506 c 0
 65 584 125 656 267 656 c 0
 398 656 451 596 451 523 c 0
252 76 m 0
 295 76 356 93 356 189 c 0
 356 237 349 275 277 313 c 2
 223 342 l 1
 154 294 157 223 157 193 c 0
 157 104 199 76 252 76 c 0
EndSplineSet
Comment: "RB(170 166 153 152 151 150 148 146), aBS(154 153 151 150 148 147)"
EndChar

StartChar: eight.Bold.2
Encoding: 67682 -1 40
Width: 0
VWidth: 0
Flags: H
LayerCount: 2
Fore
SplineSet
247 621 m 0
 194 621 176 583 176 537 c 0
 176 506 194 466 235 439 c 2
 264 420 l 1
 291 440 317 472 317 526 c 0
 317 572 305 621 247 621 c 0
419 535 m 0
 419 471 343 426 300 396 c 1
 359 356 l 2
 409 322 444 265 444 207 c 0
 444 131 368 35 238 35 c 0
 132 35 46 90 46 192 c 0
 46 268 107 304 182 362 c 1
 164 372 l 1
 105 410 69 462 69 518 c 0
 69 595 129 656 252 656 c 0
 361 656 419 607 419 535 c 0
240 74 m 0
 284 74 338 92 338 187 c 0
 338 234 321 272 261 310 c 2
 216 338 l 1
 150 288 148 222 148 192 c 0
 148 104 196 74 240 74 c 0
EndSplineSet
Comment: "aZS(154 153 151 150 148 147 144 143 142)"
EndChar

StartChar: eight.Bold.3
Encoding: 67683 -1 41
Width: 0
VWidth: 0
Flags: H
LayerCount: 2
Fore
SplineSet
260 621 m 0
 196 621 188 582 188 535 c 0
 188 504 196.400390625 468.799804688 246 443 c 2
 296 417 l 1
 328 437 335 482 335 525 c 0
 335 566 330 621 260 621 c 0
451 523 m 0
 451 459 398 410 339 393 c 1
 395 360 l 2
 453.099609375 325.700195312 480 268 480 209 c 0
 480 132 406 36 250 36 c 0
 123 36 34 89 34 193 c 0
 34 270 87 318 182 365 c 1
 161 376 l 2
 87.7998046875 414.299804688 65 449 65 506 c 0
 65 584 125 656 267 656 c 0
 398 656 451 596 451 523 c 0
252 76 m 0
 295 76 356 93 356 189 c 0
 356 237 348.700195312 274.5 277 313 c 2
 223 342 l 1
 154 294 157 223 157 193 c 0
 157 104 199 76 252 76 c 0
EndSplineSet
Comment: "RB(144 143 142 139), aBS(144 143 142 140 139)"
EndChar

StartChar: eight.Bold.4
Encoding: 67684 -1 42
Width: 0
VWidth: 0
Flags: H
LayerCount: 2
Fore
SplineSet
242 591 m 0
 190 591 173 555 173 511 c 0
 173 482 189.400390625 443.200195312 230 418 c 2
 259 400 l 1
 285 419 311 450 311 501 c 0
 311 545 299 591 242 591 c 0
411 509 m 0
 411 448 336 406 294 378 c 1
 352 340 l 2
 401 307.900390625 435 254 435 199 c 0
 435 127 360 36 233 36 c 0
 129 36 45 87 45 184 c 0
 45 255.900390625 104.900390625 290.200195312 178 345 c 1
 161 355 l 2
 103 391 68 440 68 493 c 0
 68 566 126 624 247 624 c 0
 354 624 411 577 411 509 c 0
235 73 m 0
 278 73 331 90 331 180 c 0
 331 225 314.900390625 259.900390625 256 296 c 2
 212 323 l 1
 147 276 145 212 145 184 c 0
 145 101 192 73 235 73 c 0
EndSplineSet
Comment: "BSc(108 107 105 103 95 94 90), Bd(108 105 103 99 90 89 79 78 76), RB(127 125 121 118 116 115 114 111), aBS(126 122 120 117 115), aZS(140 139 132)"
EndChar

StartChar: eight.Bold.5
Encoding: 67685 -1 43
Width: 0
VWidth: 0
Flags: H
LayerCount: 2
Fore
SplineSet
274 621 m 0
 210 621 200 582 200 535 c 0
 200 504 211 470 260 443 c 2
 295 424 l 1
 327 444 351 482 351 525 c 0
 351 566 344 621 274 621 c 0
467 533 m 0
 467 468 397 417 338 400 c 1
 409 360 l 2
 474.900390625 322.900390625 504 268 504 209 c 0
 504 132 420 36 264 36 c 0
 137 36 38 89 38 193 c 0
 38 270 101 318 196 365 c 1
 175 376 l 2
 91.099609375 420 77 459 77 516 c 0
 77 594 133 656 281 656 c 0
 412 656 467 606 467 533 c 0
266 76 m 0
 309 76 380 93 380 189 c 0
 380 237 362.700195312 274.5 291 313 c 2
 237 342 l 1
 168 294 161 223 161 193 c 0
 161 104 213 76 266 76 c 0
EndSplineSet
Comment: "RB(130), aBS(132)"
EndChar

StartChar: eight.Bold.6
Encoding: 67686 -1 44
Width: 0
VWidth: 0
Flags: H
LayerCount: 2
Fore
SplineSet
235 73 m 0
 278 73 331 90 331 180 c 0
 331 225 314.900390625 259.900390625 256 296 c 2
 212 323 l 1
 147 276 145 212 145 184 c 0
 145 101 192 73 235 73 c 0
411 509 m 0
 411 448 336 406 294 378 c 1
 352 340 l 2
 401 307.900390625 435 254 435 199 c 0
 435 127 360 36 233 36 c 0
 129 36 45 87 45 184 c 0
 45 255.900390625 104.900390625 290.200195312 178 345 c 1
 161 355 l 2
 103 391 68 440 68 493 c 0
 68 566 126 624 247 624 c 0
 354 624 411 577 411 509 c 0
242 591 m 0
 190 591 173 555 173 511 c 0
 173 482 189.400390625 443.200195312 230 418 c 2
 259 400 l 1
 285 419 311 450 311 501 c 0
 311 545 299 591 242 591 c 0
EndSplineSet
Comment: "BSc(102 97), Bd(102 97 88)"
EndChar

StartChar: eight.Bold.7
Encoding: 67687 -1 45
Width: 0
VWidth: 0
Flags: H
LayerCount: 2
Fore
SplineSet
235 73 m 0
 278 73 331 89.994140625 331 180 c 0
 331 225 315 260 256 296 c 2
 212 323 l 1
 147 276 145 212 145 184 c 0
 145 100.994140625 192 73 235 73 c 0
411 509 m 0
 411 448 336 406 294 378 c 1
 352 340 l 2
 401 308 435 254 435 199 c 0
 435 127 360 36 233 36 c 0
 129 36 45 87 45 184 c 0
 45 255.947265625 104.90234375 290.176757812 178 345 c 1
 161 355 l 2
 103 391 68 440 68 493 c 0
 68 566 125.983398438 624 247 624 c 0
 354.004882812 624 411 577 411 509 c 0
242 591 m 0
 190 591 173 555 173 511 c 0
 173 482 189.400390625 443.200195312 230 418 c 2
 259 400 l 1
 285 419 311 450 311 501 c 0
 311 545 299.008789062 591 242 591 c 0
EndSplineSet
Comment: "Bd(75 62)"
EndChar

StartChar: eight.Bold.8
Encoding: 67688 -1 46
Width: 0
VWidth: 0
Flags: H
LayerCount: 2
Fore
SplineSet
242 591 m 0
 190 591 173 555 173 511 c 0
 173 482 189 443 230 418 c 2
 259 400 l 1
 285 419 311 450 311 501 c 0
 311 545 299 591 242 591 c 0
411 509 m 0
 411 448 336 406 294 378 c 1
 352 340 l 2
 401 308 435 254 435 199 c 0
 435 127 360 36 233 36 c 0
 129 36 45 87 45 184 c 0
 45 256 105 290 178 345 c 1
 161 355 l 2
 103 391 68 440 68 493 c 0
 68 566 126 624 247 624 c 0
 354 624 411 577 411 509 c 0
235 73 m 0
 278 73 331 90 331 180 c 0
 331 225 315 260 256 296 c 2
 212 323 l 1
 147 276 145 212 145 184 c 0
 145 101 192 73 235 73 c 0
EndSplineSet
Comment: "Bd(61 41)"
EndChar

StartChar: eight.Bold.9
Encoding: 67689 -1 47
Width: 0
VWidth: 0
Flags: H
LayerCount: 2
Fore
SplineSet
235 614 m 0
 199 614 168 582 168 528 c 0
 168 497 196 464 250 436 c 1
 273 455 298 490 298 531 c 0
 298 570 273 614 235 614 c 0
227 104 m 0
 274 104 315 125 315 201 c 0
 315 286 246 329 208 345 c 1
 146 299 145 246 145 220 c 0
 145 137 177 104 227 104 c 0
405 539 m 0
 405 488 363 443 293 402 c 1
 335 376 426 315 426 231 c 0
 426 156 362 62 226 62 c 0
 115 62 39 107 39 210 c 0
 39 280 83 322 163 376 c 1
 125 402 57 456 57 525 c 0
 57 600 130 654 239 654 c 0
 344 654 405 610 405 539 c 0
EndSplineSet
Comment: "Bd(35)"
EndChar

StartChar: eight.Bold.10
Encoding: 67681 -1 48
Width: 0
VWidth: 0
Flags: H
LayerCount: 2
Fore
SplineSet
234.86328125 540.234375 m 0
 199.21875 540.234375 167.96875 508.0078125 167.96875 454.296875 c 0
 167.96875 422.87890625 195.7890625 390.623046875 249.51171875 362.5 c 1
 273.4375 381.0546875 297.8515625 416.2109375 297.8515625 456.73828125 c 0
 297.8515625 495.80078125 273.4375 540.234375 234.86328125 540.234375 c 0
226.5625 30.46875 m 0
 273.92578125 30.46875 315.4296875 51.46484375 315.4296875 127.1484375 c 0
 315.4296875 212.59765625 245.60546875 255.078125 207.51953125 270.703125 c 1
 145.99609375 224.8046875 144.53125 172.0703125 144.53125 146.6796875 c 0
 144.53125 63.18359375 176.7578125 30.46875 226.5625 30.46875 c 0
405.2734375 465.0390625 m 0
 405.2734375 414.2578125 362.79296875 369.3359375 293.45703125 328.3203125 c 1
 334.9609375 302.44140625 425.78125 240.91796875 425.78125 156.93359375 c 0
 425.78125 82.2265625 361.81640625 -12.01171875 226.07421875 -12.01171875 c 0
 115.234375 -12.01171875 38.57421875 32.91015625 38.57421875 135.9375 c 0
 38.57421875 205.76171875 83.49609375 248.2421875 162.59765625 301.953125 c 1
 125 327.83203125 57.12890625 382.651367188 57.12890625 451.3671875 c 0
 57.12890625 526.07421875 129.8828125 579.78515625 238.76953125 579.78515625 c 0
 344.23828125 579.78515625 405.2734375 535.83984375 405.2734375 465.0390625 c 0
EndSplineSet
Comment: "Bd(4)"
EndChar

StartChar: eight.BoldItalic.1
Encoding: 67696 -1 49
Width: 0
VWidth: 0
Flags: H
LayerCount: 2
Fore
SplineSet
378.299804688 613 m 0
 346.599609375 613 327.5 607.5 314.400390625 593 c 0
 298.299804688 575.099609375 292.099609375 544.599609375 292.099609375 512.200195312 c 0
 292.099609375 489 300.700195312 461.599609375 330.299804688 443 c 2
 371.799804688 417 l 1
 407.400390625 437.700195312 434.5 488.799804688 434.5 542.5 c 0
 434.5 583.599609375 413.700195312 613 378.299804688 613 c 0
492.5 441.200195312 m 0
 468 417.900390625 437.400390625 401.700195312 407.099609375 393 c 1
 452.700195312 360 l 2
 488.900390625 333.799804688 505 294 505 250.299804688 c 0
 505 177.900390625 473.099609375 129.099609375 413.5 86.599609375 c 0
 371.5 56.7001953125 315.599609375 36 247.5 36 c 0
 153 36 72.900390625 80 72.900390625 160.599609375 c 0
 72.900390625 210.5 103.700195312 254 140 287.5 c 0
 169.400390625 314.599609375 202 336 253.5 359 c 1
 236.099609375 372 l 2
 190.900390625 405.799804688 168.5 438 168.5 476.299804688 c 0
 168.5 531.599609375 192.900390625 568.900390625 229.5 601.200195312 c 0
 266.599609375 634 318.599609375 656 392.299804688 656 c 0
 491 656 540 596 540 542.5 c 0
 540 493.200195312 521.5 468.799804688 492.5 441.200195312 c 0
261.900390625 78 m 0
 288 78 318.700195312 83.099609375 345.5 114.099609375 c 0
 364.5 136 385.099609375 178.799804688 385.099609375 225.5 c 0
 385.099609375 255.200195312 371.599609375 277.299804688 331.799804688 305 c 2
 287.200195312 336 l 1
 199.599609375 280 188.099609375 220.799804688 188.099609375 156 c 0
 188.099609375 111 221.700195312 78 261.900390625 78 c 0
EndSplineSet
Comment: "RBI(170)"
EndChar

StartChar: eight.BoldItalic.2
Encoding: 67697 -1 50
Width: 0
VWidth: 0
Flags: H
LayerCount: 2
Fore
SplineSet
381.299804688 619 m 0
 349.599609375 619 330.099609375 610.099609375 317.400390625 593 c 0
 303.099609375 573.599609375 292.099609375 540.599609375 292.099609375 508.200195312 c 0
 292.099609375 485 300.700195312 461.599609375 330.299804688 443 c 2
 371.799804688 417 l 1
 412.200195312 440.5 436.900390625 507.200195312 436.900390625 567.299804688 c 0
 436.900390625 596.099609375 425.599609375 619 381.299804688 619 c 0
492.5 442.200195312 m 0
 468 418.900390625 437.400390625 401.700195312 407.099609375 393 c 1
 452.700195312 360 l 2
 488.900390625 333.799804688 505 294 505 250.299804688 c 0
 505 177.900390625 473.099609375 129.099609375 413.5 86.599609375 c 0
 371.5 56.7001953125 315.599609375 36 247.5 36 c 0
 142.5 36 73.900390625 77 73.900390625 157.599609375 c 0
 73.900390625 217.400390625 99.2001953125 257.599609375 135.5 291.099609375 c 0
 164.900390625 318.200195312 204.400390625 341.700195312 253.5 365 c 1
 236.099609375 376 l 2
 188.400390625 406.200195312 169.5 434 169.5 472.299804688 c 0
 169.5 527.599609375 192.900390625 568.900390625 229.5 601.200195312 c 0
 266.599609375 634 321.599609375 656 395.299804688 656 c 0
 501.099609375 656 543.299804688 611.700195312 543.299804688 553 c 0
 543.299804688 503.700195312 521.5 469.799804688 492.5 442.200195312 c 0
257.900390625 78 m 0
 284 78 318.700195312 83.099609375 345.5 114.099609375 c 0
 364.5 136 385.099609375 183.799804688 385.099609375 230.5 c 0
 385.099609375 260.200195312 373.200195312 286.599609375 331.799804688 313 c 2
 287.200195312 342 l 1
 199.599609375 286 188.099609375 212.799804688 188.099609375 148 c 0
 188.099609375 94.2001953125 217.700195312 78 257.900390625 78 c 0
EndSplineSet
Comment: "RBI(166 153 152), aSBI(154 153)"
EndChar

StartChar: eight.BoldItalic.3
Encoding: 67698 -1 51
Width: 0
VWidth: 0
Flags: H
LayerCount: 2
Fore
SplineSet
371.299804688 621 m 0
 311.099609375 621 295.299804688 582 285.299804688 535 c 0
 278.700195312 504 279.099609375 468.799804688 320.299804688 443 c 2
 361.799804688 417 l 1
 396.099609375 437 412.299804688 482 421.400390625 525 c 0
 430.099609375 566 437.099609375 621 371.299804688 621 c 0
530 523 m 0
 516.400390625 459 456.200195312 410 397.099609375 393 c 1
 442.700195312 360 l 2
 490.099609375 325.700195312 503 268 490.5 209 c 0
 474.099609375 132 384.099609375 36 237.5 36 c 0
 118.099609375 36 45.7998046875 89 67.900390625 193 c 0
 84.2998046875 270 144.200195312 318 243.5 365 c 1
 226.099609375 376 l 2
 165.400390625 414.299804688 151.400390625 449 163.5 506 c 0
 180.099609375 584 251.799804688 656 385.299804688 656 c 0
 508.400390625 656 545.5 596 530 523 c 0
247.900390625 76 m 0
 288.299804688 76 349.299804688 93 369.700195312 189 c 0
 379.900390625 237 381.400390625 275 321.799804688 313 c 2
 277.200195312 342 l 1
 202.099609375 294 189.900390625 223 183.5 193 c 0
 164.599609375 104 198.099609375 76 247.900390625 76 c 0
EndSplineSet
Comment: "RBI(151 150 148 146), aSBI(151 150 148 147)"
EndChar

StartChar: eight.BoldItalic.4
Encoding: 67699 -1 52
Width: 0
VWidth: 0
Flags: H
LayerCount: 2
Fore
SplineSet
341 621 m 0
 283 621 246 583 237 537 c 0
 231 506 231 473 284 432 c 2
 310 413 l 1
 340 433 400 478 410 532 c 0
 419 578 403 621 341 621 c 0
477 531 m 0
 464.799804688 467 382 415 332 392 c 1
 391 349 l 2
 436 317 450 266 439 208 c 0
 424 132 344 36 218 36 c 0
 116 36 58 90 78 192 c 0
 86 231 111 276 157 312 c 0
 185 334 214 351 245 367 c 1
 223 383 l 2
 172 421 154 462 165 518 c 0
 180.099609375 595 255 656 353 656 c 0
 447 656 490.799804688 603 477 531 c 0
227 71 m 0
 270 71 346 88 365 188 c 0
 374 236 359 283 307 321 c 2
 267 349 l 1
 173 292 148 222 142 192 c 0
 125 102 184 71 227 71 c 0
EndSplineSet
Comment: "RBI(144 142), aSBI(144 143 142)"
EndChar

StartChar: eight.BoldItalic.5
Encoding: 67700 -1 53
Width: 0
VWidth: 0
Flags: H
LayerCount: 2
Fore
SplineSet
359 588 m 0
 316.5 588 277 533.5 277 493 c 0
 277 466 296 431 337 408 c 1
 384.700195312 439.799804688 412 481 412 525 c 0
 412 558 390 588 359 588 c 0
249 76 m 0
 312 76 363 140.900390625 363 213 c 0
 363 275 308 309 278 323 c 1
 233.900390625 294 187 228.099609375 187 157 c 0
 187 102 222 76 249 76 c 0
375 380 m 1
 461 333 476 270.200195312 476 219 c 0
 476 138.599609375 397.799804688 34 249 34 c 0
 152 34 80 76 80 154 c 0
 80 205.900390625 103 279 237 347 c 1
 209 370 161 413 161 469 c 0
 161 546 243.400390625 627 371 627 c 0
 464 627 513 595 513 525 c 0
 513 468.900390625 464 415 375 380 c 1
EndSplineSet
Comment: "RBI(130 127 125 121 118 116), aSBI(126 122 120 117)"
EndChar

StartChar: eight.BoldItalic.6
Encoding: 67701 -1 54
Width: 0
VWidth: 0
Flags: H
LayerCount: 2
Fore
SplineSet
361 588 m 0
 325 588 287 547 279 508 c 0
 278 503 277 498 277 493 c 0
 277 466 292 438 333 415 c 1
 360 433 397 463 405 504 c 0
 407 511 407 518 407 525 c 0
 407 558 392 588 361 588 c 0
249 76 m 0
 281 76 340 98 358 185 c 0
 360 196 361 206 361 215 c 0
 361 277 316 298 286 312 c 1
 222 270 196 214 190 189 c 0
 188 177 187 167 187 157 c 0
 187 102 222 76 249 76 c 0
516 503 m 0
 505 452 433 401 383 369 c 1
 416 346 476 298 476 229 c 0
 476 220 475 212 473 203 c 0
 458 129 375 34 239 34 c 0
 142 34 80 76 80 154 c 0
 80 165 81 176 83 189 c 0
 99 264 188 324 233 354 c 1
 205 377 161 413 161 469 c 0
 161 476 162 484 163 491 c 0
 179 566 264 627 373 627 c 0
 466 627 518 585 518 525 c 0
 518 518 518 511 516 503 c 0
EndSplineSet
Comment: "BI(108 105 103 90 89 79 78 76 41), BiSc(108 107 105 103 95 94 90), RBI(115 114 111), aSBI(115)"
EndChar

StartChar: eight.BoldItalic.7
Encoding: 67702 -1 55
Width: 0
VWidth: 0
Flags: H
LayerCount: 2
Fore
SplineSet
516 503 m 0
 505 452 433 401 383 369 c 1
 416 346 476 298 476 229 c 0
 476 220 475 212 473 203 c 0
 458 129 375 34 239 34 c 0
 142 34 80 76 80 154 c 0
 80 165 81 176 83 189 c 0
 99 264 188 324 233 354 c 1
 205 377 161 413 161 469 c 0
 161 476 162 484 163 491 c 0
 179 566 264 627 373 627 c 0
 466 627 518 585 518 525 c 0
 518 518 518 511 516 503 c 0
249 76 m 0
 281 76 340 98 358 185 c 0
 360 196 361 206 361 215 c 0
 361 277 316 298 286 312 c 1
 222 270 196 214 190 189 c 0
 188 177 187 167 187 157 c 0
 187 102 222 76 249 76 c 0
361 588 m 0
 325 588 287 547 279 508 c 0
 278 503 277 498 277 493 c 0
 277 466 292 438 333 415 c 1
 360 433 397 463 405 504 c 0
 407 511 407 518 407 525 c 0
 407 558 392 588 361 588 c 0
EndSplineSet
Comment: "BI(102 97 88 62), BiSc(102 97)"
EndChar

StartChar: eight.BoldItalic.8
Encoding: 67703 -1 56
Width: 0
VWidth: 0
Flags: H
LayerCount: 2
Fore
SplineSet
361 616 m 0
 325 616 287 575 279 536 c 0
 278 531 277 526 277 521 c 0
 277 494 292 466 333 443 c 1
 360 461 397 491 405 532 c 0
 407 539 407 546 407 553 c 0
 407 586 392 616 361 616 c 0
249 104 m 0
 281 104 340 126 358 213 c 0
 360 224 361 234 361 243 c 0
 361 305 316 326 286 340 c 1
 222 298 196 242 190 217 c 0
 188 205 187 195 187 185 c 0
 187 130 222 104 249 104 c 0
516 531 m 0
 505 480 433 429 383 397 c 1
 416 374 476 326 476 257 c 0
 476 248 475 240 473 231 c 0
 458 157 375 62 239 62 c 0
 142 62 80 104 80 182 c 0
 80 193 81 204 83 217 c 0
 99 292 188 352 233 382 c 1
 205 405 161 441 161 497 c 0
 161 504 162 512 163 519 c 0
 179 594 264 655 373 655 c 0
 466 655 518 613 518 553 c 0
 518 546 518 539 516 531 c 0
EndSplineSet
Comment: "BI(35)"
EndChar

StartChar: eight.BoldItalic.9
Encoding: 67704 -1 57
Width: 0
VWidth: 0
Flags: H
LayerCount: 2
Fore
SplineSet
360.83984375 541.69921875 m 0
 325.1953125 541.69921875 287.109375 501.66015625 278.80859375 462.109375 c 0
 277.83203125 457.2265625 277.34375 451.85546875 277.34375 446.97265625 c 0
 277.34375 420.1171875 292.48046875 392.28515625 332.51953125 368.84765625 c 1
 360.3515625 387.40234375 396.7890625 417.71484375 405.2734375 458.203125 c 0
 406.70703125 465.044921875 407.2265625 472.36328125 407.2265625 479.6875 c 0
 407.2265625 511.9140625 392.08984375 541.69921875 360.83984375 541.69921875 c 0
248.53515625 30.46875 m 0
 280.76171875 30.46875 339.84375 51.953125 357.91015625 138.8671875 c 0
 359.86328125 150.09765625 360.83984375 160.3515625 360.83984375 169.62890625 c 0
 360.83984375 231.15234375 315.91796875 252.1484375 285.64453125 265.8203125 c 1
 221.6796875 224.31640625 195.80078125 168.1640625 190.4296875 142.7734375 c 0
 188.4765625 131.54296875 187.01171875 120.80078125 187.01171875 111.5234375 c 0
 187.01171875 55.859375 222.16796875 30.46875 248.53515625 30.46875 c 0
515.625 457.2265625 m 0
 505.37109375 406.4453125 432.6171875 355.17578125 383.30078125 323.4375 c 1
 415.52734375 300.48828125 476.07421875 252.63671875 476.07421875 182.8125 c 0
 476.07421875 174.51171875 475.09765625 166.2109375 473.14453125 157.421875 c 0
 458.0078125 82.71484375 375 -12.01171875 239.2578125 -12.01171875 c 0
 142.08984375 -12.01171875 79.58984375 29.98046875 79.58984375 108.10546875 c 0
 79.58984375 118.84765625 80.56640625 130.56640625 83.0078125 142.7734375 c 0
 98.6328125 217.96875 187.98828125 278.515625 233.3984375 308.30078125 c 1
 205.078125 331.25 161.1328125 367.3828125 161.1328125 423.046875 c 0
 161.1328125 429.8828125 161.62109375 437.6953125 163.0859375 445.5078125 c 0
 178.7109375 520.21484375 263.671875 581.25 372.55859375 581.25 c 0
 466.30859375 581.25 518.06640625 539.2578125 518.06640625 479.6875 c 0
 518.06640625 472.36328125 517.578125 465.0390625 515.625 457.2265625 c 0
EndSplineSet
Comment: "BI(4)"
EndChar

StartChar: eight.BoldSlant.1
Encoding: 67712 -1 58
Width: 0
VWidth: 0
Flags: H
LayerCount: 2
Fore
SplineSet
382.219726562 621 m 0
 318.219726562 621 301.930664062 582 291.940429688 535 c 0
 285.350585938 504 286.268554688 468.799804688 330.384765625 443 c 2
 374.858398438 417 l 1
 411.109375 437 427.674804688 482 436.814453125 525 c 0
 445.529296875 566 452.219726562 621 382.219726562 621 c 0
552.389648438 523 m 0
 538.786132812 459 475.370117188 410 412.756835938 393 c 1
 461.743164062 360 l 2
 512.551757812 325.700195312 527.1875 268 514.646484375 209 c 0
 498.280273438 132 403.875 36 247.875 36 c 0
 120.875 36 43.140625 89 65.2470703125 193 c 0
 81.61328125 270 144.815429688 318 249.806640625 365 c 1
 231.14453125 376 l 2
 166.0859375 414.299804688 150.661132812 449 162.77734375 506 c 0
 179.356445312 584 254.66015625 656 396.66015625 656 c 0
 527.66015625 656 567.907226562 596 552.389648438 523 c 0
258.376953125 76 m 2
 301.376953125 76 365.990234375 93 386.396484375 189 c 0
 396.598632812 237 397.676757812 275 333.752929688 313 c 2
 285.91796875 342 l 1
 206.71484375 294 194.623046875 223 188.247070312 193 c 0
 169.328125 104 205.377929688 76 258.377929688 76 c 2
 258.376953125 76 l 2
EndSplineSet
Comment: "aBL(154 153 151 150 148 147)"
EndChar

StartChar: eight.BoldSlant.2
Encoding: 67713 -1 59
Width: 0
VWidth: 0
Flags: H
LayerCount: 2
Fore
SplineSet
382.219726562 621 m 0
 318.219726562 621 301.930664062 582 291.940429688 535 c 0
 285.350585938 504 286.268554688 468.799804688 330.384765625 443 c 2
 374.858398438 417 l 1
 411.109375 437 427.674804688 482 436.814453125 525 c 0
 445.529296875 566 452.219726562 621 382.219726562 621 c 0
552.389648438 523 m 0
 538.786132812 459 475.370117188 410 412.756835938 393 c 1
 461.743164062 360 l 2
 512.551757812 325.700195312 527.1875 268 514.646484375 209 c 0
 498.280273438 132 403.875 36 247.875 36 c 0
 120.875 36 43.140625 89 65.2470703125 193 c 0
 81.61328125 270 144.815429688 318 249.806640625 365 c 1
 231.14453125 376 l 2
 166.0859375 414.299804688 150.661132812 449 162.77734375 506 c 0
 179.356445312 584 254.66015625 656 396.66015625 656 c 0
 527.66015625 656 567.907226562 596 552.389648438 523 c 0
258.376953125 76 m 2
 301.376953125 76 365.990234375 93 386.396484375 189 c 0
 396.598632812 237 397.26953125 274.5 333.752929688 313 c 2
 285.91796875 342 l 1
 206.71484375 294 194.623046875 223 188.247070312 193 c 0
 169.328125 104 205.377929688 76 258.377929688 76 c 2
 258.376953125 76 l 2
EndSplineSet
Comment: "aBL(144)"
EndChar

StartChar: eight.BoldSlant.3
Encoding: 67714 -1 60
Width: 0
VWidth: 0
Flags: H
LayerCount: 2
Fore
SplineSet
382.219726562 621 m 0
 318.219726562 621 301.930664062 582 291.940429688 535 c 0
 285.350585938 504 286.268554688 468.799804688 330.384765625 443 c 2
 374.858398438 417 l 1
 411.109375 437 427.674804688 482 436.814453125 525 c 0
 445.529296875 566 452.219726562 621 382.219726562 621 c 0
552.389648438 523 m 0
 538.786132812 459 475.370117188 410 412.756835938 393 c 1
 461.743164062 360 l 2
 512.551757812 325.700195312 527.188476562 268 514.646484375 209 c 0
 498.280273438 132 403.874023438 36 247.874023438 36 c 0
 120.874023438 36 43.1396484375 89 65.24609375 193 c 0
 81.6123046875 270 144.814453125 318 249.805664062 365 c 1
 231.143554688 376 l 2
 166.084960938 414.299804688 150.66015625 449 162.776367188 506 c 0
 179.35546875 584 254.659179688 656 396.659179688 656 c 0
 527.659179688 656 567.90625 596 552.389648438 523 c 0
258.376953125 76 m 0
 301.376953125 76 365.990234375 93 386.396484375 189 c 0
 396.598632812 237 397.26953125 274.5 333.752929688 313 c 2
 285.916992188 342 l 1
 206.713867188 294 194.622070312 223 188.24609375 193 c 0
 169.328125 104 205.376953125 76 258.376953125 76 c 0
EndSplineSet
Comment: "aBL(143 142 140 139)"
EndChar

StartChar: eight.BoldSlant.4
Encoding: 67715 -1 61
Width: 0
VWidth: 0
Flags: H
LayerCount: 2
Fore
SplineSet
396.219726562 621 m 0
 332.219726562 621 313.930664062 582 303.940429688 535 c 0
 297.350585938 504 301.124023438 470 344.384765625 443 c 2
 375.346679688 424 l 1
 411.59765625 444 443.674804688 482 452.814453125 525 c 0
 461.529296875 566 466.219726562 621 396.219726562 621 c 0
570.514648438 533 m 0
 556.69921875 468 475.858398438 417 413.245117188 400 c 1
 475.743164062 360 l 2
 533.756835938 322.900390625 551.188476562 268 538.646484375 209 c 0
 522.280273438 132 417.874023438 36 261.874023438 36 c 0
 134.874023438 36 47.1396484375 89 69.24609375 193 c 0
 85.6123046875 270 158.814453125 318 263.805664062 365 c 1
 245.143554688 376 l 2
 170.595703125 420 164.786132812 459 176.901367188 516 c 0
 193.481445312 594 262.659179688 656 410.659179688 656 c 0
 541.659179688 656 586.03125 606 570.514648438 533 c 0
272.376953125 76 m 0
 315.376953125 76 389.990234375 93 410.396484375 189 c 0
 420.598632812 237 411.26953125 274.5 347.752929688 313 c 2
 299.916992188 342 l 1
 220.713867188 294 198.622070312 223 192.24609375 193 c 0
 173.328125 104 219.376953125 76 272.376953125 76 c 0
EndSplineSet
Comment: "aBL(132)"
EndChar

StartChar: eight.BoldSlant.5
Encoding: 67716 -1 62
Width: 0
VWidth: 0
Flags: H
LayerCount: 2
Fore
SplineSet
357.84375 591 m 0
 305.84375 591 281.19140625 555 271.838867188 511 c 0
 265.674804688 482 273.827148438 443.200195312 309.071289062 418 c 2
 334.245117188 400 l 1
 364.283203125 419 396.873046875 450 407.712890625 501 c 0
 417.065429688 545 414.84375 591 357.84375 591 c 0
509.4140625 509 m 0
 496.447265625 448 412.521484375 406 364.568359375 378 c 1
 414.491210938 340 l 2
 456.668945312 307.900390625 479.211914062 254 467.521484375 199 c 0
 452.216796875 127 357.874023438 36 230.874023438 36 c 0
 126.874023438 36 53.71484375 87 74.3330078125 184 c 0
 89.615234375 255.900390625 156.806640625 290.200195312 241.5546875 345 c 1
 226.6796875 355 l 2
 176.33203125 391 151.747070312 440 163.012695312 493 c 0
 178.529296875 566 248.857421875 624 369.857421875 624 c 0
 476.857421875 624 523.8671875 577 509.4140625 509 c 0
240.739257812 73 m 0
 283.739257812 73 340.352539062 90 359.482421875 180 c 0
 369.047851562 225 360.366210938 259.900390625 309.138671875 296 c 2
 270.877929688 323 l 1
 195.887695312 276 180.284179688 212 174.333007812 184 c 0
 156.690429688 101 197.739257812 73 240.739257812 73 c 0
EndSplineSet
Comment: "BSl(108 107 105 103 95 94 90 89 79 78 76), aBL(126 122 120 117 115)"
EndChar

StartChar: eight.BoldSlant.6
Encoding: 67717 -1 63
Width: 0
VWidth: 0
Flags: H
LayerCount: 2
Fore
SplineSet
240.739257812 73 m 0
 283.739257812 73 340.352539062 90 359.482421875 180 c 0
 369.047851562 225 360.366210938 259.900390625 309.138671875 296 c 2
 270.877929688 323 l 1
 195.887695312 276 180.284179688 212 174.333007812 184 c 0
 156.690429688 101 197.739257812 73 240.739257812 73 c 0
509.4140625 509 m 0
 496.447265625 448 412.521484375 406 364.568359375 378 c 1
 414.491210938 340 l 2
 456.668945312 307.900390625 479.211914062 254 467.521484375 199 c 0
 452.216796875 127 357.874023438 36 230.874023438 36 c 0
 126.874023438 36 53.71484375 87 74.3330078125 184 c 0
 89.615234375 255.900390625 156.806640625 290.200195312 241.5546875 345 c 1
 226.6796875 355 l 2
 176.33203125 391 151.747070312 440 163.012695312 493 c 0
 178.529296875 566 248.857421875 624 369.857421875 624 c 0
 476.857421875 624 523.8671875 577 509.4140625 509 c 0
357.84375 591 m 0
 305.84375 591 281.19140625 555 271.838867188 511 c 0
 265.674804688 482 273.827148438 443.200195312 309.071289062 418 c 2
 334.245117188 400 l 1
 364.283203125 419 396.873046875 450 407.712890625 501 c 0
 417.065429688 545 414.84375 591 357.84375 591 c 0
EndSplineSet
Comment: "BSl(102 97 88)"
EndChar

StartChar: eight.Outline.1
Encoding: 67728 -1 64
Width: 0
VWidth: 0
Flags: H
LayerCount: 2
Fore
SplineSet
236 631 m 0
 176 631 137 583 137 537 c 0
 137 506 147 472 210 431 c 2
 241 412 l 1
 268 432 332 478 332 532 c 0
 332 578 301 631 236 631 c 0
394 531 m 0
 394 467 322 418 278 388 c 1
 339 348 l 2
 391 314 419 266 419 208 c 0
 419 132 357 35 226 35 c 0
 120 35 48 90 48 192 c 0
 48 231 65 276 106 312 c 0
 131 334 157 353 182 372 c 1
 164 383 l 2
 103 421 72 462 72 518 c 0
 72 595 139 656 241 656 c 0
 339 656 394 603 394 531 c 0
228 60 m 0
 273 60 354 88 354 188 c 0
 354 236 326 283 264 321 c 2
 217 349 l 1
 131 292 109 222 109 192 c 0
 109 102 183 60 228 60 c 0
236 600 m 0
 190.5 600 168 563.299804688 168 537 c 0
 168 513.900390625 173.099609375 492.200195312 226.5 457.200195312 c 2
 239.200195312 449.400390625 l 1
 274.099609375 476.700195312 301 508.900390625 301 532 c 0
 301 569 277.200195312 600 236 600 c 0
236 608 m 0
 282.099609375 608 309 572.5 309 532 c 0
 309 503.200195312 277.200195312 468.5 241.900390625 441.400390625 c 2
 239.700195312 439.700195312 l 1
 222.200195312 450.5 l 2
 167.599609375 486.400390625 160 511.299804688 160 537 c 0
 160 567.200195312 185.5 608 236 608 c 0
425 531 m 0
 425 461.599609375 368.900390625 416.099609375 333 389 c 1
 356 373.900390625 l 2
 418.599609375 333 450 273.299804688 450 208 c 0
 450 112.299804688 370.5 4 226 4 c 0
 104.200195312 4 17 74.2001953125 17 192 c 0
 17 243.5 41.099609375 296.299804688 85.5 335.299804688 c 0
 102.400390625 350.099609375 116.200195312 360.799804688 127.799804688 369.799804688 c 1
 70.5 410.599609375 41 459 41 518 c 0
 41 619.900390625 131.599609375 687 241 687 c 0
 355.5 687 425 619 425 531 c 0
417 531 m 0
 417 614 352.099609375 679 241 679 c 0
 134.5 679 49 614.200195312 49 518 c 0
 49 460.5 78.2001953125 413.700195312 136.900390625 373.299804688 c 2
 141.400390625 370.099609375 l 1
 137 366.799804688 l 2
 124.099609375 356.900390625 109.299804688 345.5 90.7998046875 329.299804688 c 0
 48 291.700195312 25 241 25 192 c 0
 25 79.2001953125 107.400390625 12 226 12 c 0
 366 12 442 116.5 442 208 c 0
 442 270.599609375 412.200195312 327.599609375 351.599609375 367.200195312 c 2
 319.099609375 388.599609375 l 1
 323.700195312 392 l 2
 360.400390625 419.200195312 417 463.799804688 417 531 c 0
228 91 m 0
 266.900390625 91 323 113.900390625 323 188 c 0
 323 225.099609375 300.5 262.299804688 248 294.5 c 2
 218.5 312 l 1
 149.400390625 259.099609375 140 206.799804688 140 192 c 0
 140 117.900390625 201.299804688 91 228 91 c 0
228 83 m 0
 197.700195312 83 132 112.599609375 132 192 c 0
 132 209.700195312 143.200195312 265.799804688 215.799804688 320.099609375 c 2
 217.900390625 321.700195312 l 1
 252.099609375 301.299804688 l 2
 306.099609375 268.200195312 331 228.700195312 331 188 c 0
 331 108.400390625 269.5 83 228 83 c 0
EndSplineSet
Comment: "I(170 146)"
EndChar

StartChar: eight.Outline.2
Encoding: 67729 -1 65
Width: 0
VWidth: 0
Flags: H
LayerCount: 2
Fore
SplineSet
236 631 m 0
 176 631 137 583 137 537 c 0
 137 506 147 472 210 431 c 2
 241 412 l 1
 268 432 332 478 332 532 c 0
 332 578 301 631 236 631 c 0
394 531 m 0
 394 467 322 418 278 388 c 1
 339 348 l 2
 391 314 419 266 419 208 c 0
 419 132 357 35 226 35 c 0
 120 35 48 90 48 192 c 0
 48 231 65 276 106 312 c 0
 131 334 157 353 182 372 c 1
 164 383 l 2
 103 421 72 462 72 518 c 0
 72 595 139 656 241 656 c 0
 339 656 394 603 394 531 c 0
228 60 m 0
 273 60 354 88 354 188 c 0
 354 236 326 283 264 321 c 2
 217 349 l 1
 131 292 109 222 109 192 c 0
 109 102 183 60 228 60 c 0
236 600 m 0
 190.5 600 168 563.299804688 168 537 c 0
 168 513.900390625 173.099609375 492.200195312 226.5 457.200195312 c 2
 239.200195312 449.400390625 l 1
 274.099609375 476.700195312 301 508.900390625 301 532 c 0
 301 569 277.200195312 600 236 600 c 0
236 608 m 0
 282.099609375 608 309 572.5 309 532 c 0
 309 503.200195312 277.200195312 468.5 241.900390625 441.400390625 c 2
 239.700195312 439.700195312 l 1
 222.200195312 450.5 l 2
 167.599609375 486.400390625 160 511.299804688 160 537 c 0
 160 567.200195312 185.5 608 236 608 c 0
425 531 m 0
 425 461.599609375 368.900390625 416.099609375 333 389 c 1
 356 373.900390625 l 2
 418.599609375 333 450 273.299804688 450 208 c 0
 450 112.299804688 370.5 4 226 4 c 0
 104.200195312 4 17 74.2001953125 17 192 c 0
 17 243.5 41.099609375 296.299804688 85.5 335.299804688 c 0
 102.400390625 350.099609375 116.200195312 360.799804688 127.799804688 369.799804688 c 1
 70.5 410.599609375 41 459 41 518 c 0
 41 619.900390625 131.599609375 687 241 687 c 0
 355.5 687 425 619 425 531 c 0
417 531 m 0
 417 614 352.099609375 679 241 679 c 0
 134.5 679 49 614.200195312 49 518 c 0
 49 460.400390625 78.2001953125 413.700195312 136.900390625 373.299804688 c 2
 141.400390625 370.099609375 l 1
 137 366.799804688 l 2
 124.099609375 356.900390625 109.299804688 345.5 90.7998046875 329.299804688 c 0
 48 291.700195312 25 241 25 192 c 0
 25 79.2001953125 107.400390625 12 226 12 c 0
 366 12 442 116.5 442 208 c 0
 442 270.599609375 412.200195312 327.599609375 351.599609375 367.200195312 c 2
 319.099609375 388.599609375 l 1
 323.700195312 392 l 2
 360.400390625 419.200195312 417 463.799804688 417 531 c 0
228 91 m 0
 266.900390625 91 323 113.900390625 323 188 c 0
 323 225.099609375 300.5 262.299804688 248 294.5 c 2
 218.5 312 l 1
 149.400390625 259.099609375 140 206.799804688 140 192 c 0
 140 117.900390625 201.299804688 91 228 91 c 0
228 83 m 0
 197.700195312 83 132 112.599609375 132 192 c 0
 132 209.700195312 143.200195312 265.799804688 215.799804688 320.099609375 c 2
 217.900390625 321.700195312 l 1
 252.099609375 301.299804688 l 2
 306.099609375 268.200195312 331 228.700195312 331 188 c 0
 331 108.400390625 269.5 83 228 83 c 0
EndSplineSet
Comment: "I(166 148)"
EndChar

StartChar: eight.Outline.3
Encoding: 67730 -1 66
Width: 0
VWidth: 0
Flags: H
LayerCount: 2
Fore
SplineSet
236 631 m 0
 176 631 137 583 137 537 c 0
 137 506 147 472 210 431 c 2
 241 412 l 1
 268 432 332 478 332 532 c 0
 332 578 301 631 236 631 c 0
394 531 m 0
 394 467 322 418 278 388 c 1
 339 348 l 2
 391 313.900390625 419 266 419 208 c 0
 419 132 357 35 226 35 c 0
 120 35 48 90 48 192 c 0
 48 231 65 276 106 312 c 0
 131 334 157 353 182 372 c 1
 164 383 l 2
 103 421 72 462 72 518 c 0
 72 595 139 656 241 656 c 0
 339 656 394 603 394 531 c 0
228 60 m 0
 273 60 354 88 354 188 c 0
 354 236 326 283 264 321 c 2
 217 349 l 1
 131 292 109 222 109 192 c 0
 109 102 183 60 228 60 c 0
236 600 m 0
 190.5 600 168 563.299804688 168 537 c 0
 168 513.900390625 173.099609375 492.200195312 226.5 457.200195312 c 2
 239.200195312 449.400390625 l 1
 274.099609375 476.700195312 301 508.900390625 301 532 c 0
 301 569 277.200195312 600 236 600 c 0
236 608 m 0
 282.099609375 608 309 572.5 309 532 c 0
 309 503.200195312 277.200195312 468.5 241.900390625 441.400390625 c 2
 239.700195312 439.700195312 l 1
 222.200195312 450.5 l 2
 167.599609375 486.400390625 160 511.299804688 160 537 c 0
 160 567.200195312 185.5 608 236 608 c 0
425 531 m 0
 425 461.599609375 368.900390625 416.099609375 333 389 c 1
 356 373.900390625 l 2
 418.5 332.900390625 450 273.299804688 450 208 c 0
 450 112.299804688 370.5 4 226 4 c 0
 104.200195312 4 17 74.2001953125 17 192 c 0
 17 243.5 41.099609375 296.299804688 85.5 335.299804688 c 0
 102.400390625 350.099609375 116.200195312 360.799804688 127.799804688 369.799804688 c 1
 70.5 410.599609375 41 459 41 518 c 0
 41 619.900390625 131.599609375 687 241 687 c 0
 355.5 687 425 619 425 531 c 0
417 531 m 0
 417 614 352.099609375 679 241 679 c 0
 134.5 679 49 614.200195312 49 518 c 0
 49 460.5 78.2001953125 413.700195312 136.900390625 373.299804688 c 2
 141.400390625 370.099609375 l 1
 137 366.799804688 l 2
 124.099609375 356.900390625 109.299804688 345.5 90.7998046875 329.299804688 c 0
 48 291.700195312 25 241 25 192 c 0
 25 79.2001953125 107.400390625 12 226 12 c 0
 366 12 442 116.5 442 208 c 0
 442 270.599609375 412.099609375 327.5 351.599609375 367.200195312 c 2
 319.099609375 388.599609375 l 1
 323.700195312 392 l 2
 360.400390625 419.200195312 417 463.799804688 417 531 c 0
228 91 m 0
 266.900390625 91 323 113.900390625 323 188 c 0
 323 225.099609375 300.5 262.299804688 248 294.5 c 2
 218.5 312 l 1
 149.400390625 259.099609375 140 206.799804688 140 192 c 0
 140 117.900390625 201.299804688 91 228 91 c 0
228 83 m 0
 197.700195312 83 132 112.599609375 132 192 c 0
 132 209.700195312 143.200195312 265.799804688 215.799804688 320.099609375 c 2
 217.900390625 321.700195312 l 1
 252.099609375 301.299804688 l 2
 306.099609375 268.200195312 331 228.700195312 331 188 c 0
 331 108.400390625 269.5 83 228 83 c 0
EndSplineSet
Comment: "I(144 142)"
EndChar

StartChar: eight.Mono.1
Encoding: 67744 -1 67
Width: 0
VWidth: 0
Flags: H
LayerCount: 2
Fore
SplineSet
323 663 m 0
 242 663 202 611 202 561 c 0
 202 515.099609375 229.099609375 478.5 300 449 c 2
 336 434 l 1
 377 449.200195312 437 505 437 556 c 0
 437 606 410 663 323 663 c 0
516 555 m 0
 516 486 425 430.200195312 370 416 c 1
 455 380 l 2
 522.900390625 350.5 552 284 552 221 c 0
 552 139 467 35 310 35 c 0
 183 35 88 94 88 204 c 0
 88 291.099609375 176.799804688 349.099609375 260 380 c 1
 232 392 l 2
 166.5 420.099609375 122 481 122 541 c 0
 122 624 206 703 328 703 c 0
 446 703 516 633 516 555 c 0
311 75 m 0
 371 75 470 91 470 199 c 0
 470 266.200195312 434.799804688 309.900390625 352 343 c 2
 297 365 l 1
 196 317.200195312 162 236 162 204 c 0
 162 107 251 75 311 75 c 0
EndSplineSet
Comment: "M(170)"
EndChar

StartChar: eight.Underline.1
Encoding: 67760 -1 68
Width: 0
VWidth: 0
Flags: H
LayerCount: 2
Fore
SplineSet
213.37890625 556.8359375 m 0
 162.109375 556.8359375 119.62890625 510.9375 119.62890625 466.9921875 c 0
 119.62890625 438.18359375 145.106445312 401.206054688 200.68359375 364.453125 c 2
 230.95703125 344.43359375 l 1
 256.8359375 363.4765625 308.10546875 410.83984375 308.10546875 462.109375 c 0
 308.10546875 506.0546875 271.484375 556.8359375 213.37890625 556.8359375 c 0
366.2109375 461.1328125 m 0
 366.2109375 396.19140625 305.6640625 350.78125 264.16015625 322.94921875 c 1
 322.265625 283.3984375 l 2
 369.95703125 250.936523438 395.5078125 214.0625 395.5078125 159.86328125 c 0
 395.5078125 87.109375 336.9140625 -5.6640625 213.37890625 -5.6640625 c 0
 120.60546875 -5.6640625 44.43359375 47.0703125 44.43359375 144.23828125 c 0
 44.43359375 181.8359375 61.03515625 217.48046875 98.6328125 252.63671875 c 0
 122.0703125 274.12109375 143.06640625 291.69921875 166.50390625 307.32421875 c 1
 148.4375 318.06640625 l 2
 89.1953125 353.291015625 56.15234375 395.703125 56.15234375 449.4140625 c 0
 56.15234375 522.16796875 126.953125 581.25 218.75 581.25 c 0
 297.36328125 581.25 366.2109375 529.00390625 366.2109375 461.1328125 c 0
215.33203125 22.16796875 m 0
 258.30078125 22.16796875 333.0078125 45.60546875 333.0078125 140.33203125 c 0
 333.0078125 185.25390625 307.12890625 224.31640625 247.0703125 260.44921875 c 2
 201.66015625 286.81640625 l 1
 121.09375 232.6171875 102.5390625 172.55859375 102.5390625 144.23828125 c 0
 102.5390625 113.96484375 110.83984375 85.15625 133.30078125 63.671875 c 0
 158.69140625 38.76953125 184.08203125 22.16796875 215.33203125 22.16796875 c 0
-17.08984375 -82.8125 m 1
 470.703125 -82.8125 l 1
 463.37890625 -121.875 l 1
 -24.4140625 -121.875 l 1
 -17.08984375 -82.8125 l 1
EndSplineSet
Comment: "U_Re(4)"
EndChar

StartChar: three.Display.1
Encoding: 66432 -1 69
Width: 0
VWidth: 0
Flags: H
LayerCount: 2
Fore
SplineSet
219 631 m 0
 193 631 124 609 124 545 c 0
 124 526 114 493 85 493 c 0
 61 493 51 513 51 527 c 0
 51 560 93 656 240 656 c 0
 342 656 380 592 380 550 c 0
 380 516 375 470 280 410 c 1
 281 408 l 1
 340 398 417 357 417 248 c 0
 417 116 311 35 192 35 c 0
 132 35 48 62 48 102 c 0
 48 118 69 137 90 137 c 0
 110 137 123 125 133 111 c 0
 145 93 154 60 205 60 c 0
 240 60 335 101 335 234 c 0
 335 347 260 365 203 365 c 0
 190 365 177 365 160 363 c 1
 155 385 l 1
 245 399 309 486 309 535 c 0
 309 597 263 631 219 631 c 0
EndSplineSet
Comment: "DR(170 166 148 146 144 143 142 141), aDRS(154 153 151 150 148 147 144 143 142)"
EndChar

StartChar: three.DisplayItalic.1
Encoding: 66448 -1 70
Width: 0
VWidth: 0
Flags: H
LayerCount: 2
Fore
SplineSet
343.345703125 631 m 2
 317.345703125 631 243.668945312 609 230.06640625 545 c 0
 226.028320312 526 209.013671875 493 180.013671875 493 c 0
 156.013671875 493 150.264648438 513 153.240234375 527 c 0
 160.254882812 560 222.66015625 656 369.66015625 656 c 0
 471.66015625 656 496.055664062 592 487.129882812 550 c 0
 479.90234375 516 465.125 470 357.37109375 410 c 1
 357.946289062 408 l 1
 414.821289062 398 483.106445312 357 459.9375 248 c 0
 431.879882812 116 308.663085938 35 189.663085938 35 c 0
 129.663085938 35 51.40234375 62 59.904296875 102 c 0
 63.3046875 118 88.34375 137 109.34375 137 c 0
 129.34375 137 139.79296875 125 146.817382812 111 c 0
 154.991210938 93 156.9765625 60 207.9765625 60 c 0
 242.9765625 60 346.69140625 101 374.9609375 234 c 0
 398.98046875 347 327.805664062 365 270.806640625 365 c 0
 257.806640625 365 244.806640625 365 227.381835938 363 c 1
 227.057617188 385 l 1
 320.033203125 399 402.525390625 486 412.94140625 535 c 0
 426.120117188 597 387.346679688 631 343.346679688 631 c 2
 343.345703125 631 l 2
EndSplineSet
Comment: "aDRL(153 151 150 148 147 144)"
EndChar

StartChar: three.DisplayItalic.2
Encoding: 66449 -1 71
Width: 0
VWidth: 0
Flags: H
LayerCount: 2
Fore
SplineSet
343.345703125 631 m 0
 317.345703125 631 243.668945312 609 230.065429688 545 c 0
 226.02734375 526 209.012695312 493 180.012695312 493 c 0
 156.012695312 493 150.263671875 513 153.239257812 527 c 0
 160.25390625 560 222.659179688 656 369.659179688 656 c 0
 471.659179688 656 496.055664062 592 487.12890625 550 c 0
 479.901367188 516 465.124023438 470 357.370117188 410 c 1
 357.9453125 408 l 1
 414.8203125 398 483.10546875 357 459.936523438 248 c 0
 431.87890625 116 308.662109375 35 189.662109375 35 c 0
 129.662109375 35 51.4013671875 62 59.9033203125 102 c 0
 63.3037109375 118 88.3427734375 137 109.342773438 137 c 0
 129.342773438 137 139.791992188 125 146.815429688 111 c 0
 154.989257812 93 156.975585938 60 207.975585938 60 c 0
 242.975585938 60 346.689453125 101 374.9609375 234 c 0
 398.978515625 347 327.805664062 365 270.805664062 365 c 0
 257.805664062 365 244.805664062 365 227.380859375 363 c 1
 227.056640625 385 l 1
 320.03125 399 402.5234375 486 412.939453125 535 c 0
 426.119140625 597 387.345703125 631 343.345703125 631 c 0
EndSplineSet
Comment: "aDRL(143 142)"
EndChar

StartChar: three.Regular.1
Encoding: 66464 -1 72
Width: 0
VWidth: 0
Flags: H
LayerCount: 2
Fore
SplineSet
215 621 m 0
 189 621 120 609 120 545 c 0
 120 526 116 493 81 493 c 0
 57 493 47 513 47 527 c 0
 47 560 89 656 236 656 c 0
 288.299804688 656 323.200195312 639.099609375 345 617 c 0
 369.299804688 592.400390625 376.299804688 567.900390625 376.299804688 537.900390625 c 0
 376.299804688 485.200195312 353.299804688 443.599609375 271 405 c 1
 272 403 l 1
 331 393 413 354 413 245 c 0
 413 113 307 36 188 36 c 0
 128 36 44 63 44 103 c 0
 44 119 65 138 86 138 c 0
 106 138 119 126 129 112 c 0
 141 94 150 71 201 71 c 0
 236 71 325 98 325 231 c 0
 325 344 251 360 194 360 c 0
 181 360 163 360 146 358 c 1
 141 390 l 1
 240.099609375 404.099609375 298.099609375 480.5 298.099609375 530.700195312 c 0
 298.099609375 595 258.200195312 621 215 621 c 0
EndSplineSet
Comment: "R(170 146 144 142 139), aS(147 144 143 142 140 139)"
EndChar

StartChar: three.Regular.2
Encoding: 66467 -1 73
Width: 0
VWidth: 0
Flags: H
LayerCount: 2
Fore
SplineSet
215 621 m 0
 189 621 120 609 120 545 c 0
 120 526 116 493 81 493 c 0
 57 493 47 513 47 527 c 0
 47 560 89 656 236 656 c 0
 288.299804688 656 323.200195312 639.099609375 345 617 c 0
 369.299804688 592.400390625 376.400390625 567.900390625 376.400390625 537.900390625 c 0
 376.400390625 485.200195312 353.299804688 443.599609375 271 405 c 1
 272 403 l 1
 331 393 413 354 413 245 c 0
 413 113 307 36 188 36 c 0
 128 36 44 63 44 103 c 0
 44 119 65 138 86 138 c 0
 106 138 119 126 129 112 c 0
 141 94 150 71 201 71 c 0
 236 71 325 98 325 231 c 0
 325 344 251 360 194 360 c 0
 181 360 163 360 146 358 c 1
 141 390 l 1
 240.099609375 404.099609375 298.099609375 480.5 298.099609375 530.700195312 c 0
 298.099609375 595 258.200195312 621 215 621 c 0
EndSplineSet
Comment: "R(166 153 152 151 148), aS(154 153 151 150 148)"
EndChar

StartChar: three.Regular.3
Encoding: 66468 -1 74
Width: 0
VWidth: 0
Flags: H
LayerCount: 2
Fore
SplineSet
219 622 m 0
 193 622 124 609 124 545 c 0
 124 526 114 493 85 493 c 0
 61 493 51 513 51 527 c 0
 51 560 93 657 240 657 c 0
 342 657 380 592 380 550 c 0
 380 516 375 470 280 410 c 1
 281 408 l 1
 340 398 417 357 417 248 c 0
 417 116 311 35 192 35 c 0
 132 35 48 62 48 102 c 0
 48 118 69 137 90 137 c 0
 110 137 123 125 133 111 c 0
 145 93 154 70 205 70 c 0
 240 70 329 101 329 234 c 0
 329 347 260 365 203 365 c 0
 190 365 177 365 160 363 c 1
 155 395 l 1
 245 409 303 486 303 535 c 0
 303 597 263 622 219 622 c 0
EndSplineSet
Comment: "R(130 127 125 121 118), aS(132 126 122 120)"
EndChar

StartChar: three.Regular.4
Encoding: 66469 -1 75
Width: 0
VWidth: 0
Flags: H
LayerCount: 2
Fore
SplineSet
207 591 m 0
 182 591 117 579 117 518 c 0
 117 500 107 469 80 469 c 0
 57 469 48 488 48 501 c 0
 48 532 88 624 227 624 c 0
 324 624 360 563 360 523 c 0
 360 491 355 448 265 391 c 1
 266 389 l 1
 321.900390625 379.700195312 395 340.400390625 395 237 c 0
 395 112 295 36 182 36 c 0
 125 36 45 61 45 99 c 0
 45 114 65 132 85 132 c 0
 104 132 117 121 126 108 c 0
 137 91 146 69 194 69 c 0
 227 69 311 98 311 224 c 0
 311 331 246 348 192 348 c 0
 180 348 167 348 151 346 c 1
 147 376 l 1
 232 389 287 463 287 509 c 0
 287 568 249 591 207 591 c 0
EndSplineSet
Comment: "R(116 115 114 111), Re(108 105 103 102 97 96 89 88), Sc(108 107 105 103 102 97), aS(117 115)"
EndChar

StartChar: three.Regular.5
Encoding: 66470 -1 76
Width: 0
VWidth: 0
Flags: H
LayerCount: 2
Fore
SplineSet
207 593 m 0
 182 593 114 579 114 518 c 0
 114 500 107 469 80 469 c 0
 57 469 48 488 48 501 c 0
 48 532 88 624 227 624 c 0
 324 624 360 563 360 523 c 0
 360 491 355 448 265 391 c 1
 266 389 l 1
 321.900390625 379.700195312 395 340.400390625 395 237 c 0
 395 112 295 36 182 36 c 0
 125 36 45 61 45 99 c 0
 45 114 65 132 85 132 c 0
 104 132 113 121 122 108 c 0
 133 91 146 67 194 67 c 0
 227 67 315 98 315 224 c 0
 315 331 246 348 192 348 c 0
 180 348 167 348 151 346 c 1
 147 376 l 1
 232 389 291 463 291 509 c 0
 291 568 249 593 207 593 c 0
EndSplineSet
Comment: "Re(90 79 78 76), Sc(95 94 90)"
EndChar

StartChar: three.Regular.6
Encoding: 66471 -1 77
Width: 0
VWidth: 0
Flags: H
LayerCount: 2
Fore
SplineSet
217 593 m 0
 192 593 119 579 119 518 c 0
 119 500 112 469 85 469 c 0
 59 469 57 498 57 501 c 0
 57 532 98 624 237 624 c 0
 334 624 363 563 363 523 c 0
 363 498 355 448 265 391 c 1
 321 382 395 341 395 237 c 0
 395 105 295 36 182 36 c 0
 125 36 45 61 45 99 c 0
 45 114 60 131 80 131 c 0
 99 131 108 121 117 108 c 0
 128 91 146 67 194 67 c 0
 227 67 318 98 318 224 c 0
 318 331 246 348 192 348 c 0
 183 348 172 346 161 344 c 1
 157 374 l 1
 234 387 295 462 295 508 c 0
 295 565 258 593 217 593 c 0
EndSplineSet
Comment: "C(89 88 79 78 76), C_Re(62 61 41)"
EndChar

StartChar: three.Regular.7
Encoding: 66472 -1 78
Width: 0
VWidth: 0
Flags: H
LayerCount: 2
Fore
SplineSet
207 593 m 0
 182 593 114 579 114 518 c 0
 114 500 107 469 80 469 c 0
 57 469 48 488 48 501 c 0
 48 532 88 624 227 624 c 0
 324 624 360 563 360 523 c 0
 360 491 355 448 265 391 c 1
 266 389 l 1
 321.876953125 379.674804688 395 340.381835938 395 237 c 0
 395 112 295 36 182 36 c 0
 125 36 45 61 45 99 c 0
 45 114 65 132 85 132 c 0
 104 132 113 121 122 108 c 0
 133 91 146 67 194 67 c 0
 227 67 315 98 315 224 c 0
 315 331 246 348 192 348 c 0
 180 348 167 348 151 346 c 1
 147 376 l 1
 232 389 291 463 291 509 c 0
 291 568 249 593 207 593 c 0
EndSplineSet
Comment: "Re(75 62)"
EndChar

StartChar: three.Regular.8
Encoding: 66473 -1 79
Width: 0
VWidth: 0
Flags: H
LayerCount: 2
Fore
SplineSet
207 593 m 0
 182 593 114 579 114 518 c 0
 114 500 107 469 80 469 c 0
 57 469 48 488 48 501 c 0
 48 532 88 624 227 624 c 0
 324 624 360 563 360 523 c 0
 360 491 355 448 265 391 c 1
 266 389 l 1
 322 380 395 340 395 237 c 0
 395 112 295 36 182 36 c 0
 125 36 45 61 45 99 c 0
 45 114 65 132 85 132 c 0
 104 132 113 121 122 108 c 0
 133 91 146 67 194 67 c 0
 227 67 315 98 315 224 c 0
 315 331 246 348 192 348 c 0
 180 348 167 348 151 346 c 1
 147 376 l 1
 232 389 291 463 291 509 c 0
 291 568 249 593 207 593 c 0
EndSplineSet
Comment: "Re(61 41)"
EndChar

StartChar: three.Regular.9
Encoding: 66474 -1 80
Width: 0
VWidth: 0
Flags: H
LayerCount: 2
Fore
SplineSet
217 621 m 0
 192 621 119 607 119 546 c 0
 119 528 112 497 85 497 c 0
 59 497 57 526 57 529 c 0
 57 560 98 652 237 652 c 0
 334 652 363 591 363 551 c 0
 363 526 355 476 265 419 c 1
 321 410 395 369 395 265 c 0
 395 133 295 64 182 64 c 0
 125 64 45 89 45 127 c 0
 45 142 60 159 80 159 c 0
 99 159 108 149 117 136 c 0
 128 119 146 95 194 95 c 0
 227 95 318 126 318 252 c 0
 318 359 246 376 192 376 c 0
 183 376 172 374 161 372 c 1
 157 402 l 1
 234 415 295 490 295 536 c 0
 295 593 258 621 217 621 c 0
EndSplineSet
Comment: "C_Re(35), Re(35)"
EndChar

StartChar: three.Regular.10
Encoding: 66465 -1 81
Width: 0
VWidth: 0
Flags: H
LayerCount: 2
Fore
SplineSet
216.30859375 547.55859375 m 0
 191.40625 547.55859375 117.67578125 533.3984375 117.67578125 472.36328125 c 0
 117.67578125 453.80859375 110.83984375 423.53515625 83.984375 423.53515625 c 0
 58.10546875 423.53515625 56.15234375 452.34375 56.15234375 454.78515625 c 0
 56.15234375 486.5234375 96.6796875 578.3203125 235.83984375 578.3203125 c 0
 332.51953125 578.3203125 361.81640625 517.28515625 361.81640625 476.7578125 c 0
 361.81640625 451.85546875 354.00390625 402.5390625 263.671875 345.41015625 c 1
 320.3125 336.62109375 393.5546875 295.1171875 393.5546875 191.6015625 c 0
 393.5546875 59.27734375 293.9453125 -12.01171875 180.6640625 -12.01171875 c 0
 124.0234375 -12.01171875 44.43359375 13.37890625 44.43359375 51.46484375 c 0
 44.43359375 66.11328125 59.08203125 83.69140625 79.1015625 83.69140625 c 0
 97.65625 83.69140625 106.93359375 73.4375 115.72265625 60.25390625 c 0
 127.44140625 43.1640625 145.01953125 18.75 192.87109375 18.75 c 0
 225.5859375 18.75 319.82421875 51.953125 319.82421875 177.9296875 c 0
 319.82421875 285.3515625 244.62890625 301.953125 191.40625 301.953125 c 0
 181.640625 301.953125 171.38671875 300.48828125 160.15625 298.046875 c 1
 155.76171875 327.83203125 l 1
 232.91015625 341.015625 297.36328125 415.72265625 297.36328125 462.59765625 c 0
 297.36328125 519.23828125 256.8359375 547.55859375 216.30859375 547.55859375 c 0
EndSplineSet
Comment: "Re(4)"
EndChar

StartChar: three.Regular.11
Encoding: 66466 -1 82
Width: 0
VWidth: 0
Flags: H
LayerCount: 2
Fore
SplineSet
216.30859375 547.55859375 m 0
 191.40625 547.55859375 117.67578125 533.3984375 117.67578125 472.36328125 c 0
 117.67578125 453.80859375 110.83984375 423.53515625 83.984375 423.53515625 c 0
 58.10546875 423.53515625 56.15234375 452.34375 56.15234375 454.78515625 c 0
 56.15234375 486.5234375 96.6796875 578.3203125 235.83984375 578.3203125 c 0
 332.51953125 578.3203125 361.81640625 517.28515625 361.81640625 476.7578125 c 0
 361.81640625 451.85546875 354.00390625 402.5390625 263.671875 345.41015625 c 1
 320.3125 336.62109375 393.5546875 295.3515625 393.5546875 191.6015625 c 0
 393.5546875 59.205078125 293.922851562 -12.01171875 180.6640625 -12.01171875 c 0
 124.0234375 -12.01171875 44.43359375 13.37890625 44.43359375 51.46484375 c 0
 44.43359375 66.11328125 59.08203125 83.69140625 79.1015625 83.69140625 c 0
 97.65625 83.69140625 106.830078125 73.2216796875 115.72265625 60.25390625 c 0
 127.44140625 43.1640625 145.01953125 18.75 192.87109375 18.75 c 0
 225.5859375 18.75 319.82421875 51.953125 319.82421875 177.9296875 c 0
 319.82421875 285.138671875 244.62890625 301.953125 191.40625 301.953125 c 0
 181.640625 301.953125 171.38671875 300.48828125 160.15625 298.046875 c 1
 155.76171875 327.83203125 l 1
 232.91015625 341.015625 297.36328125 415.72265625 297.36328125 462.59765625 c 0
 297.36328125 519.23828125 256.8359375 547.55859375 216.30859375 547.55859375 c 0
EndSplineSet
Comment: "C_Re(4)"
EndChar

StartChar: three.Italic.1
Encoding: 66480 -1 83
Width: 0
VWidth: 0
Flags: H
LayerCount: 2
Fore
SplineSet
327 621 m 0
 302 621 233 609 221 545 c 0
 217 526 208 493 174 493 c 0
 151 493 145 513 148 527 c 0
 154 560 213 656 354 656 c 0
 404 656 434 639 451 617 c 0
 470 592 472 568 466 538 c 0
 456 485 426 444 339 405 c 1
 340 403 l 1
 395 393 465 354 444 245 c 0
 418 113 302 36 188 36 c 0
 130 36 54 63 62 103 c 0
 65 119 90 138 110 138 c 0
 129 138 139 126 146 112 c 0
 154 94 158 71 207 71 c 0
 241 71 331 98 357 231 c 0
 379 344 311 360 256 360 c 0
 244 360 227 360 210 358 c 1
 211 390 l 1
 309 404 380 481 390 531 c 0
 403 595 368 621 327 621 c 0
EndSplineSet
Comment: "RI(170 153 152 151 148 146), aSI(154 153 151 150 148 147)"
EndChar

StartChar: three.Italic.2
Encoding: 66481 -1 84
Width: 0
VWidth: 0
Flags: H
LayerCount: 2
Fore
SplineSet
306.5 621 m 0
 280.5 621 211.5 609 211.5 545 c 0
 211.5 526 207.5 493 172.5 493 c 0
 148.5 493 138.5 513 138.5 527 c 0
 138.5 560 180.5 656 327.5 656 c 0
 379.799804688 656 414.700195312 639.099609375 436.5 617 c 0
 460.799804688 592.400390625 467.799804688 567.900390625 467.799804688 537.900390625 c 0
 467.799804688 485.200195312 444.799804688 443.599609375 362.5 405 c 1
 363.5 403 l 1
 422.5 393 504.5 354 504.5 245 c 0
 504.5 113 398.5 36 279.5 36 c 0
 219.5 36 135.5 63 135.5 103 c 0
 135.5 119 156.5 138 177.5 138 c 0
 197.5 138 210.5 126 220.5 112 c 0
 232.5 94 241.5 71 292.5 71 c 0
 327.5 71 416.5 98 416.5 231 c 0
 416.5 344 342.5 360 285.5 360 c 0
 272.5 360 254.5 360 237.5 358 c 1
 232.5 390 l 1
 331.599609375 404.099609375 389.599609375 480.5 389.599609375 530.700195312 c 0
 389.599609375 595 349.700195312 621 306.5 621 c 0
EndSplineSet
Comment: "RI(166)"
EndChar

StartChar: three.Italic.3
Encoding: 66482 -1 85
Width: 0
VWidth: 0
Flags: H
LayerCount: 2
Fore
SplineSet
327 621 m 0
 302 621 233 609 221 545 c 0
 217 526 208 493 174 493 c 0
 151 493 145 513 148 527 c 0
 154 560 213 656 354 656 c 0
 404 656 434 639 451 617 c 0
 470 592 472 568 466 538 c 0
 456 485 426 444 339 405 c 1
 340 403 l 1
 395 393 465 354 444 245 c 0
 418 113 302 36 188 36 c 0
 130 36 54 63 62 103 c 0
 65 119 90 138 110 138 c 0
 129 138 139 126 146 112 c 0
 154 94 158 71 207 71 c 0
 241 71 331 98 357 231 c 0
 379 344 311 360 256 360 c 0
 244 360 227 360 210 358 c 1
 211 390 l 1
 309 404 379.900390625 481 390 531 c 0
 402.900390625 595 368 621 327 621 c 0
EndSplineSet
Comment: "RI(144 142), aSI(144 143 142)"
EndChar

StartChar: three.Italic.4
Encoding: 66483 -1 86
Width: 0
VWidth: 0
Flags: H
LayerCount: 2
Fore
SplineSet
95 129 m 0
 141 129 115 65 196 65 c 0
 259 65 358 141 358 259 c 0
 358 335 297 348 250 348 c 0
 240 348 230 346 218 344 c 1
 219 374 l 1
 289 385 380 457 380 529 c 0
 380 572 349 593 313 593 c 0
 289 593 221 579 209 518 c 0
 206 500 193 469 167 469 c 0
 147 469 144 486 144 495 c 0
 144 525 195 624 339 624 c 0
 423 624 447 578 447 540 c 0
 447 502 433 449 331 391 c 1
 379 384 434 351 434 274 c 0
 434 162 337 34 178 34 c 0
 124 34 54 57 54 92 c 0
 54 111 76 129 95 129 c 0
EndSplineSet
Comment: "ISc(108 107 105 103 102 97 95 94 90), It(108 105 103 102 97 96 90 89 88 79 78 76 62 61 41), RI(130 127 125 121 118 116 115 114 111), aSI(140 139 132 126 122 120 117 115)"
EndChar

StartChar: three.Italic.5
Encoding: 66484 -1 87
Width: 0
VWidth: 0
Flags: H
LayerCount: 2
Fore
SplineSet
95 157 m 0
 141 157 115 93 196 93 c 0
 259 93 358 169 358 287 c 0
 358 363 297 376 250 376 c 0
 240 376 230 374 218 372 c 1
 219 402 l 1
 289 413 380 485 380 557 c 0
 380 600 349 621 313 621 c 0
 289 621 221 607 209 546 c 0
 206 528 193 497 167 497 c 0
 147 497 144 514 144 523 c 0
 144 553 195 652 339 652 c 0
 423 652 447 606 447 568 c 0
 447 530 433 477 331 419 c 1
 379 412 434 379 434 302 c 0
 434 190 337 62 178 62 c 0
 124 62 54 85 54 120 c 0
 54 139 76 157 95 157 c 0
EndSplineSet
Comment: "It(35)"
EndChar

StartChar: three.Italic.6
Encoding: 66485 -1 88
Width: 0
VWidth: 0
Flags: H
LayerCount: 2
Fore
SplineSet
322.75390625 547.55859375 m 0
 297.8515625 547.55859375 221.19140625 533.3984375 209.47265625 472.36328125 c 0
 205.915039062 453.834960938 193.359375 423.53515625 166.50390625 423.53515625 c 0
 146.9375 423.53515625 144.119140625 440.00390625 144.119140625 449.092773438 c 0
 144.119140625 452.025390625 144.412109375 454.189453125 144.53125 454.78515625 c 0
 150.87890625 486.5234375 208.984375 578.3203125 348.14453125 578.3203125 c 0
 431.8046875 578.3203125 456.233398438 532.6171875 456.233398438 494.047851562 c 0
 456.233398438 488.044921875 455.642578125 482.21484375 454.58984375 476.7578125 c 0
 449.70703125 451.85546875 432.12890625 402.5390625 330.56640625 345.41015625 c 1
 378.747070312 337.735351562 434.374023438 305.115234375 434.374023438 228.041015625 c 0
 434.374023438 216.8515625 433.202148438 204.724609375 430.6640625 191.6015625 c 0
 404.78515625 59.27734375 291.50390625 -12.01171875 178.22265625 -12.01171875 c 0
 124.18359375 -12.01171875 53.69921875 11.099609375 53.69921875 46.298828125 c 0
 53.69921875 47.9931640625 53.8623046875 49.71484375 54.19921875 51.46484375 c 0
 57.12890625 66.11328125 75.1953125 83.69140625 95.21484375 83.69140625 c 0
 113.76953125 83.69140625 121.047851562 73.4150390625 127.44140625 60.25390625 c 0
 135.7421875 43.1640625 148.4375 18.75 196.2890625 18.75 c 0
 229.00390625 18.75 330.078125 51.953125 354.4921875 177.9296875 c 0
 356.947265625 190.790039062 358.079101562 202.348632812 358.079101562 212.732421875 c 0
 358.079101562 289.088867188 296.850585938 301.953125 250 301.953125 c 0
 240.234375 301.953125 229.98046875 300.48828125 218.26171875 298.046875 c 1
 219.23828125 327.83203125 l 1
 299.31640625 341.015625 377.921875 415.723632812 387.20703125 462.59765625 c 0
 388.646484375 469.86328125 389.322265625 476.662109375 389.322265625 482.99609375 c 0
 389.322265625 526.040039062 358.083007812 547.55859375 322.75390625 547.55859375 c 0
EndSplineSet
Comment: "It(4)"
EndChar

StartChar: three.Slant.1
Encoding: 66496 -1 89
Width: 0
VWidth: 0
Flags: H
LayerCount: 2
Fore
SplineSet
337.219726562 621 m 1
 311.219726562 621 239.668945312 609 226.06640625 545 c 0
 222.028320312 526 211.013671875 493 176.013671875 493 c 0
 152.013671875 493 146.264648438 513 149.240234375 527 c 0
 156.254882812 560 218.66015625 656 365.66015625 656 c 0
 417.9609375 656 449.268554688 639.099609375 466.37109375 617 c 0
 485.44140625 592.400390625 487.333984375 567.900390625 480.958007812 537.900390625 c 0
 469.755859375 485.200195312 437.813476562 443.599609375 347.30859375 405 c 1
 347.883789062 403 l 1
 404.7578125 393 478.46875 354 455.299804688 245 c 0
 427.2421875 113 304.875 36 185.875 36 c 0
 125.875 36 47.6142578125 63 56.1171875 103 c 0
 59.517578125 119 84.556640625 138 105.556640625 138 c 0
 125.556640625 138 136.005859375 126 143.029296875 112 c 0
 151.204101562 94 155.314453125 71 206.314453125 71 c 0
 241.314453125 71 336.053710938 98 364.32421875 231 c 0
 388.342773438 344 317.744140625 360 260.744140625 360 c 0
 247.744140625 360 229.744140625 360 212.318359375 358 c 1
 214.120117188 390 l 1
 316.21875 404.099609375 390.45703125 480.5 401.126953125 530.700195312 c 0
 414.794921875 595 380.420898438 621 337.220703125 621 c 1
 337.219726562 621 l 1
EndSplineSet
Comment: "aRL(154 153 151 150 148)"
EndChar

StartChar: three.Slant.2
Encoding: 66497 -1 90
Width: 0
VWidth: 0
Flags: H
LayerCount: 2
Fore
SplineSet
337.219726562 621 m 1
 311.219726562 621 239.668945312 609 226.06640625 545 c 0
 222.028320312 526 211.013671875 493 176.013671875 493 c 0
 152.013671875 493 146.264648438 513 149.240234375 527 c 0
 156.254882812 560 218.66015625 656 365.66015625 656 c 0
 417.9609375 656 449.268554688 639.099609375 466.37109375 617 c 0
 485.44140625 592.400390625 487.234375 567.900390625 480.857421875 537.900390625 c 0
 469.65625 485.200195312 437.813476562 443.599609375 347.30859375 405 c 1
 347.883789062 403 l 1
 404.7578125 393 478.46875 354 455.299804688 245 c 0
 427.2421875 113 304.874023438 36 185.874023438 36 c 0
 125.874023438 36 47.61328125 63 56.1162109375 103 c 0
 59.5166015625 119 84.5556640625 138 105.555664062 138 c 0
 125.555664062 138 136.004882812 126 143.028320312 112 c 0
 151.203125 94 155.313476562 71 206.313476562 71 c 0
 241.313476562 71 336.052734375 98 364.32421875 231 c 0
 388.342773438 344 317.744140625 360 260.744140625 360 c 0
 247.744140625 360 229.744140625 360 212.318359375 358 c 1
 214.120117188 390 l 1
 316.217773438 404.099609375 390.45703125 480.5 401.126953125 530.700195312 c 0
 414.794921875 595 380.420898438 621 337.220703125 621 c 1
 337.219726562 621 l 1
EndSplineSet
Comment: "aRL(147 144)"
EndChar

StartChar: three.Slant.3
Encoding: 66498 -1 91
Width: 0
VWidth: 0
Flags: H
LayerCount: 2
Fore
SplineSet
337.219726562 621 m 0
 311.219726562 621 239.668945312 609 226.065429688 545 c 0
 222.02734375 526 211.012695312 493 176.012695312 493 c 0
 152.012695312 493 146.263671875 513 149.239257812 527 c 0
 156.25390625 560 218.659179688 656 365.659179688 656 c 0
 417.958984375 656 449.267578125 639.099609375 466.370117188 617 c 0
 485.440429688 592.400390625 487.233398438 567.900390625 480.856445312 537.900390625 c 0
 469.655273438 485.200195312 437.811523438 443.599609375 347.307617188 405 c 1
 347.8828125 403 l 1
 404.756835938 393 478.467773438 354 455.298828125 245 c 0
 427.241210938 113 304.874023438 36 185.874023438 36 c 0
 125.874023438 36 47.61328125 63 56.115234375 103 c 0
 59.5166015625 119 84.5556640625 138 105.555664062 138 c 0
 125.555664062 138 136.004882812 126 143.02734375 112 c 0
 151.203125 94 155.3125 71 206.3125 71 c 0
 241.3125 71 336.052734375 98 364.323242188 231 c 0
 388.341796875 344 317.743164062 360 260.743164062 360 c 0
 247.743164062 360 229.743164062 360 212.31640625 358 c 1
 214.119140625 390 l 1
 316.216796875 404.099609375 390.456054688 480.5 401.125976562 530.700195312 c 0
 414.793945312 595 380.419921875 621 337.219726562 621 c 0
EndSplineSet
Comment: "aRL(143 142 140 139)"
EndChar

StartChar: three.Slant.4
Encoding: 66499 -1 92
Width: 0
VWidth: 0
Flags: H
LayerCount: 2
Fore
SplineSet
341.432617188 622 m 0
 315.432617188 622 243.668945312 609 230.065429688 545 c 0
 226.02734375 526 209.012695312 493 180.012695312 493 c 0
 156.012695312 493 150.263671875 513 153.239257812 527 c 0
 160.25390625 560 222.872070312 657 369.872070312 657 c 0
 471.872070312 657 496.055664062 592 487.12890625 550 c 0
 479.901367188 516 465.124023438 470 357.370117188 410 c 1
 357.9453125 408 l 1
 414.8203125 398 483.10546875 357 459.936523438 248 c 0
 431.87890625 116 308.662109375 35 189.662109375 35 c 0
 129.662109375 35 51.4013671875 62 59.9033203125 102 c 0
 63.3037109375 118 88.3427734375 137 109.342773438 137 c 0
 129.342773438 137 139.791992188 125 146.815429688 111 c 0
 154.989257812 93 159.1015625 70 210.1015625 70 c 0
 245.1015625 70 340.689453125 101 368.9609375 234 c 0
 392.978515625 347 327.805664062 365 270.805664062 365 c 0
 257.805664062 365 244.805664062 365 227.380859375 363 c 1
 229.182617188 395 l 1
 322.157226562 409 396.5234375 486 406.939453125 535 c 0
 420.119140625 597 385.432617188 622 341.432617188 622 c 0
EndSplineSet
Comment: "aRL(132 126 122 120)"
EndChar

StartChar: three.Slant.5
Encoding: 66500 -1 93
Width: 0
VWidth: 0
Flags: H
LayerCount: 2
Fore
SplineSet
322.84375 591 m 2
 297.84375 591 230.29296875 579 217.327148438 518 c 0
 213.500976562 500 196.911132812 469 169.911132812 469 c 0
 146.911132812 469 141.950195312 488 144.712890625 501 c 0
 151.302734375 532 210.857421875 624 349.857421875 624 c 0
 446.857421875 624 469.891601562 563 461.389648438 523 c 0
 454.587890625 491 440.447265625 448 338.33203125 391 c 1
 338.907226562 389 l 1
 392.830078125 379.700195312 457.576171875 340.400390625 435.598632812 237 c 0
 409.028320312 112 292.874023438 36 179.874023438 36 c 0
 122.874023438 36 48.189453125 61 56.265625 99 c 0
 59.4541015625 114 83.2802734375 132 103.280273438 132 c 0
 122.280273438 132 132.94140625 121 139.1796875 108 c 0
 146.565429688 91 150.889648438 69 198.889648438 69 c 0
 231.889648438 69 322.053710938 98 348.834960938 224 c 0
 371.578125 331 310.192382812 348 256.192382812 348 c 0
 244.192382812 348 231.192382812 348 214.767578125 346 c 1
 217.14453125 376 l 1
 304.907226562 389 375.63671875 463 385.4140625 509 c 0
 397.954101562 568 364.844726562 591 322.844726562 591 c 2
 322.84375 591 l 2
EndSplineSet
Comment: "Sl(108 107 105 103 102 97 89 88), aRL(117 115)"
EndChar

StartChar: three.Slant.6
Encoding: 66501 -1 94
Width: 0
VWidth: 0
Flags: H
LayerCount: 2
Fore
SplineSet
323.268554688 593 m 2
 298.268554688 593 227.29296875 579 214.327148438 518 c 0
 210.500976562 500 196.911132812 469 169.911132812 469 c 0
 146.911132812 469 141.950195312 488 144.712890625 501 c 0
 151.302734375 532 210.857421875 624 349.857421875 624 c 0
 446.857421875 624 469.891601562 563 461.389648438 523 c 0
 454.587890625 491 440.447265625 448 338.33203125 391 c 1
 338.907226562 389 l 1
 392.830078125 379.700195312 457.576171875 340.400390625 435.598632812 237 c 0
 409.028320312 112 292.874023438 36 179.874023438 36 c 0
 122.874023438 36 48.189453125 61 56.265625 99 c 0
 59.4541015625 114 83.2802734375 132 103.280273438 132 c 0
 122.280273438 132 128.94140625 121 135.1796875 108 c 0
 142.565429688 91 150.46484375 67 198.46484375 67 c 0
 231.46484375 67 326.053710938 98 352.834960938 224 c 0
 375.578125 331 310.192382812 348 256.192382812 348 c 0
 244.192382812 348 231.192382812 348 214.767578125 346 c 1
 217.14453125 376 l 1
 304.907226562 389 379.63671875 463 389.4140625 509 c 0
 401.954101562 568 365.26953125 593 323.26953125 593 c 2
 323.268554688 593 l 2
EndSplineSet
Comment: "Sl(95 94 90 79 78 76)"
EndChar

StartChar: three.Semibold.1
Encoding: 66512 -1 95
Width: 0
VWidth: 0
Flags: H
LayerCount: 2
Fore
SplineSet
234 616 m 0
 203.900390625 616 144 602 144 541 c 0
 144 521 138 486 97 486 c 0
 55 486 54 520 54 523 c 0
 54 557 95 656 253 656 c 0
 367 656 399 589 399 546 c 0
 399 522 379 448 290 410 c 1
 354 403 431 349 431 250 c 0
 431 110 323 35 197 35 c 0
 131 35 43 62 43 104 c 0
 43 121 65 141 95 141 c 0
 126 141 136 130 145 115 c 0
 155 98 177 76 210 76 c 0
 237 76 315 107 315 236 c 0
 315 345 253 361 208 361 c 0
 201 361 183 357 156 351 c 1
 150 391 l 1
 267 418 296 483 296 530 c 0
 296 587 263 616 234 616 c 0
EndSplineSet
Comment: "RZ(170 146)"
EndChar

StartChar: three.Semibold.2
Encoding: 66513 -1 96
Width: 0
VWidth: 0
Flags: H
LayerCount: 2
Fore
SplineSet
234 616 m 0
 203.799804688 616 144 602 144 541 c 0
 144 521 138 486 97 486 c 0
 55 486 54 520 54 523 c 0
 54 557 95 656 253 656 c 0
 367 656 399 589 399 546 c 0
 399 522 379 448 290 410 c 1
 354 403 431 349 431 250 c 0
 431 110 323 35 197 35 c 0
 131 35 43 62 43 104 c 0
 43 121 65 141 95 141 c 0
 126 141 136 130 145 115 c 0
 155 98 177 76 210 76 c 0
 237 76 315 107 315 236 c 0
 315 345 253 361 208 361 c 0
 201 361 183 357 156 351 c 1
 150 391 l 1
 267 418 296 483 296 530 c 0
 296 587 263 616 234 616 c 0
EndSplineSet
Comment: "RZ(166 151 150 148)"
EndChar

StartChar: three.Semibold.3
Encoding: 66514 -1 97
Width: 0
VWidth: 0
Flags: H
LayerCount: 2
Fore
SplineSet
234 616 m 0
 203.900390625 616 144 602 144 541 c 0
 144 521 138 486 97 486 c 0
 55 486 54 520 54 523 c 0
 54 557 95 656 253 656 c 0
 367 656 399 589 399 546 c 0
 399 522 379 448 290 410 c 1
 354 403 431 349 431 250 c 0
 431 110 323 35 197 35 c 0
 131 35 43 62 43 104 c 0
 43 121 65 141 95 141 c 0
 126 141 136 130 145 115 c 0
 155.099609375 98.099609375 177 76 210 76 c 0
 237 76 315 107 315 236 c 0
 315 345 253 361 208 361 c 0
 201 361 183 357 156 351 c 1
 150 391 l 1
 267 418 296 483 296 530 c 0
 296 587 263 616 234 616 c 0
EndSplineSet
Comment: "RZ(144 142)"
EndChar

StartChar: three.Semibold.4
Encoding: 66515 -1 98
Width: 0
VWidth: 0
Flags: H
LayerCount: 2
Fore
SplineSet
229 586 m 0
 209 586 147 573 147 515 c 0
 147 496 135 463 95 463 c 0
 54 463 53 495 53 498 c 0
 53 530 93 624 248 624 c 0
 360 624 391 561 391 520 c 0
 391 497 385 451 294 391 c 1
 354 376 423 333 423 239 c 0
 423 106 317 36 193 36 c 0
 128 36 42 61 42 101 c 0
 42 117 64 136 93 136 c 0
 123 136 133 125 142 111 c 0
 152 95 174 74 206 74 c 0
 232 74 309 104 309 226 c 0
 309 329 248 344 204 344 c 0
 197 344 179 341 153 335 c 1
 147 373 l 1
 223 386 287 460 287 505 c 0
 287 559 257 586 229 586 c 0
EndSplineSet
Comment: "RZ(131)"
EndChar

StartChar: three.SemiboldItalic.1
Encoding: 66528 -1 99
Width: 0
VWidth: 0
Flags: H
LayerCount: 2
Fore
SplineSet
335 616 m 0
 306 616 246 602 234 541 c 0
 230 521 217 486 178 486 c 0
 147.799804688 486 143.299804688 505.299804688 143.299804688 516.099609375 c 0
 143.299804688 519.599609375 143.799804688 522.299804688 144 523 c 0
 151 557 209 656 361 656 c 0
 455.200195312 656 480.799804688 606 480.799804688 564.599609375 c 0
 480.799804688 558.099609375 480.099609375 551.799804688 479 546 c 0
 474 522 441 448 348 410 c 1
 400.700195312 403.900390625 456.400390625 361.5 456.400390625 284.299804688 c 0
 456.400390625 273.5 455.299804688 262.099609375 453 250 c 0
 426 110 307 35 186 35 c 0
 126 35 51.400390625 59.5 51.400390625 98.099609375 c 0
 51.400390625 100 51.599609375 102 52 104 c 0
 55 121 80 141 109 141 c 0
 139 141 146 130 152 115 c 0
 158 98 175 76 207 76 c 0
 233 76 313 107 338 236 c 0
 341.099609375 252.299804688 342.599609375 266.5 342.599609375 278.900390625 c 0
 342.599609375 349.400390625 296.599609375 361 260 361 c 0
 253 361 235 357 208 351 c 1
 210 391 l 1
 328 418 368 483 377 530 c 0
 378.799804688 539.400390625 379.700195312 548.099609375 379.700195312 556 c 0
 379.700195312 595.799804688 358.400390625 616 335 616 c 0
EndSplineSet
Comment: "RZI(170 166 151 150 148 146), aSZI(154 153 151 150 148 147)"
EndChar

StartChar: three.SemiboldItalic.2
Encoding: 66529 -1 100
Width: 0
VWidth: 0
Flags: H
LayerCount: 2
Fore
SplineSet
335 616 m 0
 306 616 246.200195312 602 234 541 c 0
 230 521 217 486 178 486 c 0
 147.799804688 486 143.299804688 505.299804688 143.299804688 516.099609375 c 0
 143.299804688 519.599609375 143.799804688 522.299804688 144 523 c 0
 151 557 209 656 361 656 c 0
 455.200195312 656 480.799804688 606 480.799804688 564.599609375 c 0
 480.799804688 558.099609375 480.099609375 551.799804688 479 546 c 0
 474 522 441 448 348 410 c 1
 400.700195312 403.900390625 456.400390625 361.5 456.400390625 284.299804688 c 0
 456.400390625 273.5 455.299804688 262.099609375 453 250 c 0
 426 110 307 35 186 35 c 0
 126 35 51.400390625 59.5 51.400390625 98.099609375 c 0
 51.400390625 100 51.599609375 102 52 104 c 0
 55 121 80 141 109 141 c 0
 139 141 146 130 152 115 c 0
 158 98 175 76 207 76 c 0
 233 76 313 107 338 236 c 0
 341.099609375 252.299804688 342.599609375 266.5 342.599609375 278.900390625 c 0
 342.599609375 349.400390625 296.599609375 361 260 361 c 0
 253 361 235 357 208 351 c 1
 210 391 l 1
 328 418 368 483 377 530 c 0
 378.799804688 539.400390625 379.700195312 548.099609375 379.700195312 556 c 0
 379.700195312 595.799804688 358.400390625 616 335 616 c 0
EndSplineSet
Comment: "RZI(144 142), aSZI(144 143 142)"
EndChar

StartChar: three.SemiboldItalic.3
Encoding: 66530 -1 101
Width: 0
VWidth: 0
Flags: H
LayerCount: 2
Fore
SplineSet
347 588 m 0
 328 588 263 574 251 517 c 0
 247 497 230 464 190 464 c 0
 158 464 153 485 153 495 c 0
 153 497 154 499 154 500 c 0
 160 532 220 626 374 626 c 0
 472 626 500 578 500 538 c 0
 500 532 500 526 499 521 c 0
 494 498 476 452 373 392 c 1
 423 379 477 344 477 273 c 0
 477 262 476 251 474 239 c 0
 446 106 323 34 199 34 c 0
 137 34 62 58 62 95 c 2
 62 101 l 2
 65 117 91 136 120 136 c 0
 149 136 156.900390625 125 163 111 c 0
 170 95 188 72 219 72 c 0
 246 72 329 104 354 226 c 0
 357 241 358 254 358 265 c 0
 358 333 310 344 273 344 c 0
 266 344 247 341 220 335 c 1
 222 375 l 1
 301 388 380 462 389 507 c 0
 391 516 392 524 392 532 c 0
 392 569 371 588 347 588 c 0
EndSplineSet
Comment: "aSZI(140 139 132)"
EndChar

StartChar: three.SemiBoldSlant.1
Encoding: 66544 -1 102
Width: 0
VWidth: 0
Flags: H
LayerCount: 2
Fore
SplineSet
355.157226562 616 m 2
 324.95703125 616 262.181640625 602 249.215820312 541 c 0
 244.96484375 521 231.524414062 486 190.524414062 486 c 0
 148.524414062 486 154.751953125 520 155.389648438 523 c 0
 162.616210938 557 224.659179688 656 382.66015625 656 c 0
 496.66015625 656 514.418945312 589 505.278320312 546 c 0
 500.176757812 522 464.447265625 448 367.37109375 410 c 1
 429.883789062 403 495.405273438 349 474.361328125 250 c 0
 444.603515625 110 320.663085938 35 194.663085938 35 c 0
 128.663085938 35 46.4013671875 62 55.3291015625 104 c 0
 58.9423828125 121 85.1943359375 141 115.194335938 141 c 0
 146.194335938 141 153.85546875 130 159.666992188 115 c 0
 166.053710938 98 183.377929688 76 216.377929688 76 c 0
 243.377929688 76 327.966796875 107 355.38671875 236 c 0
 378.555664062 345 319.956054688 361 274.956054688 361 c 0
 267.956054688 361 249.106445312 357 220.831054688 351 c 1
 223.333007812 391 l 1
 346.072265625 418 388.888671875 483 398.877929688 530 c 0
 410.994140625 587 384.158203125 616 355.158203125 616 c 2
 355.157226562 616 l 2
EndSplineSet
Comment: "aZL(154 153 151 150 148)"
EndChar

StartChar: three.SemiBoldSlant.2
Encoding: 66545 -1 103
Width: 0
VWidth: 0
Flags: H
LayerCount: 2
Fore
SplineSet
355.157226562 616 m 2
 325.057617188 616 262.181640625 602 249.215820312 541 c 0
 244.96484375 521 231.524414062 486 190.524414062 486 c 0
 148.524414062 486 154.751953125 520 155.389648438 523 c 0
 162.616210938 557 224.659179688 656 382.66015625 656 c 0
 496.66015625 656 514.418945312 589 505.278320312 546 c 0
 500.176757812 522 464.447265625 448 367.37109375 410 c 1
 429.883789062 403 495.405273438 349 474.361328125 250 c 0
 444.603515625 110 320.663085938 35 194.663085938 35 c 0
 128.663085938 35 46.4013671875 62 55.3291015625 104 c 0
 58.9423828125 121 85.1943359375 141 115.194335938 141 c 0
 146.194335938 141 153.85546875 130 159.666992188 115 c 0
 166.053710938 98 183.377929688 76 216.377929688 76 c 0
 243.377929688 76 327.966796875 107 355.38671875 236 c 0
 378.555664062 345 319.956054688 361 274.956054688 361 c 0
 267.956054688 361 249.106445312 357 220.831054688 351 c 1
 223.333007812 391 l 1
 346.072265625 418 388.888671875 483 398.877929688 530 c 0
 410.994140625 587 384.158203125 616 355.158203125 616 c 2
 355.157226562 616 l 2
EndSplineSet
Comment: "aZL(147)"
EndChar

StartChar: three.SemiBoldSlant.3
Encoding: 66546 -1 104
Width: 0
VWidth: 0
Flags: H
LayerCount: 2
Fore
SplineSet
355.157226562 616 m 2
 325.057617188 616 262.181640625 602 249.215820312 541 c 0
 244.96484375 521 231.524414062 486 190.524414062 486 c 0
 148.524414062 486 154.751953125 520 155.389648438 523 c 0
 162.616210938 557 224.659179688 656 382.66015625 656 c 0
 496.66015625 656 514.418945312 589 505.278320312 546 c 0
 500.176757812 522 464.447265625 448 367.37109375 410 c 1
 429.883789062 403 495.405273438 349 474.361328125 250 c 0
 444.603515625 110 320.663085938 35 194.663085938 35 c 0
 128.663085938 35 46.4013671875 62 55.3291015625 104 c 0
 58.9423828125 121 85.1943359375 141 115.194335938 141 c 0
 146.194335938 141 153.85546875 130 159.666992188 115 c 0
 166.174804688 98.099609375 183.377929688 76 216.377929688 76 c 0
 243.377929688 76 327.966796875 107 355.38671875 236 c 0
 378.555664062 345 319.956054688 361 274.956054688 361 c 0
 267.956054688 361 249.106445312 357 220.831054688 351 c 1
 223.333007812 391 l 1
 346.072265625 418 388.888671875 483 398.877929688 530 c 0
 410.994140625 587 384.158203125 616 355.158203125 616 c 2
 355.157226562 616 l 2
EndSplineSet
Comment: "aZL(144)"
EndChar

StartChar: three.SemiBoldSlant.4
Encoding: 66547 -1 105
Width: 0
VWidth: 0
Flags: H
LayerCount: 2
Fore
SplineSet
355.157226562 616 m 0
 325.057617188 616 262.181640625 602 249.215820312 541 c 0
 244.96484375 521 231.524414062 486 190.524414062 486 c 0
 148.524414062 486 154.751953125 520 155.389648438 523 c 0
 162.616210938 557 224.659179688 656 382.659179688 656 c 0
 496.659179688 656 514.41796875 589 505.278320312 546 c 0
 500.176757812 522 464.447265625 448 367.370117188 410 c 1
 429.8828125 403 495.404296875 349 474.361328125 250 c 0
 444.603515625 110 320.662109375 35 194.662109375 35 c 0
 128.662109375 35 46.4013671875 62 55.328125 104 c 0
 58.94140625 121 85.193359375 141 115.193359375 141 c 0
 146.193359375 141 153.853515625 130 159.666015625 115 c 0
 166.173828125 98.099609375 183.376953125 76 216.376953125 76 c 0
 243.376953125 76 327.965820312 107 355.385742188 236 c 0
 378.5546875 345 319.955078125 361 274.955078125 361 c 0
 267.955078125 361 249.104492188 357 220.830078125 351 c 1
 223.33203125 391 l 1
 346.071289062 418 388.88671875 483 398.876953125 530 c 0
 410.993164062 587 384.157226562 616 355.157226562 616 c 0
EndSplineSet
Comment: "aZL(143 142)"
EndChar

StartChar: three.SemiBoldSlant.5
Encoding: 66548 -1 106
Width: 0
VWidth: 0
Flags: H
LayerCount: 2
Fore
SplineSet
343.780273438 586 m 2
 323.780273438 586 259.017578125 573 246.689453125 515 c 0
 242.650390625 496 223.635742188 463 183.635742188 463 c 0
 142.635742188 463 148.438476562 495 149.075195312 498 c 0
 155.876953125 530 215.857421875 624 370.857421875 624 c 0
 482.857421875 624 500.466796875 561 491.751953125 520 c 0
 486.86328125 497 471.084960938 451 367.33203125 391 c 1
 424.143554688 376 484.00390625 333 464.0234375 239 c 0
 435.752929688 106 314.874023438 36 190.874023438 36 c 0
 125.874023438 36 45.189453125 61 53.6904296875 101 c 0
 57.091796875 117 83.1298828125 136 112.129882812 136 c 0
 142.129882812 136 149.791992188 125 155.815429688 111 c 0
 162.415039062 95 179.950195312 74 211.950195312 74 c 0
 237.950195312 74 321.327148438 104 347.259765625 226 c 0
 369.15234375 329 311.341796875 344 267.341796875 344 c 0
 260.341796875 344 241.703125 341 214.428710938 335 c 1
 216.505859375 373 l 1
 295.26953125 386 374.998046875 460 384.5625 505 c 0
 396.041015625 559 371.779296875 586 343.779296875 586 c 2
 343.780273438 586 l 2
EndSplineSet
Comment: "aZL(140 139 132)"
EndChar

StartChar: three.Bold.1
Encoding: 66560 -1 107
Width: 0
VWidth: 0
Flags: H
LayerCount: 2
Fore
SplineSet
248 614 m 0
 214 614 172.400390625 610.900390625 161 550 c 0
 155 518 143 495 99 495 c 0
 66 495 61 518 61 532 c 0
 61 545 67.5 572.299804688 89 592 c 0
 120.599609375 621 162.599609375 656 267 656 c 0
 405 656 429 589 429 545 c 0
 429 506 410.799804688 475.400390625 386.599609375 448 c 0
 371.599609375 431 351.599609375 417 336 409 c 1
 420 403 467 340 467 268 c 0
 467 211 446 165 416 129 c 0
 366 69 286 36 217 36 c 0
 168 36 115 49 79 67 c 0
 57 78 46 93 46 114 c 0
 46 131 64 157 95 157 c 0
 132 157 149 135 160 120 c 0
 173 103 194 78 233 78 c 0
 270 78 338 103 338 218 c 0
 338 338 265 353 213 353 c 0
 198 353 186 351 165 345 c 1
 159 352 157 364 157 374 c 0
 157 378 157 381 158 385 c 0
 250.5 405.900390625 310.900390625 467 310.900390625 543.099609375 c 0
 310.900390625 589.700195312 290.200195312 614 248 614 c 0
EndSplineSet
Comment: "RB(170 166 153 152), aBS(154 153)"
EndChar

StartChar: three.Bold.2
Encoding: 66562 -1 108
Width: 0
VWidth: 0
Flags: H
LayerCount: 2
Fore
SplineSet
234 616 m 0
 203.799804688 616 144 602 144 541 c 0
 144 521 138 486 97 486 c 0
 55 486 54 520 54 523 c 0
 54 557 95 656 253 656 c 0
 367 656 399 589 399 546 c 0
 399 522 379 448 290 410 c 1
 354 403 431 349 431 250 c 0
 431 110 323 35 197 35 c 0
 131 35 43 62 43 104 c 0
 43 121 65 141 95 141 c 0
 126 141 136 130 145 115 c 0
 155 98 177 76 210 76 c 0
 237 76 315 107 315 236 c 0
 315 345 253 361 208 361 c 0
 201 361 183 357 156 351 c 1
 150 391 l 1
 267 418 296 483 296 530 c 0
 296 587 263 616 234 616 c 0
EndSplineSet
Comment: "aZS(154 153 151 150 148)"
EndChar

StartChar: three.Bold.3
Encoding: 66563 -1 109
Width: 0
VWidth: 0
Flags: H
LayerCount: 2
Fore
SplineSet
248 616 m 0
 214 616 169.400390625 600.900390625 158 540 c 0
 152 508 140 479 96 479 c 0
 63 479 58 508 58 522 c 0
 58 535 63 559 81 582 c 0
 109 619 152 656 267 656 c 0
 405 656 432 579 432 535 c 0
 432 492 410 458 380 436 c 0
 363 424 357 419 336 409 c 1
 420 403 467 340 467 268 c 0
 467 211 446 165 416 129 c 0
 366 69 286 36 217 36 c 0
 168 36 115 49 79 67 c 0
 57 78 46 93 46 114 c 0
 46 131 64 157 95 157 c 0
 132 157 149 135 160 120 c 0
 173 103 194 77 233 77 c 0
 270 77 338 103 338 218 c 0
 338 338 265 353 213 353 c 0
 198 353 186 351 165 345 c 1
 159 352 157 364 157 374 c 0
 157 378 157 381 158 385 c 0
 250.5 405.900390625 313.900390625 467 313.900390625 543.099609375 c 0
 313.900390625 589.700195312 290.200195312 616 248 616 c 0
EndSplineSet
Comment: "RB(151 150 148 146 144 143 142), aBS(151 150 148 147 144 143 142)"
EndChar

StartChar: three.Bold.4
Encoding: 66564 -1 110
Width: 0
VWidth: 0
Flags: H
LayerCount: 2
Fore
SplineSet
234 616 m 0
 203.900390625 616 144 602 144 541 c 0
 144 521 138 486 97 486 c 0
 55 486 54 520 54 523 c 0
 54 557 95 656 253 656 c 0
 367 656 399 589 399 546 c 0
 399 522 379 448 290 410 c 1
 354 403 431 349 431 250 c 0
 431 110 323 35 197 35 c 0
 131 35 43 62 43 104 c 0
 43 121 65 141 95 141 c 0
 126 141 136 130 145 115 c 0
 155 98 177 76 210 76 c 0
 237 76 315 107 315 236 c 0
 315 345 253 361 208 361 c 0
 201 361 183 357 156 351 c 1
 150 391 l 1
 267 418 296 483 296 530 c 0
 296 587 263 616 234 616 c 0
EndSplineSet
Comment: "aZS(147)"
EndChar

StartChar: three.Bold.5
Encoding: 66565 -1 111
Width: 0
VWidth: 0
Flags: H
LayerCount: 2
Fore
SplineSet
234 616 m 0
 203.900390625 616 144 602 144 541 c 0
 144 521 138 486 97 486 c 0
 55 486 54 520 54 523 c 0
 54 557 95 656 253 656 c 0
 367 656 399 589 399 546 c 0
 399 522 379 448 290 410 c 1
 354 403 431 349 431 250 c 0
 431 110 323 35 197 35 c 0
 131 35 43 62 43 104 c 0
 43 121 65 141 95 141 c 0
 126 141 136 130 145 115 c 0
 155.099609375 98.099609375 177 76 210 76 c 0
 237 76 315 107 315 236 c 0
 315 345 253 361 208 361 c 0
 201 361 183 357 156 351 c 1
 150 391 l 1
 267 418 296 483 296 530 c 0
 296 587 263 616 234 616 c 0
EndSplineSet
Comment: "aZS(144 143 142)"
EndChar

StartChar: three.Bold.6
Encoding: 66566 -1 112
Width: 0
VWidth: 0
Flags: H
LayerCount: 2
Fore
SplineSet
229 586 m 0
 209 586 147 573 147 515 c 0
 147 496 135 463 95 463 c 0
 54 463 53 495 53 498 c 0
 53 530 93 624 248 624 c 0
 360 624 391 561 391 520 c 0
 391 497 385 451 294 391 c 1
 354 376 423 333 423 239 c 0
 423 106 317 36 193 36 c 0
 128 36 42 61 42 101 c 0
 42 117 64 136 93 136 c 0
 123 136 133 125 142 111 c 0
 152 95 174 74 206 74 c 0
 232 74 309 104 309 226 c 0
 309 329 248 344 204 344 c 0
 197 344 179 341 153 335 c 1
 147 373 l 1
 223 386 287 460 287 505 c 0
 287 559 257 586 229 586 c 0
EndSplineSet
Comment: "BSc(108 107 105 103 102 97 95 94 90), Bd(108 105 103 102 99 97 90 89 88 79 78 76 75 62 61 41), RB(127 125 121 118 116 115 114 111), aBS(126 122 120 117 115), aZS(140 139 132)"
EndChar

StartChar: three.Bold.7
Encoding: 66567 -1 113
Width: 0
VWidth: 0
Flags: H
LayerCount: 2
Fore
SplineSet
248 616 m 0
 214 616 169 601 158 540 c 0
 149.900390625 495 140 479 96 479 c 0
 58 479 55 508 55 522 c 0
 55 535 58 559 76 582 c 0
 104 619 152 656 267 656 c 0
 405 656 432 579 432 535 c 0
 432 492 410 458 380 436 c 0
 363 424 357 419 336 409 c 1
 420 403 467 340 467 268 c 0
 467 211 446 165 416 129 c 0
 366 69 286 36 217 36 c 0
 168 36 115 46 79 64 c 0
 57 75 45 90 45 111 c 0
 45 128 59 157 95 157 c 0
 132 157 154 135 165 120 c 0
 178 103 194 77 233 77 c 0
 270 77 338 103 338 218 c 0
 338 338 265 353 213 353 c 0
 198 353 186 351 165 345 c 1
 159 352 157 364 157 374 c 0
 157 378 157 381 158 385 c 0
 250.5 405.900390625 313.900390625 467 313.900390625 543.099609375 c 0
 313.900390625 589.700195312 290.200195312 616 248 616 c 0
EndSplineSet
Comment: "RB(139), aBS(140 139)"
EndChar

StartChar: three.Bold.8
Encoding: 66568 -1 114
Width: 0
VWidth: 0
Flags: H
LayerCount: 2
Fore
SplineSet
253 616 m 0
 229 616 178.900390625 601 168 540 c 0
 160 495 140 479 96 479 c 0
 57.900390625 479 55 508 55 522 c 0
 55 535.299804688 58.2998046875 558.5 76 582 c 0
 103.700195312 618.799804688 161.700195312 656 277 656 c 0
 415 656 452 579 452 535 c 0
 452 492 430 458 400 436 c 0
 383 423.5 364 414 333 404 c 1
 406 388 493 352 493 252 c 0
 493 110 370 36 219 36 c 0
 169.700195312 36 112.299804688 45.599609375 76 63.900390625 c 0
 54.099609375 75 42 89.900390625 42 111 c 0
 42 128 56 157 92 157 c 0
 129 157 151 135 162 120 c 0
 175 103 196 77 235 77 c 0
 267 77 352 108 352 238 c 0
 352 348 277 353 223 353 c 0
 208 353 196 351 175 345 c 1
 167 355 165.900390625 372.599609375 168 385 c 1
 252 404 324 471 324 519 c 0
 324 577 287 616 253 616 c 0
EndSplineSet
Comment: "RB(130), aBS(132)"
EndChar

StartChar: three.Bold.9
Encoding: 66569 -1 115
Width: 0
VWidth: 0
Flags: H
LayerCount: 2
Fore
SplineSet
229 614 m 0
 209 614 147 601 147 543 c 0
 147 524 137 491 97 491 c 0
 56 491 53 523 53 526 c 0
 53 558 93 652 248 652 c 0
 360 652 391 589 391 548 c 0
 391 525 385 479 294 419 c 1
 354 404 423 361 423 267 c 0
 423 134 317 62 193 62 c 0
 128 62 42 89 42 129 c 0
 42 145 64 164 93 164 c 0
 123 164 133 153 142 139 c 0
 152 123 174 100 206 100 c 0
 232 100 309 132 309 254 c 0
 309 357 248 372 204 372 c 0
 197 372 179 369 153 363 c 1
 147 401 l 1
 223 414 287 488 287 533 c 0
 287 587 257 614 229 614 c 0
EndSplineSet
Comment: "Bd(35)"
EndChar

StartChar: three.Bold.10
Encoding: 66561 -1 116
Width: 0
VWidth: 0
Flags: H
LayerCount: 2
Fore
SplineSet
228.515625 540.234375 m 0
 208.984375 540.234375 146.97265625 527.05078125 146.97265625 469.43359375 c 0
 146.97265625 449.90234375 136.71875 417.1875 97.16796875 417.1875 c 0
 56.15234375 417.1875 53.22265625 449.4140625 53.22265625 452.34375 c 0
 53.22265625 484.5703125 93.26171875 578.3203125 248.046875 578.3203125 c 0
 360.3515625 578.3203125 391.11328125 515.33203125 391.11328125 473.828125 c 0
 391.11328125 450.87890625 385.25390625 404.98046875 293.9453125 344.921875 c 1
 354.4921875 330.2734375 422.8515625 287.3046875 422.8515625 193.5546875 c 0
 422.8515625 60.25390625 316.89453125 -12.01171875 193.359375 -12.01171875 c 0
 127.9296875 -12.01171875 42.48046875 14.84375 42.48046875 54.8828125 c 0
 42.48046875 70.99609375 63.96484375 90.52734375 92.7734375 90.52734375 c 0
 122.55859375 90.52734375 132.8125 79.296875 141.6015625 65.625 c 0
 151.9296875 49.5595703125 174.31640625 26.07421875 205.56640625 26.07421875 c 0
 231.93359375 26.07421875 309.08203125 58.30078125 309.08203125 179.8828125 c 0
 309.08203125 282.91015625 247.55859375 298.53515625 204.1015625 298.53515625 c 0
 197.265625 298.53515625 178.7109375 295.1171875 152.83203125 289.2578125 c 1
 146.97265625 327.34375 l 1
 223.14453125 340.52734375 287.109375 414.2578125 287.109375 459.66796875 c 0
 287.109375 513.37890625 257.32421875 540.234375 228.515625 540.234375 c 0
EndSplineSet
Comment: "Bd(4)"
EndChar

StartChar: three.BoldItalic.1
Encoding: 66576 -1 117
Width: 0
VWidth: 0
Flags: H
LayerCount: 2
Fore
SplineSet
324.900390625 596 m 0
 292.900390625 596 261.5 591 252.099609375 551 c 0
 244.299804688 517.599609375 229.599609375 480 192.5 480 c 0
 169.700195312 480 147.5 494 147.5 520 c 0
 147.5 546.099609375 169.099609375 567.900390625 199.5 590.5 c 0
 236.5 618 292 656 365.299804688 656 c 0
 472.700195312 656 511.299804688 581.200195312 511.299804688 538.099609375 c 0
 511.299804688 468.599609375 472 432 398.599609375 393 c 1
 399.200195312 389.599609375 l 1
 464.599609375 367 499 319.299804688 499 263 c 0
 499 187.400390625 466.5 146.599609375 426.5 106.5 c 0
 366.700195312 46.5 284.400390625 36 219.5 36 c 0
 173.400390625 36 113.299804688 51 83.2998046875 69 c 0
 68.5 77.900390625 61 89.400390625 61 104.5 c 0
 61 129.900390625 79.2001953125 157 112.5 157 c 0
 147.299804688 157 161.5 135 168.700195312 120 c 0
 177.299804688 103 206.5 78 243.200195312 78 c 0
 265.200195312 78 304 85.400390625 333.599609375 122 c 0
 355.400390625 149 370.599609375 171.299804688 370.599609375 228 c 0
 370.599609375 303.900390625 311.400390625 337 270.099609375 337 c 0
 256 337 239.599609375 337 220.299804688 335 c 1
 214.400390625 344.900390625 220.900390625 365.299804688 225.200195312 375 c 1
 257.599609375 379 289.200195312 386.099609375 318.299804688 400.299804688 c 0
 380.5 430.5 397 464.700195312 397 528 c 0
 397 566 363.5 596 324.900390625 596 c 0
EndSplineSet
Comment: "RBI(170)"
EndChar

StartChar: three.BoldItalic.2
Encoding: 66577 -1 118
Width: 0
VWidth: 0
Flags: H
LayerCount: 2
Fore
SplineSet
358.900390625 616 m 0
 326.900390625 616 281.799804688 611.900390625 258.099609375 551 c 0
 245.700195312 519 228.299804688 490 186.900390625 490 c 0
 164.099609375 490 156.799804688 506.599609375 156.799804688 520.5 c 0
 156.799804688 546.599609375 171.700195312 566.400390625 198.700195312 593 c 0
 233.299804688 627 291.299804688 656 385.299804688 656 c 0
 492.700195312 656 517.299804688 603.200195312 517.299804688 560.099609375 c 0
 517.299804688 501.200195312 479.599609375 462.299804688 444.700195312 436 c 0
 427.099609375 422.700195312 419.5 419 397.599609375 409 c 1
 462.400390625 404 494.599609375 359.299804688 494.599609375 302.799804688 c 0
 494.599609375 227.200195312 448.299804688 162.099609375 408.299804688 122 c 0
 348.5 62 271.400390625 36 206.5 36 c 0
 160.400390625 36 113.299804688 49 83.2998046875 67 c 0
 68.5 75.900390625 61 87.400390625 61 102.5 c 0
 61 106.099609375 61.400390625 110 62.2998046875 114 c 0
 65.900390625 131 88.2998046875 157 117.5 157 c 0
 152.299804688 157 163.599609375 135 170.799804688 120 c 0
 179.400390625 103 193.5 77 230.200195312 77 c 0
 252.200195312 77 288 87.400390625 317.599609375 124 c 0
 339.400390625 151 364.599609375 209.700195312 364.599609375 266.400390625 c 0
 364.599609375 342.299804688 311.400390625 353 270.099609375 353 c 0
 256 353 244.299804688 351 223.299804688 345 c 1
 217.400390625 354.900390625 220.900390625 375.299804688 225.200195312 385 c 1
 259.5 392.900390625 291.299804688 406.400390625 318.299804688 424.299804688 c 0
 366.799804688 456.299804688 408.099609375 504 408.099609375 567.299804688 c 0
 408.099609375 598.700195312 391.099609375 616 358.900390625 616 c 0
EndSplineSet
Comment: "RBI(166 153 152), aSBI(154 153)"
EndChar

StartChar: three.BoldItalic.3
Encoding: 66578 -1 119
Width: 0
VWidth: 0
Flags: H
LayerCount: 2
Fore
SplineSet
358.900390625 616 m 0
 326.900390625 616 281.799804688 600.900390625 258.099609375 540 c 0
 245.700195312 508 228.299804688 479 186.900390625 479 c 0
 155.900390625 479 157.299804688 508 160.299804688 522 c 0
 163.099609375 535 172.900390625 559 194.700195312 582 c 0
 228.900390625 619 277.200195312 656 385.299804688 656 c 0
 515 656 524 579 514.599609375 535 c 0
 505.5 492 477.599609375 458 444.700195312 436 c 0
 426.200195312 424 419.5 419 397.599609375 409 c 1
 475.299804688 403 506.099609375 340 490.799804688 268 c 0
 478.700195312 211 449.200195312 165 413.299804688 129 c 0
 353.5 69 271.400390625 36 206.5 36 c 0
 160.400390625 36 113.299804688 49 83.2998046875 67 c 0
 65 78 57.7998046875 93 62.2998046875 114 c 0
 65.900390625 131 88.2998046875 157 117.5 157 c 0
 152.299804688 157 163.599609375 135 170.799804688 120 c 0
 179.400390625 103 193.5 77 230.200195312 77 c 0
 265 77 334.5 103 358.900390625 218 c 0
 384.400390625 338 319 353 270.099609375 353 c 0
 256 353 244.299804688 351 223.299804688 345 c 1
 219.099609375 352 219.799804688 364 221.900390625 374 c 0
 222.700195312 378 223.400390625 381 225.200195312 385 c 0
 316.599609375 405.900390625 389.099609375 467 405.299804688 543.099609375 c 0
 415.200195312 589.700195312 398.599609375 616 358.900390625 616 c 0
EndSplineSet
Comment: "RBI(151 150 148 146), aSBI(151 150 148 147)"
EndChar

StartChar: three.BoldItalic.4
Encoding: 66579 -1 120
Width: 0
VWidth: 0
Flags: H
LayerCount: 2
Fore
SplineSet
327 621 m 0
 302 621 233 609 221 545 c 0
 217 526 208 493 174 493 c 0
 151 493 145 513 148 527 c 0
 154 560 213 656 354 656 c 0
 404 656 434 639 451 617 c 0
 470 592 472 568 466 538 c 0
 456 485 426 444 339 405 c 1
 340 403 l 1
 395 393 465 354 444 245 c 0
 418 113 302 36 188 36 c 0
 130 36 54 63 62 103 c 0
 65 119 90 138 110 138 c 0
 129 138 139 126 146 112 c 0
 154 94 158 71 207 71 c 0
 241 71 331 98 357 231 c 0
 379 344 311 360 256 360 c 0
 244 360 227 360 210 358 c 1
 211 390 l 1
 309 404 379.900390625 481 390 531 c 0
 402.900390625 595 368 621 327 621 c 0
EndSplineSet
Comment: "RBI(144 142), aSBI(144 143 142)"
EndChar

StartChar: three.BoldItalic.5
Encoding: 66580 -1 121
Width: 0
VWidth: 0
Flags: H
LayerCount: 2
Fore
SplineSet
347 588 m 0
 328 588 263 574 251 517 c 0
 247 497 230 464 190 464 c 0
 158 464 153 485 153 495 c 0
 153 497 154 499 154 500 c 0
 160 532 220 626 374 626 c 0
 472 626 500 578 500 538 c 0
 500 532 500 526 499 521 c 0
 494 498 476 452 373 392 c 1
 423 379 477 344 477 273 c 0
 477 262 476 251 474 239 c 0
 446 106 323 34 199 34 c 0
 137 34 62 58 62 95 c 2
 62 101 l 2
 65 117 91 136 120 136 c 0
 149 136 156.900390625 125 163 111 c 0
 170 95 188 72 219 72 c 0
 246 72 329 104 354 226 c 0
 357 241 358 254 358 265 c 0
 358 333 310 344 273 344 c 0
 266 344 247 341 220 335 c 1
 222 375 l 1
 301 388 380 462 389 507 c 0
 391 516 392 524 392 532 c 0
 392 569 371 588 347 588 c 0
EndSplineSet
Comment: "BI(108 105 103 102 97 90 89 88 79 78 76), BiSc(108 107 105 103 102 97 95 94 90), RBI(130 127 125 121 118 116 115 114 111), aSBI(126 122 120 117 115)"
EndChar

StartChar: three.BoldItalic.6
Encoding: 66581 -1 122
Width: 0
VWidth: 0
Flags: H
LayerCount: 2
Fore
SplineSet
347 588 m 0
 328 588 263 574 251 517 c 0
 247 497 230 464 190 464 c 0
 158 464 153 485 153 495 c 0
 153 497 154 499 154 500 c 0
 160 532 220 626 374 626 c 0
 472 626 500 578 500 538 c 0
 500 532 500 526 499 521 c 0
 494 498 476 452 373 392 c 1
 423 379 477 344 477 273 c 0
 477 262 476 251 474 239 c 0
 446 106 323 34 199 34 c 0
 137 34 62 58 62 95 c 2
 62 101 l 2
 65 117 91 136 120 136 c 0
 149 136 157 125 163 111 c 0
 170 95 188 72 219 72 c 0
 246 72 329 104 354 226 c 0
 357 241 358 254 358 265 c 0
 358 333 310 344 273 344 c 0
 266 344 247 341 220 335 c 1
 222 375 l 1
 301 388 380 462 389 507 c 0
 391 516 392 524 392 532 c 0
 392 569 371 588 347 588 c 0
EndSplineSet
Comment: "BI(62 41)"
EndChar

StartChar: three.BoldItalic.7
Encoding: 66582 -1 123
Width: 0
VWidth: 0
Flags: H
LayerCount: 2
Fore
SplineSet
347 616 m 0
 328 616 263 602 251 545 c 0
 247 525 230 492 190 492 c 0
 158 492 153 513 153 523 c 0
 153 525 154 527 154 528 c 0
 160 560 220 654 374 654 c 0
 472 654 500 606 500 566 c 0
 500 560 500 554 499 549 c 0
 494 526 476 480 373 420 c 1
 423 407 477 372 477 301 c 0
 477 290 476 279 474 267 c 0
 446 134 323 62 199 62 c 0
 137 62 62 86 62 123 c 2
 62 129 l 2
 65 145 91 164 120 164 c 0
 149 164 157 153 163 139 c 0
 170 123 188 100 219 100 c 0
 246 100 329 132 354 254 c 0
 357 269 358 282 358 293 c 0
 358 361 310 372 273 372 c 0
 266 372 247 369 220 363 c 1
 222 403 l 1
 301 416 380 490 389 535 c 0
 391 544 392 552 392 560 c 0
 392 597 371 616 347 616 c 0
EndSplineSet
Comment: "BI(35)"
EndChar

StartChar: three.BoldItalic.8
Encoding: 66583 -1 124
Width: 0
VWidth: 0
Flags: H
LayerCount: 2
Fore
SplineSet
347.16796875 541.69921875 m 0
 327.63671875 541.69921875 262.6953125 528.515625 250.9765625 470.8984375 c 0
 247.006835938 451.379882812 229.98046875 418.65234375 190.4296875 418.65234375 c 0
 157.71484375 418.65234375 153.3203125 439.6484375 153.3203125 449.4140625 c 0
 153.3203125 451.3671875 153.80859375 453.3203125 153.80859375 453.80859375 c 0
 160.15625 486.03515625 219.7265625 579.78515625 374.0234375 579.78515625 c 0
 472.16796875 579.78515625 500.48828125 531.93359375 500.48828125 491.89453125 c 0
 500.48828125 486.03515625 500 480.6640625 499.0234375 475.29296875 c 0
 494.140625 452.34375 476.07421875 406.4453125 372.55859375 346.38671875 c 1
 422.8515625 333.69140625 477.05078125 298.046875 477.05078125 226.7578125 c 0
 477.05078125 216.50390625 475.5859375 205.2734375 473.6328125 193.5546875 c 0
 446.2890625 60.25390625 322.75390625 -12.01171875 199.21875 -12.01171875 c 0
 136.71875 -12.01171875 61.5234375 12.40234375 61.5234375 49.0234375 c 0
 61.5234375 50.9765625 61.5234375 52.9296875 62.01171875 54.8828125 c 0
 65.4296875 70.99609375 90.8203125 90.52734375 119.62890625 90.52734375 c 0
 149.4140625 90.52734375 157.2265625 79.296875 163.0859375 65.625 c 0
 170.41015625 49.51171875 187.98828125 26.07421875 219.23828125 26.07421875 c 0
 245.60546875 26.07421875 329.1015625 58.30078125 354.00390625 179.8828125 c 0
 356.93359375 195.01953125 358.3984375 207.71484375 358.3984375 219.43359375 c 0
 358.3984375 287.3046875 310.05859375 298.53515625 272.94921875 298.53515625 c 0
 266.11328125 298.53515625 247.0703125 295.1171875 219.7265625 289.2578125 c 1
 222.16796875 328.80859375 l 1
 300.78125 341.9921875 379.8828125 415.72265625 389.16015625 461.1328125 c 0
 391.11328125 469.921875 392.08984375 478.22265625 392.08984375 486.03515625 c 0
 392.08984375 523.14453125 371.09375 541.69921875 347.16796875 541.69921875 c 0
EndSplineSet
Comment: "BI(4)"
EndChar

StartChar: three.BoldSlant.1
Encoding: 66592 -1 125
Width: 0
VWidth: 0
Flags: H
LayerCount: 2
Fore
SplineSet
368.732421875 614 m 1
 334.732421875 614 292.473632812 610.900390625 268.127929688 550 c 0
 255.326171875 518 238.436523438 495 194.436523438 495 c 0
 161.436523438 495 161.326171875 518 164.301757812 532 c 0
 167.064453125 545 179.3671875 572.299804688 205.0546875 592 c 0
 242.819335938 621 292.258789062 656 396.659179688 656 c 0
 534.659179688 656 544.41796875 589 535.064453125 545 c 0
 526.775390625 506 502.071289062 475.400390625 472.046875 448 c 0
 453.43359375 431 430.45703125 417 413.157226562 409 c 1
 495.881835938 403 529.490234375 340 514.186523438 268 c 0
 502.071289062 211 471.29296875 165 433.641601562 129 c 0
 370.887695312 69 283.873046875 36 214.873046875 36 c 0
 165.873046875 36 115.63671875 49 83.462890625 67 c 0
 63.80078125 78 55.9892578125 93 60.453125 114 c 0
 64.06640625 131 87.5927734375 157 118.592773438 157 c 0
 155.592773438 157 167.916992188 135 175.728515625 120 c 0
 185.115234375 103 200.80078125 78 239.80078125 78 c 0
 276.80078125 78 350.114257812 103 374.55859375 218 c 0
 400.065429688 338 330.25390625 353 278.25390625 353 c 0
 263.25390625 353 250.829101562 351 228.553710938 345 c 1
 224.041015625 352 224.591796875 364 226.717773438 374 c 0
 227.567382812 378 228.205078125 381 230.055664062 385 c 0
 326.998046875 405.900390625 400.385742188 467 416.560546875 543.099609375 c 0
 426.465820312 589.700195312 410.930664062 614 368.731445312 614 c 1
 368.732421875 614 l 1
EndSplineSet
Comment: "aBL(154 153)"
EndChar

StartChar: three.BoldSlant.2
Encoding: 66593 -1 126
Width: 0
VWidth: 0
Flags: H
LayerCount: 2
Fore
SplineSet
369.157226562 616 m 0
 335.157226562 616 287.34765625 600.900390625 263.002929688 540 c 0
 250.201171875 508 232.037109375 479 188.037109375 479 c 0
 155.037109375 479 156.201171875 508 159.176757812 522 c 0
 161.940429688 535 172.041992188 559 194.930664062 582 c 0
 230.794921875 619 281.659179688 656 396.66015625 656 c 0
 534.66015625 656 545.293945312 579 535.940429688 535 c 0
 526.799804688 492 497.573242188 458 462.897460938 436 c 0
 443.346679688 424 436.283203125 419 413.158203125 409 c 1
 495.8828125 403 529.491210938 340 514.1875 268 c 0
 502.072265625 211 471.293945312 165 433.642578125 129 c 0
 370.888671875 69 283.873046875 36 214.873046875 36 c 0
 165.873046875 36 115.63671875 49 83.4638671875 67 c 0
 63.8017578125 78 55.990234375 93 60.4541015625 114 c 0
 64.0673828125 131 87.59375 157 118.59375 157 c 0
 155.59375 157 167.91796875 135 175.728515625 120 c 0
 185.115234375 103 200.588867188 77 239.588867188 77 c 0
 276.588867188 77 350.115234375 103 374.559570312 218 c 0
 400.06640625 338 330.254882812 353 278.254882812 353 c 0
 263.254882812 353 250.830078125 351 228.5546875 345 c 1
 224.041992188 352 224.592773438 364 226.71875 374 c 0
 227.568359375 378 228.206054688 381 230.056640625 385 c 0
 326.999023438 405.900390625 403.38671875 467 419.561523438 543.099609375 c 0
 429.466796875 589.700195312 411.357421875 616 369.157226562 616 c 0
EndSplineSet
Comment: "aBL(151 150 148 147 144)"
EndChar

StartChar: three.BoldSlant.3
Encoding: 66594 -1 127
Width: 0
VWidth: 0
Flags: H
LayerCount: 2
Fore
SplineSet
369.157226562 616 m 0
 335.157226562 616 287.34765625 600.900390625 263.002929688 540 c 0
 250.201171875 508 232.037109375 479 188.037109375 479 c 0
 155.037109375 479 156.201171875 508 159.176757812 522 c 0
 161.940429688 535 172.041992188 559 194.930664062 582 c 0
 230.794921875 619 281.659179688 656 396.659179688 656 c 0
 534.659179688 656 545.29296875 579 535.940429688 535 c 0
 526.799804688 492 497.573242188 458 462.897460938 436 c 0
 443.346679688 424 436.283203125 419 413.158203125 409 c 1
 495.8828125 403 529.491210938 340 514.188476562 268 c 0
 502.072265625 211 471.293945312 165 433.642578125 129 c 0
 370.888671875 69 283.874023438 36 214.874023438 36 c 0
 165.874023438 36 115.637695312 49 83.4638671875 67 c 0
 63.8017578125 78 55.990234375 93 60.4541015625 114 c 0
 64.0673828125 131 87.59375 157 118.59375 157 c 0
 155.59375 157 167.91796875 135 175.729492188 120 c 0
 185.115234375 103 200.588867188 77 239.588867188 77 c 0
 276.588867188 77 350.115234375 103 374.560546875 218 c 0
 400.06640625 338 330.254882812 353 278.254882812 353 c 0
 263.254882812 353 250.830078125 351 228.5546875 345 c 1
 224.041992188 352 224.592773438 364 226.71875 374 c 0
 227.568359375 378 228.206054688 381 230.056640625 385 c 0
 326.999023438 405.900390625 403.38671875 467 419.5625 543.099609375 c 0
 429.466796875 589.700195312 411.357421875 616 369.157226562 616 c 0
EndSplineSet
Comment: "aBL(143 142)"
EndChar

StartChar: three.BoldSlant.4
Encoding: 66595 -1 128
Width: 0
VWidth: 0
Flags: H
LayerCount: 2
Fore
SplineSet
369.157226562 616 m 0
 335.157226562 616 286.96875 601 263.002929688 540 c 0
 245.337890625 495 232.037109375 479 188.037109375 479 c 0
 150.037109375 479 153.201171875 508 156.176757812 522 c 0
 158.940429688 535 167.041015625 559 189.930664062 582 c 0
 225.794921875 619 281.659179688 656 396.659179688 656 c 0
 534.659179688 656 545.29296875 579 535.940429688 535 c 0
 526.799804688 492 497.573242188 458 462.897460938 436 c 0
 443.346679688 424 436.283203125 419 413.158203125 409 c 1
 495.8828125 403 529.491210938 340 514.188476562 268 c 0
 502.072265625 211 471.293945312 165 433.642578125 129 c 0
 370.888671875 69 283.874023438 36 214.874023438 36 c 0
 165.874023438 36 115 46 82.826171875 64 c 0
 63.1640625 75 54.3525390625 90 58.81640625 111 c 0
 62.4296875 128 82.59375 157 118.59375 157 c 0
 155.59375 157 172.91796875 135 180.728515625 120 c 0
 190.115234375 103 200.588867188 77 239.588867188 77 c 0
 276.588867188 77 350.115234375 103 374.559570312 218 c 0
 400.065429688 338 330.254882812 353 278.254882812 353 c 0
 263.254882812 353 250.830078125 351 228.5546875 345 c 1
 224.041992188 352 224.592773438 364 226.71875 374 c 0
 227.567382812 378 228.206054688 381 230.056640625 385 c 0
 326.999023438 405.900390625 403.38671875 467 419.561523438 543.099609375 c 0
 429.466796875 589.700195312 411.356445312 616 369.157226562 616 c 0
EndSplineSet
Comment: "aBL(140)"
EndChar

StartChar: three.BoldSlant.5
Encoding: 66596 -1 129
Width: 0
VWidth: 0
Flags: H
LayerCount: 2
Fore
SplineSet
369.157226562 616 m 0
 335.157226562 616 286.96875 601 263.002929688 540 c 0
 245.337890625 495 232.037109375 479 188.037109375 479 c 0
 150.037109375 479 153.201171875 508 156.176757812 522 c 0
 158.940429688 535 167.041992188 559 189.930664062 582 c 0
 225.794921875 619 281.659179688 656 396.659179688 656 c 0
 534.659179688 656 545.29296875 579 535.940429688 535 c 0
 526.799804688 492 497.573242188 458 462.897460938 436 c 0
 443.346679688 424 436.283203125 419 413.158203125 409 c 1
 495.8828125 403 529.491210938 340 514.188476562 268 c 0
 502.072265625 211 471.293945312 165 433.642578125 129 c 0
 370.888671875 69 283.874023438 36 214.874023438 36 c 0
 165.874023438 36 115 46 82.826171875 64 c 0
 63.1640625 75 54.3525390625 90 58.81640625 111 c 0
 62.4296875 128 82.59375 157 118.59375 157 c 0
 155.59375 157 172.91796875 135 180.728515625 120 c 0
 190.115234375 103 200.588867188 77 239.588867188 77 c 0
 276.588867188 77 350.115234375 103 374.559570312 218 c 0
 400.065429688 338 330.254882812 353 278.254882812 353 c 0
 263.254882812 353 250.830078125 351 228.5546875 345 c 1
 224.041992188 352 224.592773438 364 226.71875 374 c 0
 227.567382812 378 228.206054688 381 230.056640625 385 c 0
 326.999023438 405.900390625 403.38671875 467 419.561523438 543.099609375 c 0
 429.466796875 589.700195312 411.356445312 616 369.157226562 616 c 0
EndSplineSet
Comment: "aBL(139)"
EndChar

StartChar: three.BoldSlant.6
Encoding: 66597 -1 130
Width: 0
VWidth: 0
Flags: H
LayerCount: 2
Fore
SplineSet
374.157226562 616 m 0
 350.157226562 616 296.869140625 601 273.002929688 540 c 0
 255.438476562 495 232.037109375 479 188.037109375 479 c 0
 149.936523438 479 153.201171875 508 156.176757812 522 c 0
 159.00390625 535.299804688 167.235351562 558.5 189.930664062 582 c 0
 225.452148438 618.799804688 291.359375 656 406.659179688 656 c 0
 544.659179688 656 565.29296875 579 555.940429688 535 c 0
 546.799804688 492 517.573242188 458 482.897460938 436 c 0
 463.240234375 423.5 442.220703125 414 409.095703125 404 c 1
 478.694335938 388 558.041992188 352 536.787109375 252 c 0
 506.603515625 110 367.874023438 36 216.874023438 36 c 0
 167.57421875 36 112.21484375 45.599609375 79.8046875 63.900390625 c 0
 60.263671875 75 51.3310546875 89.900390625 55.81640625 111 c 0
 59.4296875 128 79.59375 157 115.594726562 157 c 0
 152.594726562 157 169.91796875 135 177.729492188 120 c 0
 187.115234375 103 202.588867188 77 241.588867188 77 c 0
 273.588867188 77 365.1796875 108 392.811523438 238 c 0
 416.192382812 348 342.254882812 353 288.254882812 353 c 0
 273.254882812 353 260.830078125 351 238.555664062 345 c 1
 232.680664062 355 235.321289062 372.599609375 240.057617188 385 c 1
 328.096679688 404 414.336914062 471 424.5390625 519 c 0
 436.8671875 577 408.157226562 616 374.157226562 616 c 0
EndSplineSet
Comment: "aBL(132)"
EndChar

StartChar: three.BoldSlant.7
Encoding: 66598 -1 131
Width: 0
VWidth: 0
Flags: H
LayerCount: 2
Fore
SplineSet
343.780273438 586 m 2
 323.780273438 586 259.017578125 573 246.689453125 515 c 0
 242.650390625 496 223.635742188 463 183.635742188 463 c 0
 142.635742188 463 148.438476562 495 149.075195312 498 c 0
 155.876953125 530 215.857421875 624 370.857421875 624 c 0
 482.857421875 624 500.466796875 561 491.751953125 520 c 0
 486.86328125 497 471.084960938 451 367.33203125 391 c 1
 424.143554688 376 484.00390625 333 464.0234375 239 c 0
 435.752929688 106 314.874023438 36 190.874023438 36 c 0
 125.874023438 36 45.189453125 61 53.6904296875 101 c 0
 57.091796875 117 83.1298828125 136 112.129882812 136 c 0
 142.129882812 136 149.791992188 125 155.815429688 111 c 0
 162.415039062 95 179.950195312 74 211.950195312 74 c 0
 237.950195312 74 321.327148438 104 347.259765625 226 c 0
 369.15234375 329 311.341796875 344 267.341796875 344 c 0
 260.341796875 344 241.703125 341 214.428710938 335 c 1
 216.505859375 373 l 1
 295.26953125 386 374.998046875 460 384.5625 505 c 0
 396.041015625 559 371.779296875 586 343.779296875 586 c 2
 343.780273438 586 l 2
EndSplineSet
Comment: "BSl(108 107 105 103 102 97 95 94 90 89 88 79 78 76), aBL(126 122 120 117 115)"
EndChar

StartChar: three.Outline.1
Encoding: 66608 -1 132
Width: 0
VWidth: 0
Flags: H
LayerCount: 2
Fore
SplineSet
219 631 m 0
 193 631 124 609 124 545 c 0
 124 526 114 493 85 493 c 0
 61 493 51 513 51 527 c 0
 51 560 93 656 240 656 c 0
 342 656 380 592 380 550 c 0
 380 516 375 470 280 410 c 1
 281 408 l 1
 340 398 417 357 417 248 c 0
 417 116 311 35 192 35 c 0
 132 35 48 62 48 102 c 0
 48 118 69 137 90 137 c 0
 110 137 123 125 133 111 c 0
 145 93 154 60 205 60 c 0
 240 60 335 101 335 234 c 0
 335 347 260 365 203 365 c 0
 190 365 177 365 160 363 c 1
 155 385 l 1
 245 399 309 486 309 535 c 0
 309 597 263 631 219 631 c 0
219 600 m 0
 196.799804688 600 155 578.900390625 155 545 c 0
 155 517.400390625 138.700195312 462 85 462 c 0
 33.7001953125 462 20 507 20 527 c 0
 20 574.700195312 66.2001953125 658.599609375 177.599609375 681.099609375 c 0
 200.700195312 685.799804688 221.700195312 687 240 687 c 0
 361.799804688 687 411 606.400390625 411 550 c 0
 411 514.299804688 399.900390625 467.200195312 345.700195312 419.599609375 c 1
 402.900390625 391.400390625 448 335.099609375 448 248 c 0
 448 116.200195312 355.400390625 32.2001953125 251.5 10.2001953125 c 0
 228.599609375 5.2998046875 209.299804688 4 192 4 c 0
 131 4 17 26.599609375 17 102 c 0
 17 146.299804688 60.7001953125 168 90 168 c 0
 129 168 148.400390625 142.700195312 158.5 128.599609375 c 0
 178.200195312 99 173 91 205 91 c 0
 208.400390625 91 217 93 221.700195312 94.599609375 c 0
 256 106.5 304 145 304 234 c 0
 304 328.099609375 250.700195312 334 203 334 c 0
 186.900390625 334 175.5 333.599609375 163.599609375 332.200195312 c 2
 135.900390625 329 l 1
 117.400390625 410.5 l 1
 150.200195312 415.599609375 l 2
 191.799804688 422.099609375 224.700195312 446.700195312 246.5 471.799804688 c 0
 270.700195312 499.700195312 278 524.599609375 278 535 c 0
 278 582.599609375 244.400390625 600 219 600 c 0
219 608 m 0
 247.900390625 608 286 587.5 286 535 c 0
 286 521.700195312 277.700195312 495.700195312 252.5 466.599609375 c 0
 229.900390625 440.5 195.599609375 414.599609375 151.5 407.700195312 c 2
 127.099609375 403.900390625 l 1
 142.200195312 337.700195312 l 1
 162.700195312 340.200195312 l 2
 175 341.700195312 186.799804688 342 203 342 c 0
 251.799804688 342 312 333.700195312 312 234 c 0
 312 141.700195312 261.5 99.900390625 224.299804688 87 c 0
 218.900390625 85.099609375 210.299804688 83 205 83 c 0
 168.900390625 83 170 96.900390625 151.900390625 124.099609375 c 0
 142.299804688 137.599609375 124.900390625 160 90 160 c 0
 63.2998046875 160 25 140 25 102 c 0
 25 35.900390625 129.900390625 12 192 12 c 0
 208.799804688 12 227.599609375 13.2998046875 249.799804688 18 c 0
 350.700195312 39.400390625 440 120.5 440 248 c 0
 440 335.099609375 393.5 389.299804688 336.700195312 415 c 2
 330.900390625 417.599609375 l 1
 335.799804688 421.700195312 l 2
 392.700195312 469.200195312 403 515.5 403 550 c 0
 403 601.900390625 357.700195312 679 240 679 c 0
 222.099609375 679 201.599609375 677.700195312 179.200195312 673.200195312 c 0
 71.2001953125 651.400390625 28 570.400390625 28 527 c 0
 28 509.200195312 40 470 85 470 c 0
 131.599609375 470 147 518.599609375 147 545 c 0
 147 585.700195312 194.299804688 608 219 608 c 0
EndSplineSet
Comment: "I(170 146 144 142)"
EndChar

StartChar: three.Outline.2
Encoding: 66609 -1 133
Width: 0
VWidth: 0
Flags: H
LayerCount: 2
Fore
SplineSet
219 631 m 0
 193 631 124 609 124 545 c 0
 124 526 114 493 85 493 c 0
 61 493 51 513 51 527 c 0
 51 560 93 656 240 656 c 0
 342 656 380 592 380 550 c 0
 380 516 375 470 280 410 c 1
 281 408 l 1
 340 398 417 357 417 248 c 0
 417 116 311 35 192 35 c 0
 132 35 48 62 48 102 c 0
 48 118 69 137 90 137 c 0
 110 137 123 125 133 111 c 0
 145 93 154 60 205 60 c 0
 240 60 335 101 335 234 c 0
 335 347 260 365 203 365 c 0
 190 365 177 365 160 363 c 1
 155 385 l 1
 245 399 309 486 309 535 c 0
 309 597 263 631 219 631 c 0
219 600 m 0
 196.799804688 600 155 578.900390625 155 545 c 0
 155 517.400390625 138.700195312 462 85 462 c 0
 33.7001953125 462 20 507 20 527 c 0
 20 574.700195312 66.2001953125 658.599609375 177.599609375 681.099609375 c 0
 200.700195312 685.799804688 221.700195312 687 240 687 c 0
 361.799804688 687 411 606.400390625 411 550 c 0
 411 514.299804688 399.900390625 467.200195312 345.700195312 419.599609375 c 1
 402.900390625 391.400390625 448 335.099609375 448 248 c 0
 448 116.200195312 355.400390625 32.2001953125 251.5 10.2001953125 c 0
 228.599609375 5.2998046875 209.299804688 4 192 4 c 0
 131 4 17 26.599609375 17 102 c 0
 17 146.299804688 60.7001953125 168 90 168 c 0
 129 168 148.400390625 142.700195312 158.5 128.599609375 c 0
 178.200195312 99 173 91 205 91 c 0
 208.400390625 91 217 93 221.700195312 94.599609375 c 0
 256 106.5 304 145 304 234 c 0
 304 328.099609375 250.700195312 334 203 334 c 0
 186.900390625 334 175.5 333.599609375 163.599609375 332.200195312 c 2
 135.900390625 329 l 1
 117.400390625 410.5 l 1
 150.200195312 415.599609375 l 2
 191.799804688 422.099609375 224.700195312 446.700195312 246.5 471.799804688 c 0
 270.700195312 499.700195312 278 524.599609375 278 535 c 0
 278 582.599609375 244.400390625 600 219 600 c 0
219 608 m 0
 247.900390625 608 286 587.5 286 535 c 0
 286 521.700195312 277.700195312 495.700195312 252.5 466.599609375 c 0
 229.900390625 440.5 195.599609375 414.599609375 151.5 407.700195312 c 2
 127.099609375 403.900390625 l 1
 142.200195312 337.700195312 l 1
 162.700195312 340.200195312 l 2
 175 341.599609375 186.799804688 342 203 342 c 0
 251.799804688 342 312 333.700195312 312 234 c 0
 312 141.700195312 261.5 99.900390625 224.299804688 87 c 0
 218.900390625 85.099609375 210.299804688 83 205 83 c 0
 168.900390625 83 170 96.900390625 151.900390625 124.099609375 c 0
 142.299804688 137.599609375 124.900390625 160 90 160 c 0
 63.2998046875 160 25 140 25 102 c 0
 25 35.900390625 129.900390625 12 192 12 c 0
 208.799804688 12 227.599609375 13.2998046875 249.799804688 18 c 0
 350.700195312 39.400390625 440 120.5 440 248 c 0
 440 335.099609375 393.5 389.299804688 336.700195312 415 c 2
 330.900390625 417.599609375 l 1
 335.799804688 421.700195312 l 2
 392.700195312 469.200195312 403 515.5 403 550 c 0
 403 601.900390625 357.700195312 679 240 679 c 0
 222.099609375 679 201.599609375 677.700195312 179.200195312 673.200195312 c 0
 71.2001953125 651.400390625 28 570.400390625 28 527 c 0
 28 509.200195312 40 470 85 470 c 0
 131.599609375 470 147 518.599609375 147 545 c 0
 147 585.700195312 194.299804688 608 219 608 c 0
EndSplineSet
Comment: "I(166 148)"
EndChar

StartChar: three.Mono.1
Encoding: 66624 -1 134
Width: 0
VWidth: 0
Flags: H
LayerCount: 2
Fore
SplineSet
296 666 m 0
 260 666 190 655 190 586 c 0
 190 565 185 530 143 530 c 0
 114 530 102 551 102 566 c 0
 102 602 153 704 329 704 c 0
 392 704 434 688 460 664 c 0
 489 637 497 610 497 578 c 0
 497 521 470 477 371 435 c 1
 372 433 l 1
 443 422 541 380 541 262 c 0
 541 119 414 36 271 36 c 0
 199 36 99 66 99 109 c 0
 99 126 124 146 149 146 c 0
 173 146 189 133 201 118 c 0
 215 99 206 74 276 74 c 0
 324 74 440 103 440 247 c 0
 440 369 355 386 277 386 c 0
 259 386 251 386 231 384 c 1
 225 419 l 1
 344 434 403 517 403 571 c 0
 403 640 356 666 296 666 c 0
EndSplineSet
Comment: "M(170)"
EndChar

StartChar: three.Underline.1
Encoding: 66640 -1 135
Width: 0
VWidth: 0
Flags: H
LayerCount: 2
Fore
SplineSet
216.30859375 549.0234375 m 0
 191.40625 549.0234375 117.67578125 534.86328125 117.67578125 473.828125 c 0
 117.67578125 455.2734375 110.83984375 425 83.984375 425 c 0
 58.10546875 425 56.15234375 453.80859375 56.15234375 456.25 c 0
 56.15234375 487.98828125 96.6796875 579.78515625 235.83984375 579.78515625 c 0
 332.51953125 579.78515625 361.81640625 518.75 361.81640625 478.22265625 c 0
 361.81640625 453.3203125 353.02734375 405.46875 272.4609375 352.734375 c 1
 331.54296875 333.447265625 393.5546875 297.79296875 393.5546875 194.04296875 c 0
 393.5546875 96.38671875 345.626953125 44.7802734375 281.25 12.40234375 c 0
 239.697265625 -8.49609375 206.54296875 -9.5703125 180.6640625 -9.5703125 c 0
 124.0234375 -9.5703125 44.43359375 15.8203125 44.43359375 53.90625 c 0
 44.43359375 68.5546875 59.08203125 86.1328125 79.1015625 86.1328125 c 0
 97.65625 86.1328125 106.830078125 75.6630859375 115.72265625 62.6953125 c 0
 127.44140625 45.60546875 145.01953125 21.19140625 192.87109375 21.19140625 c 0
 225.5859375 21.19140625 319.82421875 54.39453125 319.82421875 180.37109375 c 0
 319.82421875 287.580078125 234.77734375 308.30078125 191.40625 308.30078125 c 0
 181.640625 308.30078125 171.38671875 306.8359375 160.15625 304.39453125 c 1
 155.76171875 329.296875 l 1
 232.91015625 342.48046875 297.36328125 417.1875 297.36328125 464.0625 c 0
 297.36328125 520.703125 256.8359375 549.0234375 216.30859375 549.0234375 c 0
-17.08984375 -82.8125 m 1
 470.703125 -82.8125 l 1
 463.37890625 -121.875 l 1
 -24.4140625 -121.875 l 1
 -17.08984375 -82.8125 l 1
EndSplineSet
Comment: "U_Re(4)"
EndChar

StartChar: zero.slash.Display.1
Encoding: 65536 -1 136
Width: 0
VWidth: 0
Flags: H
LayerCount: 2
Fore
SplineSet
232 631 m 0
 187 631 120 575 120 329 c 0
 120 289.200195312 125 229.599609375 138.599609375 176.700195312 c 1
 306 571.400390625 l 1
 296.900390625 591.400390625 286.900390625 605.700195312 277 614 c 0
 265 625 249 631 232 631 c 0
320.599609375 531.599609375 m 1
 152.5 133.799804688 l 1
 169.400390625 91.7001953125 194 61 229 61 c 0
 247 61 302 70 324 152 c 0
 338 203 341 276 341 368 c 0
 341 435 332.700195312 490.099609375 320.599609375 531.599609375 c 1
348.400390625 597.299804688 m 2
 350.299804688 594.900390625 352.099609375 592.5 354 590 c 0
 398 532 422 448 422 349 c 0
 422 114 305 36 228 36 c 0
 190.5 36 157 51.7001953125 129.099609375 78.5 c 1
 101 12 l 1
 73 22 l 1
 107.400390625 103 l 1
 64.2998046875 159.700195312 39 246.599609375 39 340 c 0
 39 538 133 656 232 656 c 0
 275 656 303.099609375 643.200195312 327 620.799804688 c 1
 350 675 l 1
 377 665 l 1
 348.400390625 597.299804688 l 2
EndSplineSet
Comment: "DR(170 166 148 146), aDRS(154 153 151 150 148 147)"
EndChar

StartChar: zero.slash.Display.2
Encoding: 65537 -1 137
Width: 0
VWidth: 0
Flags: H
LayerCount: 2
Fore
SplineSet
232 631 m 0
 187 631 120 575 120 329 c 0
 120 289.200195312 125 229.599609375 138.599609375 176.700195312 c 1
 306 571.400390625 l 1
 296.900390625 591.400390625 286.900390625 605.700195312 277 614 c 0
 265 625 249 631 232 631 c 0
320.599609375 531.599609375 m 1
 152.5 133.799804688 l 1
 169.400390625 91.7001953125 194 61 229 61 c 0
 247 61 301.799804688 70.099609375 324 152 c 0
 337.900390625 203 341 276 341 368 c 0
 341 435 332.700195312 490.099609375 320.599609375 531.599609375 c 1
327 620.799804688 m 1
 350 675 l 1
 377 665 l 1
 348.400390625 597.299804688 l 1
 354 590 l 2
 398 532 422 448 422 349 c 0
 422 114 305 36 228 36 c 0
 190.5 36 157 51.7001953125 129.099609375 78.5 c 1
 101 12 l 1
 73 22 l 1
 107.400390625 103 l 1
 64.2998046875 159.700195312 39 246.599609375 39 340 c 0
 39 538 133 656 232 656 c 0
 275 656 303.099609375 643.200195312 327 620.799804688 c 1
EndSplineSet
Comment: "DR(144 143 142 141), aDRS(144 143 142)"
EndChar

StartChar: zero.slash.DisplayItalic.1
Encoding: 65552 -1 138
Width: 0
VWidth: 0
Flags: H
LayerCount: 2
Fore
SplineSet
356.345703125 631 m 1
 311.345703125 631 232.443359375 575 180.154296875 329 c 0
 171.694335938 289.200195312 164.026367188 229.599609375 166.381835938 176.700195312 c 1
 417.677734375 571.400390625 l 1
 412.829101562 591.400390625 405.869140625 605.700195312 397.733398438 614 c 0
 388.071289062 625 373.346679688 631 356.346679688 631 c 1
 356.345703125 631 l 1
423.817382812 531.599609375 m 1
 171.162109375 133.799804688 l 1
 179.114257812 91.7001953125 197.188476562 61 232.188476562 61 c 0
 250.188476562 61 307.1015625 70 346.53125 152 c 0
 371.37109375 203 389.887695312 276 409.443359375 368 c 0
 423.684570312 435 427.096679688 490.100585938 423.817382812 531.600585938 c 1
 423.817382812 531.599609375 l 1
465.58203125 597.299804688 m 2
 466.97265625 594.900390625 468.26171875 592.5 469.630859375 590 c 0
 501.302734375 532 507.447265625 448 486.404296875 349 c 0
 436.454101562 114 302.874023438 36 225.874023438 36 c 0
 188.374023438 36 158.211914062 51.7001953125 136.0078125 78.5 c 1
 93.7734375 12 l 1
 67.8984375 22 l 1
 119.515625 103 l 1
 88.4677734375 159.700195312 81.638671875 246.600585938 101.491210938 340 c 0
 143.578125 538 262.659179688 656 361.659179688 656 c 0
 404.659179688 656 430.0390625 643.200195312 449.177734375 620.799804688 c 1
 483.698242188 675 l 1
 508.572265625 665 l 1
 465.58203125 597.299804688 l 2
EndSplineSet
Comment: "aDRL(153 151 150 148 147)"
EndChar

StartChar: zero.slash.DisplayItalic.2
Encoding: 65553 -1 139
Width: 0
VWidth: 0
Flags: H
LayerCount: 2
Fore
SplineSet
356.345703125 631 m 1
 311.345703125 631 232.443359375 575 180.154296875 329 c 0
 171.694335938 289.200195312 164.026367188 229.599609375 166.381835938 176.700195312 c 1
 417.677734375 571.400390625 l 1
 412.829101562 591.400390625 405.869140625 605.700195312 397.733398438 614 c 0
 388.071289062 625 373.346679688 631 356.346679688 631 c 1
 356.345703125 631 l 1
423.817382812 531.599609375 m 1
 171.162109375 133.799804688 l 1
 179.114257812 91.7001953125 197.188476562 61 232.188476562 61 c 0
 250.188476562 61 306.922851562 70.099609375 346.53125 152 c 0
 371.271484375 203 389.887695312 276 409.443359375 368 c 0
 423.684570312 435 427.096679688 490.100585938 423.817382812 531.600585938 c 1
 423.817382812 531.599609375 l 1
449.177734375 620.799804688 m 1
 483.698242188 675 l 1
 508.572265625 665 l 1
 465.58203125 597.299804688 l 1
 469.630859375 590 l 2
 501.302734375 532 507.447265625 448 486.404296875 349 c 0
 436.454101562 114 302.875 36 225.875 36 c 0
 188.375 36 158.212890625 51.7001953125 136.008789062 78.5 c 1
 93.7744140625 12 l 1
 67.8994140625 22 l 1
 119.516601562 103 l 1
 88.4677734375 159.700195312 81.638671875 246.600585938 101.4921875 340 c 0
 143.579101562 538 262.66015625 656 361.66015625 656 c 0
 404.66015625 656 430.040039062 643.200195312 449.177734375 620.799804688 c 1
EndSplineSet
Comment: "aDRL(144)"
EndChar

StartChar: zero.slash.DisplayItalic.3
Encoding: 65554 -1 140
Width: 0
VWidth: 0
Flags: H
LayerCount: 2
Fore
SplineSet
356.345703125 631 m 0
 311.345703125 631 232.442382812 575 180.153320312 329 c 0
 171.693359375 289.200195312 164.025390625 229.599609375 166.380859375 176.700195312 c 1
 417.676757812 571.400390625 l 1
 412.828125 591.400390625 405.868164062 605.700195312 397.732421875 614 c 0
 388.0703125 625 373.345703125 631 356.345703125 631 c 0
423.817382812 531.599609375 m 1
 171.162109375 133.799804688 l 1
 179.114257812 91.7001953125 197.188476562 61 232.188476562 61 c 0
 250.188476562 61 306.922851562 70.099609375 346.53125 152 c 0
 371.271484375 203 389.887695312 276 409.443359375 368 c 0
 423.684570312 435 427.096679688 490.100585938 423.817382812 531.599609375 c 1
449.177734375 620.799804688 m 1
 483.698242188 675 l 1
 508.572265625 665 l 1
 465.58203125 597.299804688 l 1
 469.630859375 590 l 2
 501.302734375 532 507.447265625 448 486.404296875 349 c 0
 436.454101562 114 302.874023438 36 225.874023438 36 c 0
 188.374023438 36 158.211914062 51.7001953125 136.0078125 78.5 c 1
 93.7734375 12 l 1
 67.8984375 22 l 1
 119.515625 103 l 1
 88.4677734375 159.700195312 81.638671875 246.599609375 101.491210938 340 c 0
 143.578125 538 262.659179688 656 361.659179688 656 c 0
 404.659179688 656 430.0390625 643.200195312 449.177734375 620.799804688 c 1
EndSplineSet
Comment: "aDRL(143 142)"
EndChar

StartChar: zero.slash.Regular.1
Encoding: 65568 -1 141
Width: 0
VWidth: 0
Flags: H
LayerCount: 2
Fore
SplineSet
232 621 m 0
 187 621 126 575 126 329 c 0
 126 292.099609375 127.799804688 240.099609375 137 192.400390625 c 1
 297 578.799804688 l 1
 290.700195312 589.799804688 284 598.200195312 277 604 c 0
 265 615 249 621 232 621 c 0
228 36 m 0
 189.299804688 36 155 49.599609375 126.599609375 78 c 2
 126.5 78.099609375 l 1
 98 9 l 1
 66 21 l 1
 101.900390625 107.700195312 l 1
 62.099609375 165.099609375 39 250.599609375 39 340 c 0
 39 538 133 656 232 656 c 0
 265.299804688 656 294 644.5 317.200195312 627.5 c 1
 341 685 l 1
 372 674 l 1
 343.200195312 604 l 1
 347.099609375 599.799804688 350.599609375 595.400390625 354 591 c 0
 398 533 422 448 422 349 c 0
 422 114 305 36 228 36 c 0
315 535.599609375 m 1
 151.599609375 139.200195312 l 1
 166.900390625 99.5 191 71 229 71 c 0
 247 71 296 80 318 162 c 0
 332 213 335 276 335 368 c 0
 335 440.400390625 327.099609375 495.799804688 315 535.599609375 c 1
EndSplineSet
Comment: "R(170 166 153 152 151 148 146), aS(154 153 151 150 148 147)"
EndChar

StartChar: zero.slash.Regular.2
Encoding: 65573 -1 142
Width: 0
VWidth: 0
Flags: H
LayerCount: 2
Fore
SplineSet
232 621 m 0
 187 621 126 575 126 329 c 0
 126 292.099609375 127.799804688 240.099609375 137 192.400390625 c 1
 297 578.799804688 l 1
 290.700195312 589.799804688 284 598.200195312 277 604 c 0
 265 615 249 621 232 621 c 0
228 36 m 0
 189.299804688 36 155 49.599609375 126.599609375 78 c 2
 126.5 78.099609375 l 1
 98 9 l 1
 66 21 l 1
 101.900390625 107.700195312 l 1
 62.099609375 165.099609375 39 250.599609375 39 340 c 0
 39 538 133 656 232 656 c 0
 265.299804688 656 294 644.5 317.200195312 627.5 c 1
 341 685 l 1
 372 674 l 1
 343.200195312 604 l 1
 347.099609375 599.799804688 350.599609375 595.400390625 354 591 c 0
 398 533 422 448 422 349 c 0
 422 114 305 36 228 36 c 0
315 535.599609375 m 1
 151.599609375 139.200195312 l 1
 166.900390625 99.5 191 71 229 71 c 0
 247 71 295.799804688 80.099609375 318 162 c 0
 331.900390625 213 335 276 335 368 c 0
 335 440.400390625 327.099609375 495.799804688 315 535.599609375 c 1
EndSplineSet
Comment: "R(144 142), aS(144 143 142)"
EndChar

StartChar: zero.slash.Regular.3
Encoding: 65574 -1 143
Width: 0
VWidth: 0
Flags: H
LayerCount: 2
Fore
SplineSet
221 589 m 0
 178 589 115 547 115 314 c 0
 115 278.200195312 117.900390625 226.700195312 128.400390625 179.900390625 c 1
 282 551.099609375 l 1
 275.799804688 561 269.299804688 568.599609375 263 574 c 0
 252 584 237 589 221 589 c 0
301.5 509.400390625 m 1
 144.5 128.599609375 l 1
 160.099609375 92.599609375 183.400390625 67 218 67 c 0
 235 67 282.900390625 78 304 156 c 0
 317 204 324 264 324 351 c 0
 324 419.599609375 314.700195312 471.900390625 301.5 509.400390625 c 1
300 594.700195312 m 1
 325 655 l 1
 357 644 l 1
 326.400390625 569.900390625 l 1
 329.700195312 566.099609375 333 562.099609375 336 558 c 0
 378 503 400 427 400 333 c 0
 400 111 290 34 217 34 c 0
 181.200195312 34 149.200195312 49.400390625 122.599609375 75.599609375 c 1
 96 11 l 1
 63 22 l 1
 97.599609375 105.599609375 l 1
 59.900390625 160 38 239.5 38 324 c 0
 38 511 127 624 221 624 c 0
 248.599609375 624 276.099609375 612.900390625 300 594.700195312 c 1
EndSplineSet
Comment: "R(139 130 127 125 121 118 116 115 114 111), Re(108 105 103 96 90 89 88 79 78 76), Sc(108 107 105 103 95 94 90), aS(140 139 132 126 122 120 117 115)"
EndChar

StartChar: zero.slash.Regular.4
Encoding: 65575 -1 144
Width: 0
VWidth: 0
Flags: H
LayerCount: 2
Fore
SplineSet
300 594.700195312 m 1
 325 655 l 1
 357 644 l 1
 326.400390625 569.900390625 l 1
 329.700195312 566.099609375 333 562.099609375 336 558 c 0
 378 503 400 427 400 333 c 0
 400 111 290 34 217 34 c 0
 181.200195312 34 149.200195312 49.400390625 122.599609375 75.599609375 c 1
 96 11 l 1
 63 22 l 1
 97.599609375 105.599609375 l 1
 59.900390625 160 38 239.5 38 324 c 0
 38 511 127 624 221 624 c 0
 248.599609375 624 276.099609375 612.900390625 300 594.700195312 c 1
301.5 509.400390625 m 1
 144.5 128.599609375 l 1
 160.099609375 92.599609375 183.400390625 67 218 67 c 0
 235 67 282.900390625 78 304 156 c 0
 317 204 324 264 324 351 c 0
 324 419.599609375 314.700195312 471.900390625 301.5 509.400390625 c 1
221 589 m 0
 178 589 115 547 115 314 c 0
 115 278.200195312 117.900390625 226.700195312 128.400390625 179.900390625 c 1
 282 551.099609375 l 1
 275.799804688 561 269.299804688 568.599609375 263 574 c 0
 252 584 237 589 221 589 c 0
EndSplineSet
Comment: "Re(102 97), Sc(102 97)"
EndChar

StartChar: zero.slash.Regular.5
Encoding: 65576 -1 145
Width: 0
VWidth: 0
Flags: H
LayerCount: 2
Fore
SplineSet
236 589 m 0
 193 589 134 547 134 314 c 0
 134 279.599609375 135.900390625 230.700195312 144.700195312 185.599609375 c 1
 296.200195312 551.599609375 l 1
 290.400390625 561.200195312 284.200195312 568.700195312 278 574 c 0
 267 584 252 589 236 589 c 0
315 508.599609375 m 1
 159.400390625 132.799804688 l 1
 174.200195312 95.099609375 197.200195312 68 233 68 c 0
 250 68 295.900390625 78 317 156 c 0
 330 204 335 264 335 351 c 0
 335 419.200195312 327 471.200195312 315 508.599609375 c 1
314.299804688 595.200195312 m 1
 339 655 l 1
 371 644 l 1
 340.700195312 570.700195312 l 1
 344.299804688 566.599609375 347.700195312 562.400390625 351 558 c 0
 393 503 415 427 415 333 c 0
 415 111 305 35 232 35 c 0
 195.599609375 35 163.299804688 50.7001953125 136.5 77.400390625 c 1
 109 11 l 1
 77 22 l 1
 112.099609375 106.900390625 l 1
 74.7001953125 161 53 239.900390625 53 324 c 0
 53 511 142 624 236 624 c 0
 263.299804688 624 290.599609375 613.099609375 314.299804688 595.200195312 c 1
EndSplineSet
Comment: "C(89 88 79 78 76)"
EndChar

StartChar: zero.slash.Regular.6
Encoding: 65577 -1 146
Width: 0
VWidth: 0
Flags: H
LayerCount: 2
Fore
SplineSet
217 34 m 0
 110 34 38 171 38 324 c 0
 38 511 127 624 221 624 c 0
 264 624 307 597 336 558 c 0
 378 503 400 427 400 333 c 0
 400 111 290 34 217 34 c 0
221 589 m 0
 178 589 115 547 115 314 c 0
 115 232 130 67 218 67 c 0
 235 67 283 78 304 156 c 0
 317 204 324 264 324 351 c 0
 324 478 292 549 263 574 c 0
 252 584 237 589 221 589 c 0
357 644 m 1
 96 11 l 1
 63 22 l 1
 325 655 l 1
 357 644 l 1
EndSplineSet
Comment: "Re(75 62)"
EndChar

StartChar: zero.slash.Regular.7
Encoding: 65578 -1 147
Width: 0
VWidth: 0
Flags: H
LayerCount: 2
Fore
SplineSet
371 644 m 1
 109 11 l 1
 77 22 l 1
 339 655 l 1
 371 644 l 1
232 35 m 0
 125 35 53 171 53 324 c 0
 53 511 142 624 236 624 c 0
 279 624 322 597 351 558 c 0
 393 503 415 427 415 333 c 0
 415 111 305 35 232 35 c 0
236 589 m 0
 193 589 134 547 134 314 c 0
 134 232 145 68 233 68 c 0
 250 68 296 78 317 156 c 0
 330 204 335 264 335 351 c 0
 335 478 307 549 278 574 c 0
 267 584 252 589 236 589 c 0
EndSplineSet
Comment: "C_Re(62)"
EndChar

StartChar: zero.slash.Regular.8
Encoding: 65579 -1 148
Width: 0
VWidth: 0
Flags: H
LayerCount: 2
Fore
SplineSet
221 589 m 0
 178 589 115 547 115 314 c 0
 115 278 118 227 128 180 c 1
 282 551 l 1
 276 561 269 569 263 574 c 0
 252 584 237 589 221 589 c 0
301 509 m 1
 144 129 l 1
 160 93 183 67 218 67 c 0
 235 67 283 78 304 156 c 0
 317 204 324 264 324 351 c 0
 324 420 315 472 301 509 c 1
300 595 m 1
 325 655 l 1
 357 644 l 1
 326 570 l 1
 330 566 333 562 336 558 c 0
 378 503 400 427 400 333 c 0
 400 111 290 34 217 34 c 0
 181 34 149 49 123 76 c 1
 96 11 l 1
 63 22 l 1
 98 106 l 1
 60 160 38 240 38 324 c 0
 38 511 127 624 221 624 c 0
 249 624 276 613 300 595 c 1
EndSplineSet
Comment: "Re(61 41)"
EndChar

StartChar: zero.slash.Regular.9
Encoding: 65580 -1 149
Width: 0
VWidth: 0
Flags: H
LayerCount: 2
Fore
SplineSet
236 589 m 0
 193 589 134 547 134 314 c 0
 134 280 136 231 145 186 c 1
 296 552 l 1
 290 561 284 569 278 574 c 0
 267 584 252 589 236 589 c 0
315 509 m 1
 159 133 l 1
 174 95 197 68 233 68 c 0
 250 68 296 78 317 156 c 0
 330 204 335 264 335 351 c 0
 335 419 327 471 315 509 c 1
314 595 m 1
 339 655 l 1
 371 644 l 1
 341 571 l 1
 344 567 348 562 351 558 c 0
 393 503 415 427 415 333 c 0
 415 111 305 35 232 35 c 0
 196 35 163 51 136 77 c 1
 109 11 l 1
 77 22 l 1
 112 107 l 1
 75 161 53 240 53 324 c 0
 53 511 142 624 236 624 c 0
 263 624 291 613 314 595 c 1
EndSplineSet
Comment: "C_Re(61 41)"
EndChar

StartChar: zero.slash.Regular.10
Encoding: 65569 -1 150
Width: 0
VWidth: 0
Flags: H
LayerCount: 2
Fore
SplineSet
221 617 m 0
 178 617 115 575 115 342 c 0
 115 306 118 255 128 208 c 1
 282 579 l 1
 276 589 269 597 263 602 c 0
 252 612 237 617 221 617 c 0
301 537 m 1
 144 157 l 1
 160 121 183 95 218 95 c 0
 235 95 283 106 304 184 c 0
 317 232 324 292 324 379 c 0
 324 448 315 500 301 537 c 1
300 623 m 1
 325 683 l 1
 357 672 l 1
 326 598 l 1
 330 594 333 590 336 586 c 0
 378 531 400 455 400 361 c 0
 400 139 290 62 217 62 c 0
 181 62 149 77 123 104 c 1
 96 39 l 1
 63 50 l 1
 98 134 l 1
 60 188 38 268 38 352 c 0
 38 539 127 652 221 652 c 0
 249 652 276 641 300 623 c 1
EndSplineSet
Comment: "Re(35)"
EndChar

StartChar: zero.slash.Regular.11
Encoding: 65570 -1 151
Width: 0
VWidth: 0
Flags: H
LayerCount: 2
Fore
SplineSet
236 617 m 0
 193 617 134 575 134 342 c 0
 134 308 136 259 145 214 c 1
 296 580 l 1
 290 589 284 597 278 602 c 0
 267 612 252 617 236 617 c 0
315 537 m 1
 159 161 l 1
 174 123 197 96 233 96 c 0
 250 96 296 106 317 184 c 0
 330 232 335 292 335 379 c 0
 335 447 327 499 315 537 c 1
314 623 m 1
 339 683 l 1
 371 672 l 1
 341 599 l 1
 344 595 348 590 351 586 c 0
 393 531 415 455 415 361 c 0
 415 139 305 63 232 63 c 0
 196 63 163 79 136 105 c 1
 109 39 l 1
 77 50 l 1
 112 135 l 1
 75 189 53 268 53 352 c 0
 53 539 142 652 236 652 c 0
 263 652 291 641 314 623 c 1
EndSplineSet
Comment: "C_Re(35)"
EndChar

StartChar: zero.slash.Regular.12
Encoding: 65571 -1 152
Width: 0
VWidth: 0
Flags: H
LayerCount: 2
Fore
SplineSet
220.703125 543.1640625 m 0
 178.22265625 543.1640625 114.74609375 501.66015625 114.74609375 267.7734375 c 0
 114.74609375 231.865234375 117.740234375 180.146484375 128.4375 133.338867188 c 1
 282.212890625 505.15625 l 1
 275.955078125 515.205078125 269.48828125 522.958984375 263.18359375 528.515625 c 0
 251.953125 538.28125 236.81640625 543.1640625 220.703125 543.1640625 c 0
301.727539062 463.1875 m 1
 144.412109375 82.814453125 l 1
 159.999023438 46.7841796875 183.3046875 21.19140625 217.7734375 21.19140625 c 0
 234.86328125 21.19140625 283.203125 32.421875 303.7109375 110.05859375 c 0
 317.3828125 157.91015625 324.21875 218.45703125 324.21875 305.37109375 c 0
 324.21875 373.510742188 314.86328125 425.6328125 301.727539062 463.1875 c 1
300.19140625 548.627929688 m 1
 325.1953125 609.08203125 l 1
 357.421875 597.8515625 l 1
 326.765625 523.725585938 l 1
 330.115234375 519.931640625 333.33984375 515.991210938 336.42578125 511.9140625 c 0
 378.27734375 456.6328125 400.390625 381.0546875 400.390625 287.3046875 c 0
 400.390625 65.13671875 290.0390625 -12.01171875 216.796875 -12.01171875 c 0
 180.919921875 -12.01171875 149 3.3779296875 122.420898438 29.6396484375 c 1
 95.703125 -34.9609375 l 1
 63.4765625 -23.73046875 l 1
 97.77734375 59.20703125 l 1
 60.048828125 113.581054688 38.0859375 193.43359375 38.0859375 278.515625 c 0
 38.0859375 465.0390625 126.953125 578.3203125 220.703125 578.3203125 c 0
 248.389648438 578.3203125 276.03515625 567.138671875 300.19140625 548.627929688 c 1
EndSplineSet
Comment: "Re(4)"
EndChar

StartChar: zero.slash.Regular.13
Encoding: 65572 -1 153
Width: 0
VWidth: 0
Flags: H
LayerCount: 2
Fore
SplineSet
234.375 543.1640625 m 0
 191.89453125 543.1640625 128.41796875 501.66015625 128.41796875 267.7734375 c 0
 128.41796875 231.865234375 131.412109375 180.146484375 142.109375 133.338867188 c 1
 295.884765625 505.15625 l 1
 289.626953125 515.205078125 283.159179688 522.958984375 276.85546875 528.515625 c 0
 265.865234375 538.203125 250.48828125 543.1640625 234.375 543.1640625 c 0
315.3984375 463.185546875 m 1
 158.083984375 82.814453125 l 1
 173.670898438 46.7841796875 196.9765625 21.19140625 231.4453125 21.19140625 c 0
 248.53515625 21.19140625 296.875 32.421875 317.3828125 110.05859375 c 0
 331.0546875 157.91015625 337.890625 218.45703125 337.890625 305.37109375 c 0
 337.890625 373.509765625 328.53515625 425.630859375 315.3984375 463.185546875 c 1
313.86328125 548.627929688 m 1
 338.8671875 609.08203125 l 1
 371.09375 597.8515625 l 1
 340.4375 523.725585938 l 1
 343.787109375 519.931640625 347.01171875 515.991210938 350.09765625 511.9140625 c 0
 391.94921875 456.6328125 414.0625 381.0546875 414.0625 287.3046875 c 0
 414.0625 65.13671875 303.7109375 -12.01171875 230.46875 -12.01171875 c 0
 194.591796875 -12.01171875 162.671875 3.3779296875 136.092773438 29.6396484375 c 1
 109.375 -34.9609375 l 1
 77.1484375 -23.73046875 l 1
 111.44921875 59.20703125 l 1
 73.720703125 113.581054688 51.7578125 193.43359375 51.7578125 278.515625 c 0
 51.7578125 465.0390625 140.625 578.3203125 234.375 578.3203125 c 0
 262.061523438 578.3203125 289.70703125 567.138671875 313.86328125 548.627929688 c 1
EndSplineSet
Comment: "C_Re(4)"
EndChar

StartChar: zero.slash.Italic.1
Encoding: 65584 -1 154
Width: 0
VWidth: 0
Flags: H
LayerCount: 2
Fore
SplineSet
344 621 m 0
 301 621 233 575 185 329 c 0
 177.799804688 292.400390625 169.599609375 240.900390625 169.099609375 193.5 c 1
 398.799804688 577.599609375 l 1
 394.900390625 589.200195312 389.799804688 597.900390625 384 604 c 0
 375 615 360 621 344 621 c 0
407.5 529 m 1
 173.5 136.200195312 l 1
 180.900390625 98.099609375 198.599609375 71 234 71 c 0
 251 71 300 80 337 162 c 0
 360 213 375 276 393 368 c 0
 406.299804688 436.5 410.200195312 489.799804688 407.5 529 c 1
449.799804688 600.200195312 m 2
 451.700195312 597.200195312 453.400390625 594.099609375 455 591 c 0
 486 533 492 448 473 349 c 0
 427 114 300 36 226 36 c 0
 189.599609375 36 160 49.599609375 138.099609375 76.7001953125 c 1
 96 6 l 1
 66 21 l 1
 118.599609375 108.900390625 l 1
 91.900390625 166.400390625 86.5 250.799804688 104 340 c 0
 142 538 256 656 351 656 c 0
 383.599609375 656 409.200195312 644.200195312 428.200195312 626.700195312 c 1
 463 685 l 1
 492 671 l 1
 449.799804688 600.200195312 l 2
EndSplineSet
Comment: "RI(170 153 152 151 148 146), aSI(154 153 151 150 148 147)"
EndChar

StartChar: zero.slash.Italic.2
Encoding: 65586 -1 155
Width: 0
VWidth: 0
Flags: H
LayerCount: 2
Fore
SplineSet
321.5 621 m 0
 276.5 621 215.5 575 215.5 329 c 0
 215.5 312.900390625 215.799804688 293.900390625 217 273.599609375 c 1
 392.599609375 567.200195312 l 1
 384.700195312 584.099609375 375.700195312 596.200195312 366.5 604 c 0
 354.5 615 338.5 621 321.5 621 c 0
317.5 36 m 0
 278.799804688 36 244.5 49.599609375 216.099609375 78 c 0
 200.099609375 94 185.900390625 113.900390625 173.900390625 136.799804688 c 1
 96 6 l 1
 66 21 l 1
 157.400390625 173.799804688 l 1
 138.799804688 222.700195312 128.5 280.5 128.5 340 c 0
 128.5 538 222.5 656 321.5 656 c 0
 362.200195312 656 396 638.799804688 421.400390625 615.400390625 c 1
 463 685 l 1
 492 671 l 1
 444 590.400390625 l 1
 487.700195312 532.400390625 511.5 447.599609375 511.5 349 c 0
 511.5 114 394.5 36 317.5 36 c 0
406.799804688 527.799804688 m 1
 222.299804688 218 l 1
 232.599609375 143.400390625 258 71 318.5 71 c 0
 336.5 71 385.5 80 407.5 162 c 0
 421.5 213 424.5 276 424.5 368 c 0
 424.5 435.799804688 417.599609375 488.700195312 406.799804688 527.799804688 c 1
EndSplineSet
Comment: "RI(166)"
EndChar

StartChar: zero.slash.Italic.3
Encoding: 65587 -1 156
Width: 0
VWidth: 0
Flags: H
LayerCount: 2
Fore
SplineSet
344 621 m 0
 301 621 233 575 185 329 c 0
 177.799804688 292.400390625 169.599609375 240.900390625 169.099609375 193.5 c 1
 398.799804688 577.599609375 l 1
 394.900390625 589.200195312 389.799804688 597.900390625 384 604 c 0
 375 615 360 621 344 621 c 0
407.5 529 m 1
 173.5 136.200195312 l 1
 180.900390625 98.099609375 198.599609375 71 234 71 c 0
 251 71 300 80 337 162 c 0
 360 213 375 276 393 368 c 0
 406.299804688 436.5 410.200195312 489.799804688 407.5 529 c 1
428.200195312 626.700195312 m 1
 463 685 l 1
 492 671 l 1
 449.799804688 600.200195312 l 2
 451.700195312 597.200195312 453.400390625 594.099609375 455 591 c 0
 486 533 492 448 473 349 c 0
 427 114 300 36 226 36 c 0
 189.599609375 36 160 49.599609375 138.099609375 76.7001953125 c 1
 96 6 l 1
 66 21 l 1
 118.599609375 109 l 1
 92 166.400390625 86.7001953125 250.700195312 104 340 c 0
 142.400390625 537.900390625 256 656 351 656 c 0
 383.599609375 656 409.200195312 644.200195312 428.200195312 626.700195312 c 1
EndSplineSet
Comment: "RI(144 142), aSI(144 143 142)"
EndChar

StartChar: zero.slash.Italic.4
Encoding: 65588 -1 157
Width: 0
VWidth: 0
Flags: H
LayerCount: 2
Fore
SplineSet
442 555 m 1
 463 518 473 473 473 420 c 0
 473 393 470 364 465 333 c 0
 425 111 302 34 229 34 c 0
 193 34 164 49 142 75 c 1
 102 11 l 1
 72 22 l 1
 123 103 l 1
 104 140 94 188 94 241 c 0
 94 268 96 296 101 324 c 0
 134.200195312 511 243 624 336 624 c 0
 370 624 400 608 423 582 c 1
 468 655 l 1
 498 644 l 1
 442 555 l 1
400 487 m 1
 174 125 l 1
 183 91 202 67 235 67 c 0
 252 67 303 78 337 156 c 0
 359 204 376 264 392 351 c 0
 398 390 401 424 401 453 c 0
 401 465 401 477 400 487 c 1
330 589 m 0
 288 589 217 547 176 314 c 0
 170 283 165 242 165 201 c 0
 165 191 165 182 166 172 c 1
 392 533 l 1
 386 552 378 566 370 574 c 0
 361 584 346 589 330 589 c 0
EndSplineSet
Comment: "ISc(95 94 90), It(96 90 89 79 78 76), RI(130 127 125 121 118 116 115 114 111), aSI(140 139 132 126 122 120 117 115)"
EndChar

StartChar: zero.slash.Italic.5
Encoding: 65589 -1 158
Width: 0
VWidth: 0
Flags: H
LayerCount: 2
Fore
SplineSet
442 555 m 1
 463 518 473 473 473 420 c 0
 473 393 470 364 465 333 c 0
 425 111 302 34 229 34 c 0
 193 34 164 49 142 75 c 1
 102 11 l 1
 72 22 l 1
 123 103 l 1
 104 140 94 188 94 241 c 0
 94 268 96 296 101 324 c 0
 134.299804688 511 243 624 336 624 c 0
 370 624 400 608 423 582 c 1
 468 655 l 1
 498 644 l 1
 442 555 l 1
400 487 m 1
 174 125 l 1
 183 91 202 67 235 67 c 0
 252 67 303 78 337 156 c 0
 359 204 376 264 392 351 c 0
 398 390 401 424 401 453 c 0
 401 465 401 477 400 487 c 1
330 589 m 0
 288 589 217 547 176 314 c 0
 170 283 165 242 165 201 c 0
 165 191 165 182 166 172 c 1
 392 533 l 1
 386 552 378 566 370 574 c 0
 361 584 346 589 330 589 c 0
EndSplineSet
Comment: "ISc(108 107 105 103), It(108 105 103)"
EndChar

StartChar: zero.slash.Italic.6
Encoding: 65590 -1 159
Width: 0
VWidth: 0
Flags: H
LayerCount: 2
Fore
SplineSet
330 589 m 0
 288 589 217 547 176 314 c 0
 170 283 165 242 165 201 c 0
 165 191 165 182 166 172 c 1
 392 533 l 1
 386 552 378 566 370 574 c 0
 361 584 346 589 330 589 c 0
400 487 m 1
 174 125 l 1
 183 91 202 67 235 67 c 0
 252 67 303 78 337 156 c 0
 359 204 376 264 392 351 c 0
 398 390 401 424 401 453 c 0
 401 465 401 477 400 487 c 1
442 555 m 1
 463 518 473 473 473 420 c 0
 473 393 470 364 465 333 c 0
 425 111 302 34 229 34 c 0
 193 34 164 49 142 75 c 1
 102 11 l 1
 72 22 l 1
 123 103 l 1
 104 140 94 188 94 241 c 0
 94 268 96 296 101 324 c 0
 134.299804688 511 243 624 336 624 c 0
 370 624 400 608 423 582 c 1
 468 655 l 1
 498 644 l 1
 442 555 l 1
EndSplineSet
Comment: "ISc(102 97), It(102 97 88)"
EndChar

StartChar: zero.slash.Italic.7
Encoding: 65591 -1 160
Width: 0
VWidth: 0
Flags: H
LayerCount: 2
Fore
SplineSet
330 589 m 0
 288 589 217 547 176 314 c 0
 170 283 165 242 165 201 c 0
 165 191 165 182 166 172 c 1
 392 533 l 1
 386 552 378 566 370 574 c 0
 361 584 346 589 330 589 c 0
400 487 m 1
 174 125 l 1
 183 91 202 67 235 67 c 0
 252 67 303 78 337 156 c 0
 359 204 376 264 392 351 c 0
 398 390 401 424 401 453 c 0
 401 465 401 477 400 487 c 1
442 555 m 1
 463 518 473 473 473 420 c 0
 473 393 470 364 465 333 c 0
 425 111 302 34 229 34 c 0
 193 34 164 49 142 75 c 1
 102 11 l 1
 72 22 l 1
 123 103 l 1
 104 140 94 188 94 241 c 0
 94 268 96 296 101 324 c 0
 134 511 243 624 336 624 c 0
 370 624 400 608 423 582 c 1
 468 655 l 1
 498 644 l 1
 442 555 l 1
EndSplineSet
Comment: "It(62)"
EndChar

StartChar: zero.slash.Italic.8
Encoding: 65592 -1 161
Width: 0
VWidth: 0
Flags: H
LayerCount: 2
Fore
SplineSet
442 555 m 1
 463 518 473 473 473 420 c 0
 473 393 470 364 465 333 c 0
 425 111 302 34 229 34 c 0
 193 34 164 49 142 75 c 1
 102 11 l 1
 72 22 l 1
 123 103 l 1
 104 140 94 188 94 241 c 0
 94 268 96 296 101 324 c 0
 134 511 243 624 336 624 c 0
 370 624 400 608 423 582 c 1
 468 655 l 1
 498 644 l 1
 442 555 l 1
400 487 m 1
 174 125 l 1
 183 91 202 67 235 67 c 0
 252 67 303 78 337 156 c 0
 359 204 376 264 392 351 c 0
 398 390 401 424 401 453 c 0
 401 465 401 477 400 487 c 1
330 589 m 0
 288 589 217 547 176 314 c 0
 170 283 165 242 165 201 c 0
 165 191 165 182 166 172 c 1
 392 533 l 1
 386 552 378 566 370 574 c 0
 361 584 346 589 330 589 c 0
EndSplineSet
Comment: "It(61 41)"
EndChar

StartChar: zero.slash.Italic.9
Encoding: 65593 -1 162
Width: 0
VWidth: 0
Flags: H
LayerCount: 2
Fore
SplineSet
442 583 m 1
 463 546 473 501 473 448 c 0
 473 421 470 392 465 361 c 0
 425 139 302 62 229 62 c 0
 193 62 164 77 142 103 c 1
 102 39 l 1
 72 50 l 1
 123 131 l 1
 104 168 94 216 94 269 c 0
 94 296 96 324 101 352 c 0
 134 539 243 652 336 652 c 0
 370 652 400 636 423 610 c 1
 468 683 l 1
 498 672 l 1
 442 583 l 1
400 515 m 1
 174 153 l 1
 183 119 202 95 235 95 c 0
 252 95 303 106 337 184 c 0
 359 232 376 292 392 379 c 0
 398 418 401 452 401 481 c 0
 401 493 401 505 400 515 c 1
330 617 m 0
 288 617 217 575 176 342 c 0
 170 311 165 270 165 229 c 0
 165 219 165 210 166 200 c 1
 392 561 l 1
 386 580 378 594 370 602 c 0
 361 612 346 617 330 617 c 0
EndSplineSet
Comment: "It(35)"
EndChar

StartChar: zero.slash.Italic.10
Encoding: 65585 -1 163
Width: 0
VWidth: 0
Flags: H
LayerCount: 2
Fore
SplineSet
442.255859375 508.696289062 m 1
 462.549804688 472.161132812 473.14453125 427.3359375 473.14453125 374.21875 c 0
 473.14453125 347.36328125 470.21484375 318.5546875 464.84375 287.3046875 c 0
 425.29296875 65.13671875 301.7578125 -12.01171875 228.515625 -12.01171875 c 0
 192.991210938 -12.01171875 163.9921875 3.16015625 142.120117188 29.0712890625 c 1
 102.05078125 -34.9609375 l 1
 72.265625 -23.73046875 l 1
 123.108398438 57.517578125 l 1
 103.818359375 93.890625 93.75 141.9765625 93.75 195.5078125 c 0
 93.75 221.875 96.19140625 250.1953125 101.07421875 278.515625 c 0
 133.7890625 465.0390625 242.67578125 578.3203125 336.42578125 578.3203125 c 0
 369.754882812 578.3203125 400.146484375 562.163085938 422.814453125 536.455078125 c 1
 468.26171875 609.08203125 l 1
 498.046875 597.8515625 l 1
 442.255859375 508.696289062 l 1
399.928710938 441.056640625 m 1
 173.626953125 79.419921875 l 1
 183.202148438 45.193359375 201.932617188 21.19140625 235.3515625 21.19140625 c 0
 252.44140625 21.19140625 302.734375 32.421875 336.9140625 110.05859375 c 0
 358.88671875 157.91015625 376.4296875 218.463867188 391.6015625 305.37109375 c 0
 398.421875 344.436523438 401.3671875 378.61328125 401.3671875 407.421875 c 0
 401.3671875 419.498046875 400.862304688 430.703125 399.928710938 441.056640625 c 1
330.078125 543.1640625 m 0
 287.59765625 543.1640625 217.029296875 501.62109375 175.78125 267.7734375 c 0
 170.440429688 237.494140625 165.0390625 195.99609375 165.0390625 155.46875 c 0
 165.0390625 145.5625 165.352539062 135.725585938 166.053710938 126.14453125 c 1
 391.739257812 486.796875 l 1
 386.099609375 506.127929688 378.45703125 519.936523438 370.1171875 528.515625 c 0
 360.83984375 538.28125 346.19140625 543.1640625 330.078125 543.1640625 c 0
EndSplineSet
Comment: "It(4)"
EndChar

StartChar: zero.slash.Slant.1
Encoding: 65600 -1 164
Width: 0
VWidth: 0
Flags: H
LayerCount: 2
Fore
SplineSet
354.219726562 621 m 1
 309.219726562 621 238.443359375 575 186.154296875 329 c 0
 178.311523438 292.099609375 169.05859375 240.099609375 168.119140625 192.400390625 c 1
 410.250976562 578.798828125 l 1
 406.2890625 589.798828125 401.375 598.19921875 395.607421875 603.999023438 c 0
 385.9453125 614.999023438 371.220703125 620.999023438 354.220703125 620.999023438 c 1
 354.219726562 621 l 1
225.874023438 36 m 1
 187.174804688 36 155.765625 49.599609375 133.401367188 78 c 2
 133.323242188 78.099609375 l 1
 90.1357421875 9 l 1
 60.6865234375 21 l 1
 115.014648438 107.700195312 l 1
 87.4150390625 165.099609375 82.4892578125 250.599609375 101.491210938 340 c 0
 143.578125 538 262.659179688 656 361.659179688 656 c 0
 394.959960938 656 421.21484375 644.5 440.801757812 627.5 c 1
 476.823242188 685 l 1
 505.485351562 674 l 1
 461.806640625 604 l 1
 464.813476562 599.799804688 467.37890625 595.400390625 469.84375 591 c 0
 501.514648438 533 507.447265625 448 486.404296875 349 c 0
 436.454101562 114 302.874023438 36 225.874023438 36 c 1
 225.874023438 36 l 1
419.067382812 535.599609375 m 1
 171.41015625 139.201171875 l 1
 178.271484375 99.5009765625 196.313476562 71.0009765625 234.313476562 71.0009765625 c 0
 252.313476562 71.0009765625 303.2265625 80.0009765625 342.65625 162.000976562 c 0
 367.497070312 213.000976562 383.887695312 276.000976562 403.443359375 368.000976562 c 0
 418.83203125 440.401367188 422.708007812 495.80078125 419.067382812 535.600585938 c 1
 419.067382812 535.599609375 l 1
EndSplineSet
Comment: "aRL(154 153 151 150 148 147)"
EndChar

StartChar: zero.slash.Slant.2
Encoding: 65601 -1 165
Width: 0
VWidth: 0
Flags: H
LayerCount: 2
Fore
SplineSet
354.219726562 621 m 1
 309.219726562 621 238.443359375 575 186.154296875 329 c 0
 178.311523438 292.099609375 169.05859375 240.099609375 168.119140625 192.400390625 c 1
 410.250976562 578.798828125 l 1
 406.2890625 589.798828125 401.375 598.19921875 395.607421875 603.999023438 c 0
 385.9453125 614.999023438 371.220703125 620.999023438 354.220703125 620.999023438 c 1
 354.219726562 621 l 1
225.874023438 36 m 1
 187.174804688 36 155.765625 49.599609375 133.401367188 78 c 2
 133.323242188 78.099609375 l 1
 90.1357421875 9 l 1
 60.6865234375 21 l 1
 115.014648438 107.700195312 l 1
 87.4150390625 165.099609375 82.4892578125 250.599609375 101.491210938 340 c 0
 143.578125 538 262.659179688 656 361.659179688 656 c 0
 394.959960938 656 421.21484375 644.5 440.801757812 627.5 c 1
 476.823242188 685 l 1
 505.485351562 674 l 1
 461.806640625 604 l 1
 464.813476562 599.799804688 467.37890625 595.400390625 469.84375 591 c 0
 501.514648438 533 507.447265625 448 486.404296875 349 c 0
 436.454101562 114 302.874023438 36 225.874023438 36 c 1
 225.874023438 36 l 1
419.067382812 535.599609375 m 1
 171.41015625 139.201171875 l 1
 178.271484375 99.5009765625 196.313476562 71.0009765625 234.313476562 71.0009765625 c 0
 252.313476562 71.0009765625 303.047851562 80.1005859375 342.65625 162.000976562 c 0
 367.396484375 213.000976562 383.887695312 276.000976562 403.443359375 368.000976562 c 0
 418.83203125 440.401367188 422.708007812 495.80078125 419.067382812 535.600585938 c 1
 419.067382812 535.599609375 l 1
EndSplineSet
Comment: "aRL(144)"
EndChar

StartChar: zero.slash.Slant.3
Encoding: 65602 -1 166
Width: 0
VWidth: 0
Flags: H
LayerCount: 2
Fore
SplineSet
354.219726562 621 m 0
 309.219726562 621 238.442382812 575 186.153320312 329 c 0
 178.310546875 292.099609375 169.057617188 240.099609375 168.118164062 192.400390625 c 1
 410.25 578.799804688 l 1
 406.288085938 589.799804688 401.374023438 598.200195312 395.606445312 604 c 0
 385.944335938 615 371.219726562 621 354.219726562 621 c 0
225.874023438 36 m 1
 187.174804688 36 155.765625 49.599609375 133.401367188 78 c 2
 133.323242188 78.099609375 l 1
 90.1357421875 9 l 1
 60.6865234375 21 l 1
 115.014648438 107.700195312 l 1
 87.4150390625 165.099609375 82.4892578125 250.600585938 101.491210938 340 c 0
 143.578125 538 262.659179688 656 361.659179688 656 c 0
 394.958984375 656 421.21484375 644.5 440.801757812 627.5 c 1
 476.823242188 685 l 1
 505.485351562 674 l 1
 461.806640625 604 l 1
 464.813476562 599.799804688 467.37890625 595.400390625 469.84375 591 c 0
 501.514648438 533 507.447265625 448 486.404296875 349 c 0
 436.454101562 114 302.874023438 36 225.874023438 36 c 1
 225.874023438 36 l 1
419.067382812 535.599609375 m 1
 171.41015625 139.200195312 l 1
 178.271484375 99.5 196.313476562 71 234.313476562 71 c 0
 252.313476562 71 303.047851562 80.099609375 342.65625 162 c 0
 367.396484375 213 383.887695312 276 403.443359375 368 c 0
 418.83203125 440.399414062 422.708007812 495.799804688 419.067382812 535.599609375 c 1
EndSplineSet
Comment: "aRL(143 142)"
EndChar

StartChar: zero.slash.Slant.4
Encoding: 65603 -1 167
Width: 0
VWidth: 0
Flags: H
LayerCount: 2
Fore
SplineSet
336.41796875 589 m 0
 293.41796875 589 221.491210938 547 171.96484375 314 c 0
 164.35546875 278.200195312 156.30859375 226.700195312 156.861328125 179.900390625 c 1
 389.362304688 551.099609375 l 1
 385.266601562 561 380.381835938 568.599609375 375.228515625 574 c 0
 366.35546875 584 352.41796875 589 336.41796875 589 c 0
399.999023438 509.400390625 m 1
 162.057617188 128.599609375 l 1
 170.004882812 92.599609375 187.86328125 67 222.463867188 67 c 0
 239.463867188 67 289.702148438 78 327.380859375 156 c 0
 350.583984375 204 370.336914062 264 388.830078125 351 c 0
 403.411132812 419.600585938 405.227539062 471.900390625 399.999023438 509.400390625 c 1
416.629882812 594.700195312 m 1
 454.447265625 655 l 1
 484.108398438 644 l 1
 437.758789062 569.900390625 l 1
 440.250976562 566.099609375 442.700195312 562.099609375 444.829101562 558 c 0
 475.138671875 503 480.984375 427 461.00390625 333 c 0
 413.81640625 111 287.44921875 34 214.44921875 34 c 0
 178.649414062 34 149.922851562 49.400390625 128.891601562 75.599609375 c 1
 88.560546875 11 l 1
 57.8984375 22 l 1
 110.268554688 105.599609375 l 1
 84.1318359375 160 79.1298828125 239.5 97.0908203125 324 c 0
 136.838867188 511 249.856445312 624 343.856445312 624 c 0
 371.458007812 624 396.598632812 612.899414062 416.629882812 594.700195312 c 1
EndSplineSet
Comment: "Sl(108 107 105 103 95 94 90 89 88 79 78 76), aRL(140 139 132 126 122 120 117 115)"
EndChar

StartChar: zero.slash.Slant.5
Encoding: 65604 -1 168
Width: 0
VWidth: 0
Flags: H
LayerCount: 2
Fore
SplineSet
416.629882812 594.700195312 m 1
 454.447265625 655 l 1
 484.108398438 644 l 1
 437.758789062 569.900390625 l 1
 440.250976562 566.099609375 442.700195312 562.099609375 444.829101562 558 c 0
 475.138671875 503 480.984375 427 461.00390625 333 c 0
 413.81640625 111 287.44921875 34 214.44921875 34 c 0
 178.649414062 34 149.922851562 49.400390625 128.891601562 75.599609375 c 1
 88.560546875 11 l 1
 57.8984375 22 l 1
 110.268554688 105.599609375 l 1
 84.1318359375 160 79.1298828125 239.5 97.0908203125 324 c 0
 136.838867188 511 249.856445312 624 343.856445312 624 c 0
 371.458007812 624 396.598632812 612.899414062 416.629882812 594.700195312 c 1
399.999023438 509.400390625 m 1
 162.057617188 128.599609375 l 1
 170.004882812 92.599609375 187.86328125 67 222.463867188 67 c 0
 239.463867188 67 289.702148438 78 327.380859375 156 c 0
 350.583984375 204 370.336914062 264 388.830078125 351 c 0
 403.411132812 419.600585938 405.227539062 471.900390625 399.999023438 509.400390625 c 1
336.41796875 589 m 0
 293.41796875 589 221.491210938 547 171.96484375 314 c 0
 164.35546875 278.200195312 156.30859375 226.700195312 156.861328125 179.900390625 c 1
 389.362304688 551.099609375 l 1
 385.266601562 561 380.381835938 568.599609375 375.228515625 574 c 0
 366.35546875 584 352.41796875 589 336.41796875 589 c 0
EndSplineSet
Comment: "Sl(102 97)"
EndChar

StartChar: zero.slash.Semibold.1
Encoding: 65616 -1 169
Width: 0
VWidth: 0
Flags: H
LayerCount: 2
Fore
SplineSet
247 612 m 0
 213 612 158 571 158 330 c 0
 158 298 160.400390625 254 167.299804688 211.700195312 c 1
 302.799804688 559 l 1
 294.700195312 577.099609375 285.799804688 589.5 277 597 c 0
 267 606 255 612 247 612 c 0
322.700195312 492.599609375 m 1
 185.299804688 139.200195312 l 1
 198.5 103.799804688 217.400390625 79 244 79 c 0
 256 79 291 90 310 168 c 0
 323 217 333 277 333 369 c 0
 333 418.599609375 329.099609375 459.5 322.700195312 492.599609375 c 1
365.900390625 603.799804688 m 1
 372.5 597.799804688 378.599609375 591.5 384 585 c 0
 428 524 450 444 450 350 c 0
 450 115 326 36 243 36 c 0
 211 36 181.700195312 45.7998046875 155.900390625 63.400390625 c 1
 132 2 l 1
 91 16 l 1
 121.299804688 93.7998046875 l 1
 70.2998046875 149.900390625 40 240.900390625 40 340 c 0
 40 537 140 656 247 656 c 0
 275.400390625 656 304.700195312 645.799804688 330.599609375 630.200195312 c 1
 352 685 l 1
 392 671 l 1
 365.900390625 603.799804688 l 1
EndSplineSet
Comment: "RZ(170 166 151 150 148 146)"
EndChar

StartChar: zero.slash.Semibold.2
Encoding: 65617 -1 170
Width: 0
VWidth: 0
Flags: H
LayerCount: 2
Fore
SplineSet
247 612 m 0
 213 612 158 571 158 330 c 0
 158 298 160.400390625 254 167.299804688 211.700195312 c 1
 302.799804688 559 l 1
 294.700195312 577.099609375 285.799804688 589.5 277 597 c 0
 267 606 255 612 247 612 c 0
322.700195312 492.599609375 m 1
 185.299804688 139.200195312 l 1
 198.5 103.799804688 217.400390625 79 244 79 c 0
 256 79 291 90 310 168 c 0
 323 217 333 277 333 369 c 0
 333 418.599609375 329.099609375 459.5 322.700195312 492.599609375 c 1
330.599609375 630.200195312 m 1
 352 685 l 1
 392 671 l 1
 365.900390625 603.799804688 l 1
 372.5 597.799804688 378.599609375 591.5 384 585 c 0
 428 524 450 444 450 350 c 0
 450 115 326 36 243 36 c 0
 211 36 181.700195312 45.7998046875 155.900390625 63.400390625 c 1
 132 2 l 1
 91 16 l 1
 121.299804688 93.7998046875 l 1
 70.2998046875 149.900390625 40 240.900390625 40 340 c 0
 40 537 140 656 247 656 c 0
 275.400390625 656 304.700195312 645.799804688 330.599609375 630.200195312 c 1
EndSplineSet
Comment: "RZ(144 142)"
EndChar

StartChar: zero.slash.Semibold.3
Encoding: 65618 -1 171
Width: 0
VWidth: 0
Flags: H
LayerCount: 2
Fore
SplineSet
234 582 m 0
 201 582 151 543 151 315 c 0
 151 282.5 153 236.5 159.900390625 193.5 c 1
 288.599609375 525.099609375 l 1
 280.200195312 545.900390625 270.5 560 261 568 c 0
 251 577 242 582 234 582 c 0
306.900390625 454.400390625 m 1
 178.5 122.299804688 l 1
 190.5 93.5 207.299804688 74 231 74 c 0
 243 74 275 85 294 159 c 0
 307 205 314 265 314 352 c 0
 314 391.900390625 311.400390625 425.900390625 306.900390625 454.400390625 c 1
317 598.299804688 m 1
 339 655 l 1
 379 641 l 1
 352.099609375 571.5 l 1
 357.099609375 566.799804688 361.700195312 561.900390625 366 557 c 0
 409 499 429 423 429 334 c 0
 429 111 311 34 230 34 c 0
 201.700195312 34 175.799804688 41.7998046875 152.799804688 55.7001953125 c 1
 132 2 l 1
 91 16 l 1
 117.400390625 84 l 1
 65.2001953125 137.5 35 227.900390625 35 325 c 0
 35 512 129 624 234 624 c 0
 262.700195312 624 291.599609375 613.799804688 317 598.299804688 c 1
EndSplineSet
Comment: "RZ(131)"
EndChar

StartChar: zero.slash.SemiboldItalic.1
Encoding: 65632 -1 172
Width: 0
VWidth: 0
Flags: H
LayerCount: 2
Fore
SplineSet
346 612 m 0
 313 612 253 571 206 330 c 0
 199.799804688 297.599609375 193.700195312 252.799804688 192.200195312 210 c 1
 389.700195312 557.599609375 l 1
 385.299804688 576.400390625 379 589.400390625 372 597 c 0
 364 606 354 612 346 612 c 0
395.799804688 491 m 1
 195.599609375 138.599609375 l 1
 201.400390625 103.5 214.700195312 79 240 79 c 0
 252 79 288 90 321 168 c 0
 343 217 364 277 382 369 c 0
 391.5 417.799804688 395.5 458.200195312 395.799804688 491 c 1
459.700195312 603.5 m 1
 464.700195312 597.599609375 469.200195312 591.299804688 473 585 c 0
 491.5 547.5 500.400390625 502.700195312 500.400390625 452 c 0
 500.400390625 420.299804688 496.900390625 386.200195312 490 350 c 0
 444 115 311 36 231 36 c 0
 200.400390625 36 174.099609375 45.7998046875 152.799804688 63.2998046875 c 1
 118 2 l 1
 82 16 l 1
 125.799804688 93.099609375 l 1
 99.599609375 131.200195312 85.7001953125 185.700195312 85.7001953125 248 c 0
 85.7001953125 277.200195312 88.7998046875 308.200195312 95 340 c 0
 133 537 252 656 355 656 c 0
 382.400390625 656 408.799804688 645.700195312 430.799804688 630 c 1
 462 685 l 1
 498 671 l 1
 459.700195312 603.5 l 1
EndSplineSet
Comment: "RZI(170 166 151 150 148 146), aSZI(154 153 151 150 148 147)"
EndChar

